<svg width="322" height="52" viewBox="0 0 322 52" fill="none" xmlns="http://www.w3.org/2000/svg">
<g clip-path="url(#clip0_29_921)">
<path d="M79.0693 27.8788L85 36.5H81.3069L76.1604 28.9718H72.2437V36.5H69V19.5H72.2437V27.1497H75.9363L81.0833 19.5H84.6646L79.0693 27.8788Z" fill="#007A33"/>
<path d="M99.7782 36.5V22.6566H99.5567L91.2226 36.5H87V19.5H90.2218V33.3434H90.4438L98.778 19.5H103V36.5H99.7782Z" fill="#007A33"/>
<path d="M107 15.5C107 16.0333 106.863 16.5003 106.59 16.8997C106.316 17.3003 105.953 17.5 105.5 17.5C105.046 17.5 104.683 17.3003 104.41 16.8997C104.137 16.5003 104 16.0333 104 15.5C104 14.9673 104.137 14.5003 104.41 14.1003C104.683 13.6996 105.046 13.5 105.5 13.5C105.94 13.5 106.3 13.6996 106.581 14.1003C106.86 14.5003 107 14.9673 107 15.5Z" fill="#007A33"/>
<path d="M110 19.5H107V36.5H110V19.5Z" fill="#007A33"/>
<path d="M112 15.5C112 16.0333 111.863 16.5003 111.591 16.8997C111.317 17.3003 110.953 17.5 110.5 17.5C110.046 17.5 109.683 17.3003 109.41 16.8997C109.137 16.5003 109 16.0333 109 15.5C109 14.9673 109.137 14.5003 109.41 14.1003C109.683 13.6996 110.047 13.5 110.5 13.5C110.94 13.5 111.301 13.6996 111.58 14.1003C111.86 14.5003 112 14.9673 112 15.5Z" fill="#007A33"/>
<path d="M113.001 19.5H120.5C121.632 19.5 122.614 19.6098 123.445 19.8283C124.276 20.0461 124.963 20.3543 125.508 20.7515C126.052 21.147 126.457 21.6217 126.721 22.1709C126.986 22.7219 127.118 23.3291 127.118 23.9924C127.118 24.851 126.897 25.5954 126.456 26.2276C126.015 26.858 125.353 27.3285 124.47 27.636C125.574 27.8788 126.438 28.3524 127.062 29.056C127.687 29.7608 128 30.6633 128 31.7641C128 33.2219 127.452 34.3746 126.357 35.2246C125.261 36.0753 123.529 36.5 121.161 36.5H113V19.5H113.001ZM120.5 26.9074C122.632 26.9074 123.698 25.936 123.698 23.993C123.698 23.1357 123.43 22.4754 122.894 22.0141C122.357 21.5521 121.559 21.3221 120.5 21.3221H116.198V26.9074H120.5ZM116.199 28.7289V34.6791H121.163C122.265 34.6791 123.111 34.4362 123.699 33.9511C124.287 33.4648 124.582 32.7368 124.582 31.7647C124.582 30.7286 124.287 29.9646 123.699 29.4691C123.111 28.976 122.265 28.7289 121.163 28.7289H116.199Z" fill="#007A33"/>
<path d="M141.07 27.8788L147 36.5H143.308L138.16 28.9718H134.244V36.5H131V19.5H134.244V27.1497H137.937L143.083 19.5H146.664L141.07 27.8788Z" fill="#007A33"/>
<path d="M157.001 18.5C158.351 18.5 159.577 18.695 160.679 19.0843C161.782 19.4742 162.726 20.0499 163.514 20.8114C164.301 21.5736 164.913 22.5141 165.348 23.6326C165.782 24.7516 166 26.0405 166 27.5C166 28.9601 165.782 30.249 165.348 31.3675C164.913 32.4865 164.301 33.4265 163.514 34.1892C162.726 34.952 161.782 35.5264 160.679 35.9157C159.577 36.3051 158.351 36.5 157.001 36.5C155.651 36.5 154.419 36.3051 153.309 35.9157C152.199 35.5258 151.25 34.952 150.463 34.1892C149.676 33.4265 149.069 32.4865 148.641 31.3675C148.213 30.249 148 28.9601 148 27.5C148 26.0405 148.213 24.7516 148.641 23.6326C149.069 22.5141 149.676 21.5736 150.463 20.8114C151.251 20.0499 152.199 19.4742 153.309 19.0843C154.419 18.695 155.651 18.5 157.001 18.5ZM157.001 20.2027C156.235 20.2027 155.519 20.3488 154.851 20.6409C154.183 20.9337 153.603 21.3786 153.107 21.9787C152.612 22.5783 152.218 23.3374 151.925 24.2529C151.633 25.1696 151.486 26.252 151.486 27.5C151.486 28.7486 151.633 29.831 151.925 30.7471C152.218 31.6639 152.612 32.4211 153.107 33.0213C153.603 33.6214 154.183 34.0676 154.851 34.3591C155.519 34.6512 156.235 34.7973 157.001 34.7973C157.766 34.7973 158.482 34.6512 159.149 34.3591C159.817 34.067 160.398 33.6214 160.893 33.0213C161.388 32.4217 161.783 31.6639 162.074 30.7471C162.367 29.831 162.513 28.748 162.513 27.5C162.513 26.252 162.367 25.1696 162.074 24.2529C161.783 23.3374 161.388 22.5789 160.893 21.9787C160.399 21.3786 159.817 20.933 159.149 20.6409C158.482 20.3488 157.766 20.2027 157.001 20.2027Z" fill="#007A33"/>
<path d="M178.886 34.0725H179.114L185.073 19.5H190V36.5H186.678V22.9001H186.448L180.948 36.5H177.052L171.552 22.9001H171.323V36.5H168V19.5H172.927L178.886 34.0725Z" fill="#007A33"/>
<path d="M210 19.5L201.4 36.5H197.847L200.369 31.5212H198.535L192 19.5H195.784L201.172 29.4575H201.401L206.447 19.5H210Z" fill="#007A33"/>
<path d="M228 19.5V36.5H224.686V29.0926H215.314V36.5H212V19.5H215.314V27.2711H224.686V19.5H228Z" fill="#007A33"/>
<path d="M239.333 34.6757C240.34 34.6757 241.307 34.485 242.234 34.1036C243.159 33.7229 244.045 33.1026 244.889 32.2433L246 33.7027C245.155 34.562 244.133 35.2428 242.933 35.7452C241.734 36.2476 240.459 36.5 239.111 36.5C237.719 36.5 236.463 36.3051 235.344 35.9157C234.226 35.5258 233.27 34.952 232.478 34.1892C231.685 33.4265 231.074 32.4865 230.645 31.3675C230.215 30.249 230 28.9601 230 27.5C230 26.0405 230.211 24.7516 230.633 23.6326C231.055 22.5141 231.656 21.5736 232.434 20.8114C233.211 20.0499 234.148 19.4742 235.244 19.0843C236.341 18.695 237.556 18.5 238.889 18.5C240.236 18.5 241.511 18.7524 242.711 19.2548C243.912 19.7572 244.933 20.438 245.778 21.2979L244.666 22.7574C243.823 21.8981 242.937 21.2772 242.012 20.8964C241.085 20.515 240.119 20.3243 239.111 20.3243C238.311 20.3243 237.563 20.4661 236.867 20.7497C236.171 21.0339 235.571 21.4672 235.068 22.0515C234.563 22.6351 234.167 23.3771 233.877 24.2774C233.589 25.1782 233.445 26.252 233.445 27.5C233.445 28.7486 233.589 29.8231 233.877 30.7227C234.167 31.6223 234.574 32.3655 235.1 32.9486C235.626 33.5328 236.247 33.9667 236.967 34.2503C237.686 34.5339 238.475 34.6757 239.333 34.6757Z" fill="#007A33"/>
<path d="M251.328 21.3221V26.9074H259.705V28.7289H251.328V34.6791H262V36.5H248V19.5H262V21.3215L251.328 21.3221Z" fill="#007A33"/>
<path d="M271.941 19.5012C273.043 19.5012 274.033 19.6343 274.907 19.9015C275.783 20.1688 276.521 20.5575 277.124 21.0677C277.727 21.5772 278.19 22.2002 278.514 22.9367C278.838 23.6745 279 24.5123 279 25.4502C279 26.39 278.838 27.2278 278.514 27.9643C278.19 28.7015 277.726 29.3245 277.124 29.834C276.521 30.3435 275.781 30.7322 274.906 30.9995C274.031 31.2668 273.041 31.3998 271.938 31.3998H267.193V36.5H264V19.5H271.941V19.5012ZM267.194 21.3233V29.5802H271.929C273.089 29.5802 273.988 29.2445 274.627 28.5721C275.266 27.9008 275.585 26.8598 275.585 25.4515C275.585 24.0431 275.266 23.0027 274.627 22.332C273.988 21.6596 273.089 21.3239 271.929 21.3239H267.194V21.3233Z" fill="#007A33"/>
<path d="M282 19.5H289.5C290.632 19.5 291.615 19.6098 292.445 19.8283C293.276 20.0461 293.964 20.3543 294.508 20.7515C295.052 21.147 295.456 21.6217 295.721 22.1709C295.985 22.7219 296.117 23.3291 296.117 23.9924C296.117 24.851 295.897 25.5954 295.456 26.2276C295.015 26.858 294.353 27.3285 293.471 27.636C294.574 27.8788 295.438 28.3524 296.063 29.056C296.688 29.7608 297 30.6633 297 31.7641C297 33.2219 296.453 34.3746 295.358 35.2246C294.262 36.0753 292.53 36.5 290.162 36.5H282.001L282 19.5ZM289.5 26.9074C291.632 26.9074 292.698 25.936 292.698 23.993C292.698 23.1357 292.43 22.4754 291.894 22.0141C291.357 21.5521 290.559 21.3221 289.5 21.3221H285.198V26.9074H289.5ZM285.198 28.7289V34.6791H290.162C291.265 34.6791 292.111 34.4362 292.699 33.9511C293.287 33.4648 293.582 32.7368 293.582 31.7647C293.582 30.7286 293.287 29.9646 292.699 29.4691C292.111 28.976 291.265 28.7289 290.162 28.7289H285.198Z" fill="#007A33"/>
<path d="M303 36.5H300V19.5H303V36.5Z" fill="#007A33"/>
<path d="M315.333 34.6757C316.34 34.6757 317.306 34.485 318.233 34.1036C319.159 33.7229 320.044 33.1026 320.889 32.2433L322 33.7027C321.155 34.562 320.133 35.2428 318.932 35.7452C317.733 36.2476 316.459 36.5 315.11 36.5C313.718 36.5 312.462 36.3051 311.344 35.9157C310.225 35.5258 309.27 34.952 308.478 34.1892C307.685 33.4265 307.074 32.4865 306.645 31.3675C306.215 30.249 306 28.9601 306 27.5C306 26.0405 306.211 24.7516 306.633 23.6326C307.056 22.5141 307.657 21.5736 308.433 20.8114C309.211 20.0499 310.148 19.4742 311.244 19.0843C312.34 18.695 313.555 18.5 314.888 18.5C316.236 18.5 317.51 18.7524 318.71 19.2548C319.912 19.7572 320.933 20.438 321.777 21.2979L320.666 22.7574C319.821 21.8981 318.936 21.2772 318.011 20.8964C317.084 20.515 316.118 20.3243 315.11 20.3243C314.311 20.3243 313.562 20.4661 312.866 20.7497C312.17 21.0339 311.57 21.4672 311.067 22.0515C310.563 22.6351 310.166 23.3771 309.877 24.2774C309.589 25.1782 309.444 26.252 309.444 27.5C309.444 28.7486 309.589 29.8231 309.877 30.7227C310.166 31.6223 310.573 32.3655 311.1 32.9486C311.625 33.5328 312.247 33.9667 312.966 34.2503C313.684 34.5339 314.474 34.6757 315.333 34.6757Z" fill="#007A33"/>
<path d="M16.4352 1.61249C16.4352 1.61249 14.3824 11.4611 12 18.5C18.2816 12.6917 24.4433 10.6598 23.9749 5.83482C23.6852 2.86286 17.9272 1.01341 16.4352 1.61249Z" fill="url(#paint0_linear_29_921)"/>
<path d="M14.0008 15.6099C14.0008 15.6099 14.0653 15.5696 14.1612 15.536C14.2085 15.5275 14.2648 15.5024 14.3237 15.5031C14.3826 15.5018 14.4454 15.5012 14.5082 15.5C14.5705 15.5128 14.6324 15.5263 14.6905 15.5385C14.7485 15.5507 14.8018 15.5848 14.8483 15.6025C14.9398 15.6544 15 15.7063 15 15.7063L14.9992 15.7252C14.9992 15.7252 14.7489 15.7057 14.4991 15.6861C14.2498 15.6569 14 15.6282 14 15.6282L14.0008 15.6099Z" fill="#006838"/>
<path d="M17.0011 11.5644C17.0011 11.5644 17.1914 11.5327 17.4754 11.5126C17.6169 11.5107 17.7828 11.4942 17.9584 11.5022C18.1349 11.5101 18.3227 11.5174 18.5104 11.5254C18.6976 11.5474 18.8842 11.5693 19.0598 11.5901C19.2353 11.6102 19.3975 11.6529 19.5368 11.6767C19.8155 11.742 20 11.803 20 11.803L19.999 11.822C19.999 11.822 19.2486 11.7664 18.4987 11.7115C17.7493 11.6474 17 11.5827 17 11.5827L17.0011 11.5644Z" fill="#006838"/>
<path d="M19.0005 7.58721C19.0005 7.58721 19.1283 7.5506 19.3184 7.52315C19.4129 7.51767 19.5243 7.49632 19.6415 7.50055C19.7593 7.5036 19.8844 7.50603 20.0095 7.50908C20.1341 7.5262 20.2587 7.54388 20.3754 7.55976C20.4921 7.57501 20.5998 7.61348 20.6927 7.63359C20.8775 7.69161 21 7.74776 21 7.74776L20.999 7.76668C20.999 7.76668 20.4989 7.73126 19.9989 7.69584C19.4995 7.65189 19 7.60676 19 7.60676L19.0005 7.58721Z" fill="#006838"/>
<path d="M15.9843 13.5C15.9843 13.5 15.8823 13.3939 15.7535 13.2248C15.6958 13.1368 15.6166 13.0398 15.5542 12.9253C15.4907 12.8112 15.4231 12.6898 15.3555 12.5678C15.3001 12.4401 15.2448 12.313 15.1929 12.1939C15.1405 12.0747 15.1119 11.9539 15.0769 11.8546C15.0215 11.6509 15 11.5079 15 11.5079L15.0163 11.5C15.0163 11.5 15.2663 11.9964 15.5163 12.4923C15.7582 12.9927 16 13.4926 16 13.4926L15.9843 13.5Z" fill="#006838"/>
<path d="M17.9831 9.5C17.9831 9.5 17.8156 9.27036 17.5904 8.9149C17.4856 8.73318 17.3488 8.52784 17.2278 8.29628C17.1054 8.06541 16.9749 7.81934 16.8444 7.5726C16.7271 7.32046 16.6098 7.06765 16.5 6.8307C16.3896 6.59431 16.308 6.36281 16.2271 6.1708C16.0816 5.77827 16 5.5085 16 5.5085L16.0176 5.5C16.0176 5.5 16.5176 6.49588 17.0176 7.49122C17.5088 8.49133 18 9.49089 18 9.49089L17.9831 9.5Z" fill="#006838"/>
<path d="M20 6.51063C20 6.51063 19.8832 6.70299 19.6783 7.04039C19.4699 7.37422 19.1911 7.86496 18.8217 8.43023C18.0896 9.56497 17.1127 11.0779 16.1364 12.5903C15.1166 14.0748 14.0968 15.5594 13.3319 16.6722C12.9525 17.2304 12.6076 17.6772 12.3795 17.9987C12.1472 18.3177 12.0149 18.5 12.0149 18.5L12 18.4894L19.9857 6.5L20 6.51063Z" fill="#006838"/>
<path d="M37.2592 27.5C35.8554 19.8763 39.4548 15.7142 37.2865 8.58744C35.7413 3.50809 31.8276 1.97484 30.5915 1.3008C28.5945 0.211355 19.6613 0.10457 17 1.79151C18.3281 1.71436 18.9318 2.85443 19.6765 4.76543C20.4113 6.65421 20.8601 11.7015 22.3676 14.61C24.6382 18.9906 31.9091 21.4046 37.2592 27.5Z" fill="url(#paint1_linear_29_921)"/>
<path d="M23 0.520595C23 0.520595 22.9794 0.598138 22.9287 0.725959C22.8709 0.848936 22.8123 1.03975 22.6984 1.24208C22.5846 1.44441 22.4714 1.69158 22.3142 1.93571C22.1651 2.18408 21.9833 2.43487 21.8043 2.68748C21.6125 2.93222 21.4228 3.17818 21.225 3.39626C21.0326 3.61797 20.8229 3.80638 20.6585 3.97721C20.4933 4.14744 20.3216 4.26799 20.2171 4.36309C20.1059 4.45275 20.034 4.5 20.034 4.5L20 4.47879C20 4.47879 20.7331 3.47925 21.4661 2.4791C22.2157 1.48986 22.9654 0.5 22.9654 0.5L23 0.520595Z" fill="#006838"/>
<path d="M26 3.5188C26 3.5188 25.9437 3.6586 25.8338 3.89474C25.7178 4.12677 25.5716 4.47159 25.3602 4.86104C25.1472 5.24874 24.9213 5.7169 24.6379 6.19034C24.3568 6.66556 24.0567 7.17133 23.7571 7.67769C23.4353 8.16878 23.1135 8.65987 22.8122 9.1204C22.5116 9.58153 22.1948 9.98742 21.9416 10.3475C21.6867 10.7058 21.4446 10.9848 21.2895 11.1899C21.1278 11.3908 21.029 11.5 21.029 11.5L21 11.4806C21 11.4806 22.2361 9.48046 23.4721 7.48032C24.7221 5.48957 25.9721 3.5 25.9721 3.5L26 3.5188Z" fill="#006838"/>
<path d="M29 9.52212C29 9.52212 28.9452 9.66368 28.8366 9.90135C28.7215 10.1351 28.5783 10.4839 28.3683 10.8754C28.1577 11.2664 27.9305 11.7346 27.6543 12.2138C27.3853 12.697 27.078 13.1984 26.7726 13.701C26.4564 14.1952 26.1421 14.6907 25.8289 15.1427C25.5217 15.5979 25.2067 16.0025 24.9509 16.3597C24.6943 16.7168 24.4504 16.9909 24.2935 17.1935C24.1306 17.3916 24.0304 17.5 24.0304 17.5L24 17.4773C24 17.4773 25.2348 15.4778 26.4702 13.4776C27.7199 11.4885 28.9702 9.5 28.9702 9.5L29 9.52212Z" fill="#006838"/>
<path d="M31 14.5215C31 14.5215 30.9745 14.6152 30.9176 14.7703C30.8553 14.9205 30.7854 15.1508 30.6672 15.4001C30.5486 15.6489 30.4261 15.9518 30.2656 16.2547C30.1111 16.5619 29.9285 16.8754 29.7475 17.1906C29.5567 17.4978 29.3675 17.8062 29.1734 18.0827C28.9843 18.3628 28.7832 18.6054 28.6228 18.8227C28.4623 19.0401 28.3003 19.1989 28.2006 19.3208C28.0943 19.4378 28.0277 19.5 28.0277 19.5L28 19.4785C28 19.4785 28.7361 18.2293 29.4727 16.9787C30.2228 15.7394 30.9729 14.5 30.9729 14.5L31 14.5215Z" fill="#006838"/>
<path d="M35 20.518C35 20.518 34.9985 20.5624 34.979 20.6326C34.9519 20.6991 34.9391 20.8064 34.876 20.9127C34.8128 21.0189 34.761 21.1531 34.6654 21.2784C34.5782 21.4074 34.4594 21.5333 34.3436 21.6602C34.2143 21.7804 34.0865 21.9027 33.9444 22.0058C33.8091 22.1126 33.6474 22.1956 33.5271 22.2751C33.4053 22.354 33.2654 22.402 33.1857 22.4443C33.0977 22.4825 33.0384 22.5 33.0384 22.5L33 22.482C33 22.482 33.4812 21.9821 33.9616 21.4822C34.4617 20.9911 34.9617 20.5 34.9617 20.5L35 20.518Z" fill="#006838"/>
<path d="M26.004 2.58835C26.004 2.58835 26.1002 2.56705 26.2677 2.54881C26.4341 2.54044 26.6754 2.49634 26.9592 2.50091C27.243 2.50775 27.5764 2.48722 27.9299 2.51535C28.2841 2.53208 28.6594 2.5815 29.0343 2.62712C29.4085 2.68947 29.7827 2.74953 30.1311 2.83317C30.48 2.90921 30.803 3.02251 31.0811 3.09778C31.3592 3.17457 31.5866 3.28482 31.7484 3.34033C31.909 3.40572 32 3.45363 32 3.45363L31.9959 3.5C31.9959 3.5 30.4961 3.2947 28.9963 3.09017C27.4981 2.8613 26 2.6332 26 2.6332L26.004 2.58835Z" fill="#006838"/>
<path d="M28.0043 6.53933C28.0043 6.53933 28.1479 6.52587 28.3974 6.51729C28.6457 6.51667 29.0037 6.48964 29.4283 6.5044C29.8529 6.51974 30.3507 6.51604 30.8794 6.55102C31.4093 6.57799 31.972 6.63199 32.5351 6.68287C33.0971 6.74731 33.6584 6.80989 34.1828 6.89086C34.7078 6.96507 35.1946 7.06875 35.613 7.1399C36.0314 7.21229 36.3765 7.31047 36.6199 7.36134C36.8626 7.42022 37 7.46258 37 7.46258L36.9963 7.5C36.9963 7.5 34.746 7.27856 32.4963 7.05649C30.2485 6.81602 28 6.57618 28 6.57618L28.0043 6.53933Z" fill="#006838"/>
<path d="M30.0033 12.6153C30.0033 12.6153 30.115 12.5911 30.3085 12.5693C30.5019 12.558 30.7799 12.508 31.1101 12.5097C31.4402 12.5121 31.8265 12.4862 32.2379 12.5104C32.6498 12.5233 33.0878 12.5701 33.5253 12.6137C33.9622 12.675 34.3991 12.733 34.8071 12.8177C35.2156 12.8935 35.5942 13.008 35.9199 13.0846C36.2456 13.1621 36.5147 13.2758 36.7037 13.3331C36.8927 13.4 37 13.4508 37 13.4508L36.9972 13.5C36.9972 13.5 35.2473 13.304 33.4974 13.1081C31.7487 12.8871 30 12.6653 30 12.6653L30.0033 12.6153Z" fill="#006838"/>
<path d="M33.0035 17.6996C33.0035 17.6996 33.0694 17.6675 33.1822 17.6362C33.2938 17.6164 33.4571 17.5482 33.6475 17.5397C33.8378 17.5312 34.0623 17.4887 34.2985 17.5029C34.5358 17.5047 34.7861 17.5454 35.0364 17.5813C35.2855 17.6382 35.5347 17.692 35.7661 17.7772C35.9982 17.851 36.2103 17.974 36.3948 18.0516C36.5787 18.131 36.728 18.2559 36.8349 18.3155C36.9407 18.3874 37 18.4423 37 18.4423L36.9959 18.5C36.9959 18.5 35.9959 18.3287 34.9959 18.1575C33.9976 17.9579 33 17.7573 33 17.7573L33.0035 17.6996Z" fill="#006838"/>
<path d="M36.0051 23.7749C36.0051 23.7767 36.024 23.7479 36.0552 23.7167C36.0857 23.6935 36.1321 23.6335 36.1822 23.609C36.2323 23.5857 36.2932 23.5361 36.3534 23.522C36.4151 23.5 36.4775 23.5012 36.5407 23.5C36.6023 23.5122 36.6633 23.522 36.7191 23.5545C36.775 23.5796 36.823 23.6371 36.8665 23.6695C36.91 23.702 36.9412 23.7675 36.9652 23.7957C36.9884 23.8318 37 23.8624 37 23.8606L36.9956 23.8979C36.9956 23.8979 36.7453 23.8857 36.4957 23.8734C36.2482 23.8428 36 23.8116 36 23.8116L36.0051 23.7749Z" fill="#006838"/>
<path d="M35.9689 25.5C35.9689 25.5 35.7812 25.1174 35.4527 24.449C35.1299 23.7769 34.6419 22.8305 34.1048 21.6707C33.5688 20.5098 32.918 19.1688 32.2666 17.7094C31.613 16.2506 30.9153 14.6951 30.2176 13.1396C29.5442 11.5721 28.8708 10.0046 28.2392 8.53504C27.6065 7.06602 27.0564 5.67512 26.5639 4.4932C26.0732 3.31007 25.7039 2.30532 25.4263 1.61106C25.1549 0.913797 25 0.51502 25 0.51502L25.0316 0.5L36 25.4855L35.9689 25.5Z" fill="#006838"/>
<path d="M7.54439 51.5C7.54439 51.5 16.8714 48.3598 24 46.956C15.9381 44.1485 11.1161 39.5243 7.29089 42.4176C4.93447 44.2 6.28693 50.4357 7.54439 51.5Z" fill="url(#paint2_linear_29_921)"/>
<path d="M19.9734 46.5C19.9734 46.5 19.847 46.4529 19.6959 46.3742C19.6322 46.3317 19.5372 46.2874 19.4725 46.231C19.406 46.1751 19.3347 46.1154 19.2644 46.0557C19.213 45.9909 19.1627 45.927 19.1152 45.8664C19.0667 45.8063 19.0543 45.742 19.0277 45.6911C18.9964 45.5844 19.0001 45.5065 19.0001 45.5065L19.0267 45.5C19.0267 45.5 19.2768 45.7466 19.5267 45.9937C19.7634 46.2436 20 46.493 20 46.493L19.9734 46.5Z" fill="#006838"/>
<path d="M14.9893 46.5C14.9893 46.5 14.8997 46.332 14.7819 46.0696C14.7278 45.9346 14.6562 45.7834 14.5949 45.6102C14.5332 45.4376 14.4672 45.2534 14.4011 45.0692C14.3434 44.8792 14.2857 44.6892 14.232 44.5114C14.1775 44.3329 14.1409 44.158 14.1023 44.012C14.0346 43.7137 14 43.5081 14 43.5081L14.0108 43.5C14.0108 43.5 14.2606 44.2461 14.5109 44.9922C14.7557 45.7423 15 46.4919 15 46.4919L14.9893 46.5Z" fill="#006838"/>
<path d="M10.9841 45.5C10.9841 45.5 10.882 45.3943 10.7522 45.2249C10.695 45.137 10.6148 45.0405 10.5522 44.9256C10.4891 44.8113 10.4213 44.6901 10.3534 44.5684C10.2979 44.4408 10.2425 44.3139 10.1912 44.1944C10.1387 44.0749 10.1103 43.9538 10.0761 43.8549C10.0213 43.651 10 43.508 10 43.508L10.016 43.5C10.016 43.5 10.2661 43.9963 10.5162 44.4925C10.7581 44.9922 11 45.492 11 45.492L10.9841 45.5Z" fill="#006838"/>
<path d="M17 46.5111C17 46.5111 16.9677 46.6607 16.9022 46.8709C16.864 46.9715 16.8289 47.0972 16.7745 47.2162C16.7209 47.3363 16.6633 47.4644 16.6061 47.5932C16.5397 47.7134 16.4737 47.8336 16.4115 47.9464C16.3496 48.0598 16.2772 48.1518 16.2223 48.2382C16.1028 48.4013 16.0115 48.5 16.0115 48.5L16 48.489C16 48.489 16.244 47.9899 16.488 47.4896C16.738 46.9948 16.9876 46.5 16.9876 46.5L17 46.5111Z" fill="#006838"/>
<path d="M13 46.5112C13 46.5112 12.9073 46.7877 12.7503 47.1872C12.666 47.3816 12.5778 47.6174 12.4648 47.8546C12.3528 48.0924 12.2334 48.3459 12.114 48.5995C11.9851 48.8445 11.8558 49.0896 11.7349 49.3195C11.6145 49.5501 11.4856 49.7498 11.3835 49.9298C11.168 50.2779 11.0124 50.5 11.0124 50.5L11 50.4881C11 50.4881 11.4936 49.489 11.9876 48.4885C12.4876 47.4939 12.9876 46.5 12.9876 46.5L13 46.5112Z" fill="#006838"/>
<path d="M10.0012 45.5C10.0012 45.5 10.2205 45.5064 10.6046 45.5169C10.9882 45.532 11.5379 45.5314 12.1945 45.5722C13.5085 45.645 15.2598 45.7429 17.0117 45.8402C18.7595 45.9886 20.5079 46.1366 21.8189 46.2478C22.4744 46.2996 23.0188 46.3765 23.4006 46.415C23.7819 46.4575 24 46.4819 24 46.4819L23.9989 46.5L10 45.5175L10.0012 45.5Z" fill="#006838"/>
<path d="M18 19.5C12.5261 24.6568 7.33404 23.3666 2.6484 28.9939C-0.690255 33.0046 0.0432379 37.4584 0.122058 38.9601C0.247346 41.3865 4.67302 49.8455 7.38408 51.5C6.65058 50.2886 7.27115 49.1475 8.44519 47.4843C9.60571 45.8422 13.4726 42.8794 15.0702 39.9961C17.4748 35.656 15.7601 27.6004 18 19.5Z" fill="url(#paint3_linear_29_921)"/>
<path d="M4.00319 46.7662C4.00319 46.7662 4.08373 46.7287 4.22309 46.6891C4.3618 46.6642 4.56251 46.5829 4.79903 46.5663C5.03554 46.5497 5.3136 46.4945 5.60828 46.5007C5.90294 46.4945 6.2162 46.5288 6.52876 46.56C6.84072 46.6131 7.15263 46.6642 7.44285 46.7485C7.73367 46.8213 8.00216 46.9483 8.23422 47.0285C8.46557 47.1086 8.65611 47.2398 8.79033 47.3023C8.92395 47.3782 9 47.4365 9 47.4365L8.9968 47.5C8.9968 47.5 7.74646 47.3481 6.49677 47.1981C5.24839 47.0139 4 46.8307 4 46.8307L4.00319 46.7662Z" fill="#006838"/>
<path d="M4.00168 41.6085C4.00168 41.6085 4.1438 41.5847 4.39209 41.5641C4.63924 41.553 4.99482 41.5045 5.41834 41.5078C5.84134 41.5133 6.33737 41.4815 6.86536 41.5172C7.3934 41.549 7.95684 41.5831 8.52022 41.618C9.08199 41.6894 9.64313 41.7608 10.1695 41.8274C10.6964 41.8924 11.1845 42.0146 11.6047 42.0883C12.0249 42.1653 12.3726 42.2787 12.6169 42.3358C12.8613 42.4024 13 42.4516 13 42.4516L12.9978 42.5C12.9978 42.5 10.7475 42.3017 8.49779 42.1034C6.24858 41.8805 4 41.6569 4 41.6569L4.00168 41.6085Z" fill="#006838"/>
<path d="M7.00365 36.5777C7.00365 36.5777 7.14642 36.5579 7.39564 36.5412C7.64361 36.5345 8.00054 36.4936 8.42452 36.5009C8.8485 36.5082 9.34506 36.4914 9.87367 36.5206C10.4028 36.5397 10.9659 36.5894 11.5283 36.6362C12.0901 36.6998 12.6519 36.7606 13.1768 36.8439C13.7023 36.9193 14.1896 37.0312 14.6093 37.105C15.0284 37.1811 15.3748 37.2894 15.6185 37.3442C15.8622 37.4086 16 37.4554 16 37.4554L15.9969 37.5C15.9969 37.5 13.7472 37.2915 11.4969 37.0831C9.24847 36.8527 7 36.6208 7 36.6208L7.00365 36.5777Z" fill="#006838"/>
<path d="M11.0038 30.6985C11.0038 30.6985 11.0997 30.6666 11.2667 30.6355C11.4331 30.6158 11.6724 30.548 11.9559 30.5396C12.2395 30.5311 12.5717 30.4887 12.925 30.5029C13.2783 30.5057 13.6535 30.5452 14.0286 30.5819C14.4032 30.6393 14.7771 30.6929 15.1267 30.7776C15.4763 30.8518 15.7997 30.9742 16.0783 31.0522C16.3569 31.1313 16.5856 31.2564 16.7476 31.3156C16.909 31.3872 17 31.4426 17 31.4426L16.9969 31.5C16.9969 31.5 15.4969 31.3279 13.9969 31.1575C12.4987 30.9562 11 30.7559 11 30.7559L11.0038 30.6985Z" fill="#006838"/>
<path d="M14.0046 25.7132C14.0046 25.7132 14.0537 25.6886 14.1389 25.6611C14.2227 25.6415 14.3452 25.5877 14.4886 25.5705C14.6321 25.5534 14.8004 25.5111 14.9773 25.5062C15.1555 25.4934 15.3428 25.5032 15.5308 25.5111C15.7174 25.532 15.9041 25.5516 16.077 25.592C16.2506 25.6256 16.4098 25.6911 16.548 25.7303C16.6855 25.7695 16.7976 25.8417 16.8769 25.8729C16.9555 25.9128 17 25.9445 17 25.9445L16.9967 25.9819C16.9967 25.9819 16.2467 25.9336 15.4967 25.8858C14.748 25.8185 14 25.7511 14 25.7511L14.0046 25.7132Z" fill="#006838"/>
<path d="M3.95947 42.5C3.95947 42.5 3.884 42.4171 3.7673 42.2672C3.65968 42.1137 3.47729 41.9056 3.30887 41.6366C3.14116 41.367 2.92173 41.0612 2.72886 40.7186C2.5269 40.3784 2.33753 40.0063 2.14605 39.6348C1.96786 39.2578 1.78826 38.8813 1.64291 38.5202C1.49057 38.1616 1.38434 37.8135 1.27533 37.5212C1.16702 37.2289 1.11671 36.971 1.0622 36.7966C1.01678 36.6191 1 36.5141 1 36.5141L1.03984 36.5C1.03984 36.5 1.78966 37.9921 2.53949 39.4849C3.26974 40.9845 4 42.4847 4 42.4847L3.95947 42.5Z" fill="#006838"/>
<path d="M5.96307 38.5C5.96307 38.5 5.87285 38.3862 5.73121 38.181C5.59748 37.9728 5.38009 37.6849 5.16665 37.3213C4.95322 36.9578 4.68312 36.5426 4.43214 36.0818C4.17324 35.625 3.9216 35.1271 3.66732 34.6305C3.42622 34.1291 3.18314 33.6277 2.97761 33.1493C2.76549 32.6737 2.6008 32.2163 2.4427 31.8317C2.28525 31.4458 2.19236 31.1098 2.10936 30.8817C2.03426 30.6495 2.00001 30.5147 2.00001 30.5147L2.0369 30.5C2.0369 30.5 3.0369 32.4925 4.03689 34.4856C5.01844 36.4858 6 38.4853 6 38.4853L5.96307 38.5Z" fill="#006838"/>
<path d="M8.96931 33.5C8.96931 33.5 8.90021 33.4025 8.79107 33.2257C8.6891 33.0452 8.52183 32.7991 8.35955 32.4839C8.19777 32.168 7.99107 31.8082 7.8013 31.4069C7.60558 31.0092 7.41637 30.5743 7.22558 30.1405C7.04515 29.7013 6.86366 29.2627 6.71174 28.8422C6.55382 28.4246 6.43483 28.021 6.31858 27.681C6.20288 27.3423 6.13764 27.0427 6.07733 26.8411C6.02358 26.636 6 26.515 6 26.515L6.03069 26.5C6.03069 26.5 6.78084 28.2424 7.53044 29.9847C8.26524 31.7348 9 33.485 9 33.485L8.96931 33.5Z" fill="#006838"/>
<path d="M12.9584 28.5C12.9584 28.5 12.8974 28.4495 12.8077 28.354C12.7267 28.2553 12.5818 28.1249 12.4591 27.9495C12.3372 27.7741 12.1715 27.5775 12.0359 27.3522C11.8917 27.1294 11.7647 26.8816 11.6356 26.6358C11.5201 26.3836 11.4031 26.1321 11.3178 25.888C11.2245 25.6465 11.175 25.4068 11.1133 25.209C11.0531 25.0105 11.043 24.8302 11.0172 24.7103C11 24.588 11 24.5143 11 24.5143L11.0409 24.5C11.0409 24.5 11.5409 25.493 12.0408 26.486C12.5201 27.4864 13 28.4869 13 28.4869L12.9584 28.5Z" fill="#006838"/>
<path d="M15.9352 23.5C15.9374 23.4985 15.876 23.4985 15.7996 23.4893C15.7371 23.4747 15.6015 23.4693 15.5217 23.4379C15.4429 23.4064 15.3119 23.3804 15.2413 23.3321C15.1556 23.2884 15.107 23.2293 15.0548 23.1711C15.0259 23.1066 14.9923 23.0429 15.0016 22.9717C14.998 22.9042 15.0537 22.8237 15.0722 22.7638C15.0919 22.7032 15.173 22.6327 15.1996 22.5928C15.2401 22.5483 15.2819 22.5177 15.2783 22.5192L15.3433 22.5C15.3433 22.5 15.5239 22.7401 15.7046 22.9808C15.8529 23.2308 16 23.4801 16 23.4801L15.9352 23.5Z" fill="#006838"/>
<path d="M17 20.5212C17 20.5212 16.7816 20.8905 16.399 21.5386C16.0112 22.182 15.4825 23.1188 14.8023 24.2115C14.121 25.3035 13.35 26.5938 12.4812 27.9454C11.6147 29.2993 10.69 30.7436 9.76579 32.1874C8.81895 33.6153 7.87152 35.0438 6.98408 36.3827C6.09719 37.7227 5.23247 38.9469 4.5098 40.0086C3.78597 41.0704 3.146 41.929 2.71509 42.542C2.27893 43.1514 2.0297 43.5 2.0297 43.5L2 43.4787L16.9703 20.5L17 20.5212Z" fill="#006838"/>
<path d="M52 35.4175C52 35.4175 44.7326 28.383 40 22.5C41.7205 31.3887 40.3153 38.2038 44.6225 40.2731C47.2752 41.5462 51.7501 37.1227 52 35.4175Z" fill="url(#paint4_linear_29_921)"/>
<path d="M42 26.5091C42 26.5091 41.9872 26.5922 41.9388 26.7046C41.9064 26.7571 41.8837 26.8246 41.8316 26.8851C41.781 26.9461 41.7274 27.0116 41.6737 27.0766C41.605 27.1351 41.5363 27.1936 41.4713 27.249C41.4078 27.304 41.324 27.3448 41.2643 27.3856C41.1284 27.4592 41.0188 27.5 41.0188 27.5L41 27.491C41 27.491 41.2401 27.2414 41.4803 26.9914C41.7304 26.746 41.9804 26.5 41.9804 26.5L42 26.5091Z" fill="#006838"/>
<path d="M44 30.5112C44 30.5112 43.9162 30.7241 43.7669 31.0285C43.685 31.1756 43.6025 31.3559 43.491 31.535C43.3802 31.7135 43.2623 31.9045 43.1445 32.0955C43.0142 32.2783 42.8838 32.4612 42.7622 32.6321C42.6406 32.803 42.507 32.9508 42.4025 33.0836C42.1795 33.339 42.0157 33.5 42.0157 33.5L42 33.4887C42 33.4887 42.4919 32.7392 42.9846 31.989C43.4847 31.2451 43.9849 30.5 43.9849 30.5L44 30.5112Z" fill="#006838"/>
<path d="M46 34.5111C46 34.5111 45.9682 34.6614 45.9028 34.8718C45.8645 34.9723 45.8299 35.0978 45.7757 35.2176C45.722 35.338 45.6649 35.4658 45.6075 35.5944C45.5411 35.7148 45.4748 35.8352 45.4126 35.9476C45.3509 36.0605 45.278 36.153 45.2234 36.2387C45.1033 36.4013 45.0117 36.5 45.0117 36.5L45 36.4889C45 36.4889 45.2439 35.9892 45.4883 35.4895C45.7383 34.9947 45.9888 34.5 45.9888 34.5L46 34.5111Z" fill="#006838"/>
<path d="M43.0015 28.5866C43.0015 28.5866 43.1293 28.55 43.3191 28.5232C43.4134 28.5177 43.5245 28.4963 43.6418 28.5006C43.7597 28.5036 43.8848 28.5067 44.0099 28.5097C44.1345 28.5268 44.2591 28.5445 44.3759 28.5604C44.4927 28.5756 44.6001 28.6141 44.6929 28.6348C44.8775 28.6928 45 28.749 45 28.749L44.999 28.7679C44.999 28.7679 44.499 28.7319 43.999 28.6965C43.4995 28.6513 43 28.6068 43 28.6068L43.0015 28.5866Z" fill="#006838"/>
<path d="M45.0011 32.5465C45.0011 32.5465 45.2542 32.5189 45.6317 32.5049C45.8202 32.5067 46.0404 32.4926 46.2751 32.5055C46.5099 32.5171 46.7603 32.5287 47.0106 32.541C47.2604 32.5673 47.5096 32.5936 47.7433 32.6181C47.9774 32.642 48.1943 32.6879 48.3811 32.7154C48.753 32.7871 49 32.8526 49 32.8526L48.9989 32.8715C48.9989 32.8715 47.9986 32.7999 46.9989 32.7283C45.9991 32.6469 45 32.5661 45 32.5661L45.0011 32.5465Z" fill="#006838"/>
<path d="M45.9841 35.5C45.9841 35.5 45.8824 35.301 45.7046 34.9528C45.5307 34.6023 45.2625 34.112 44.9774 33.5062C44.3996 32.2965 43.6292 30.6835 42.8588 29.0711C42.1333 27.4356 41.4072 25.8007 40.863 24.5737C40.588 23.9621 40.388 23.4374 40.2346 23.078C40.0852 22.7156 40 22.5083 40 22.5083L40.0153 22.5L46 35.4917L45.9841 35.5Z" fill="#006838"/>
<path d="M21 40.8834C27.872 43.3562 29.4255 48.7373 36.2823 50.258C41.1686 51.3413 44.3799 48.4834 45.5491 47.6761C47.4357 46.3696 52.0233 38.1709 51.9999 34.8804C51.3921 36.1442 50.1666 36.1387 48.2459 35.8818C46.3469 35.6261 42.0385 33.5464 38.9269 33.5006C34.2408 33.4317 28.6241 38.9544 21 40.8834Z" fill="url(#paint5_linear_29_921)"/>
<path d="M49.9678 40.5C49.9678 40.5 49.9128 40.4486 49.8296 40.3524C49.7535 40.2528 49.6218 40.1218 49.5047 39.946C49.3882 39.7701 49.2336 39.5727 49.1019 39.3466C48.9631 39.1232 48.8361 38.8754 48.7078 38.6288C48.5908 38.3772 48.4725 38.1262 48.38 37.8824C48.2823 37.6407 48.2207 37.4029 48.1528 37.205C48.0855 37.0076 48.0627 36.8274 48.0311 36.709C48.0065 36.5868 48 36.5138 48 36.5138L48.0328 36.5C48.0328 36.5 48.5328 37.4925 49.0328 38.4856C49.5164 39.4859 50 40.4856 50 40.4856L49.9678 40.5Z" fill="#006838"/>
<path d="M45.9687 43.5C45.9687 43.5 45.8838 43.3718 45.7475 43.1406C45.6179 42.9063 45.4107 42.5832 45.2012 42.1747C44.994 41.765 44.727 41.3002 44.4857 40.7789C44.2422 40.2582 43.9824 39.7031 43.7227 39.1475C43.4864 38.5796 43.2501 38.0117 43.0289 37.48C42.8066 36.9482 42.6379 36.4306 42.4732 35.9983C42.3106 35.5647 42.2073 35.1863 42.1201 34.9293C42.0391 34.6693 42 34.5166 42 34.5166L42.0313 34.5C42.0313 34.5 43.0312 36.7416 44.031 38.9844C45.0152 41.2339 46 43.484 46 43.484L45.9687 43.5Z" fill="#006838"/>
<path d="M39.9641 42.5C39.9641 42.5 39.8758 42.3875 39.7358 42.1826C39.6034 41.9742 39.3897 41.6887 39.1772 41.3263C38.9653 40.9633 38.6974 40.5487 38.4477 40.0886C38.1898 39.632 37.9382 39.1345 37.6847 38.6377C37.4433 38.1355 37.1999 37.6351 36.9931 37.156C36.7794 36.6793 36.6123 36.2215 36.4527 35.8354C36.2939 35.4499 36.1974 35.1117 36.1129 34.8832C36.036 34.651 36 34.5148 36 34.5148L36.0353 34.5C36.0353 34.5 37.0353 36.4922 38.0353 38.4849C39.0177 40.4853 40 42.4858 40 42.4858L39.9641 42.5Z" fill="#006838"/>
<path d="M33.9728 42.5C33.9728 42.5 33.9223 42.4332 33.8441 42.3102C33.7722 42.1832 33.6501 42.0136 33.5376 41.7907C33.4252 41.5676 33.2793 41.316 33.1501 41.0312C33.0153 40.7499 32.8889 40.4398 32.7612 40.1303C32.6425 39.8158 32.5229 39.5029 32.4261 39.2002C32.3246 38.9008 32.2545 38.6071 32.1816 38.3627C32.1097 38.1173 32.0768 37.8988 32.041 37.7527C32.011 37.6028 32 37.514 32 37.514L32.0267 37.5C32.0267 37.5 32.5267 38.7424 33.0267 39.9854C33.5133 41.2357 34 42.4854 34 42.4854L33.9728 42.5Z" fill="#006838"/>
<path d="M27.9719 42.5C27.9719 42.5 27.936 42.4675 27.8853 42.4025C27.84 42.3332 27.7558 42.2478 27.6898 42.1219C27.6243 41.9955 27.5312 41.859 27.4608 41.6943C27.384 41.5325 27.3205 41.3488 27.2555 41.165C27.1999 40.9749 27.1427 40.7869 27.1058 40.599C27.0639 40.4138 27.0497 40.2251 27.0246 40.0717C27.0004 39.9177 27.0078 39.7707 27.0004 39.6767C26.9985 39.5784 27.0039 39.5177 27.0039 39.5177L27.0315 39.5C27.0315 39.5 27.2801 40.2406 27.5293 40.982C27.7646 41.7325 28 42.4823 28 42.4823L27.9719 42.5Z" fill="#006838"/>
<path d="M48 43.5197C48 43.5197 47.9621 43.6134 47.8824 43.7685C47.7957 43.919 47.6948 44.1482 47.5336 44.397C47.3718 44.6464 47.2009 44.9485 46.9844 45.2512C46.775 45.5573 46.5309 45.8709 46.2887 46.1858C46.035 46.4936 45.7826 46.8021 45.5269 47.0793C45.2777 47.3594 45.0149 47.6024 44.8049 47.8206C44.5942 48.0382 44.386 48.1979 44.2557 48.32C44.1182 48.4375 44.0321 48.5 44.0321 48.5L44 48.4798C44 48.4798 44.9841 47.2297 45.9676 45.9792C46.9677 44.7396 47.9672 43.5 47.9672 43.5L48 43.5197Z" fill="#006838"/>
<path d="M43 43.5196C43 43.5196 42.9444 43.6441 42.8344 43.8533C42.7185 44.0578 42.5731 44.3656 42.3623 44.7079C42.1509 45.0502 41.9209 45.4617 41.644 45.8806C41.3735 46.3042 41.0659 46.7433 40.7607 47.183C40.445 47.6158 40.1304 48.0491 39.8182 48.4438C39.5118 48.8415 39.1985 49.1948 38.9436 49.5065C38.6882 49.8183 38.4461 50.0568 38.2902 50.2337C38.1281 50.4061 38.029 50.5 38.029 50.5L38 50.4798C38 50.4798 39.2355 48.7297 40.4716 46.9795C41.7216 45.2398 42.9722 43.5 42.9722 43.5L43 43.5196Z" fill="#006838"/>
<path d="M37 42.5193C37 42.5193 36.9591 42.6266 36.876 42.8081C36.7863 42.9851 36.6789 43.2513 36.5139 43.5471C36.3484 43.8416 36.1723 44.1966 35.9537 44.5573C35.7416 44.9219 35.4964 45.2979 35.2528 45.675C34.9992 46.0453 34.7473 46.4167 34.4948 46.7531C34.2468 47.0929 33.9899 47.3925 33.7829 47.6582C33.5753 47.9239 33.3732 48.1246 33.2453 48.275C33.1113 48.4214 33.0283 48.5 33.0283 48.5L33 48.4802C33 48.4802 33.986 46.9809 34.972 45.4805C35.9719 43.9902 36.9718 42.5 36.9718 42.5L37 42.5193Z" fill="#006838"/>
<path d="M31 42.5186C31 42.5186 30.9874 42.5798 30.9549 42.6789C30.917 42.7736 30.8806 42.9227 30.8063 43.0766C30.7316 43.231 30.6583 43.4216 30.5549 43.6058C30.4564 43.7942 30.3356 43.9832 30.2162 44.1728C30.0886 44.3554 29.9619 44.5391 29.8289 44.7003C29.7003 44.8648 29.5581 45.0001 29.4474 45.1257C29.3363 45.2508 29.2189 45.3355 29.1485 45.4036C29.0728 45.4675 29.0242 45.5 29.0242 45.5L29 45.4814C29 45.4814 29.4882 44.7313 29.976 43.9811C30.4758 43.24 30.9762 42.5 30.9762 42.5L31 42.5186Z" fill="#006838"/>
<path d="M25.8686 41.5304C25.8665 41.5287 25.894 41.5684 25.9174 41.6207C25.9306 41.6679 25.9845 41.7557 25.9845 41.8232C25.9845 41.8899 26.014 41.9861 25.9916 42.0569C25.9804 42.1354 25.9346 42.1987 25.893 42.2637C25.8319 42.3185 25.775 42.3751 25.6906 42.4106C25.6154 42.4511 25.4984 42.4612 25.4221 42.484C25.3448 42.5059 25.2279 42.4941 25.1699 42.5C25.1018 42.5 25.0479 42.4907 25.0509 42.4924L25 42.4629C25 42.4629 25.1912 42.2148 25.3824 41.9666C25.6001 41.7338 25.8167 41.5 25.8167 41.5L25.8686 41.5304Z" fill="#006838"/>
<path d="M22.003 41.5C22.003 41.5 22.4267 41.5133 23.1671 41.5377C23.9075 41.5685 24.968 41.5834 26.2356 41.6519C27.5033 41.7215 28.9846 41.7767 30.5671 41.883C32.1501 41.9866 33.8385 42.0971 35.5269 42.2081C37.2129 42.3436 38.8989 42.479 40.4802 42.606C42.0608 42.7313 43.5326 42.8902 44.7961 43.0054C46.0589 43.1218 47.1081 43.2599 47.8443 43.3369C48.5798 43.4198 49 43.4676 49 43.4676L48.997 43.5L22 41.5324L22.003 41.5Z" fill="#006838"/>
</g>
<defs>
<linearGradient id="paint0_linear_29_921" x1="13.9819" y1="9.86356" x2="18.8195" y2="10.6391" gradientUnits="userSpaceOnUse">
<stop stop-color="#65C08A"/>
<stop offset="0.5" stop-color="#00A551"/>
<stop offset="1" stop-color="#00914D"/>
</linearGradient>
<linearGradient id="paint1_linear_29_921" x1="23.7619" y1="16.2693" x2="37.8562" y2="10.1797" gradientUnits="userSpaceOnUse">
<stop stop-color="#65C08A"/>
<stop offset="0.25" stop-color="#00A551"/>
<stop offset="0.5" stop-color="#00914D"/>
<stop offset="0.75" stop-color="#00A551"/>
<stop offset="1" stop-color="#65C08A"/>
</linearGradient>
<linearGradient id="paint2_linear_29_921" x1="15.7239" y1="49.5197" x2="13.8558" y2="44.7296" gradientUnits="userSpaceOnUse">
<stop stop-color="#65C08A"/>
<stop offset="0.5" stop-color="#00A551"/>
<stop offset="1" stop-color="#00914D"/>
</linearGradient>
<linearGradient id="paint3_linear_29_921" x1="15.7819" y1="37.8294" x2="2.75426" y2="29.0707" gradientUnits="userSpaceOnUse">
<stop stop-color="#65C08A"/>
<stop offset="0.25" stop-color="#00A551"/>
<stop offset="0.5" stop-color="#00914D"/>
<stop offset="0.75" stop-color="#00A551"/>
<stop offset="1" stop-color="#65C08A"/>
</linearGradient>
<linearGradient id="paint4_linear_29_921" x1="46.3482" y1="28.7744" x2="42.9488" y2="32.7372" gradientUnits="userSpaceOnUse">
<stop stop-color="#65C08A"/>
<stop offset="0.5" stop-color="#00A551"/>
<stop offset="1" stop-color="#00914D"/>
</linearGradient>
<linearGradient id="paint5_linear_29_921" x1="36.8652" y1="33.9528" x2="35.2859" y2="50.0391" gradientUnits="userSpaceOnUse">
<stop stop-color="#65C08A"/>
<stop offset="0.25" stop-color="#00A551"/>
<stop offset="0.5" stop-color="#00914D"/>
<stop offset="0.75" stop-color="#00A551"/>
<stop offset="1" stop-color="#65C08A"/>
</linearGradient>
<clipPath id="clip0_29_921">
<rect width="322" height="51" fill="white" transform="translate(0 0.5)"/>
</clipPath>
</defs>
</svg>
