<svg width="322" height="82" fill="none" xmlns="http://www.w3.org/2000/svg"><g filter="url(#b)" clip-path="url(#a)"><path d="M126.095 13.662v24.933h-4.379v-32.4h3.864c.129 0 .386.253.515.507 3.864 5.695 7.728 11.39 11.592 16.959 0 0 0 .127.129.127.129-.127.257-.38.386-.507 3.607-5.569 7.213-11.137 10.691-16.706.128-.127.386-.38.515-.38h3.735v32.4h-4.379V13.536c-.258.38-.387.506-.387.633a932.62 932.62 0 0 1-9.402 14.681c-.129.127-.386.38-.644.38-1.803.126-1.803.126-2.705-1.393-2.962-4.303-5.925-8.606-8.887-13.035-.129-.253-.386-.633-.644-1.14ZM226.688 38.595v-32.4h.515c3.478 0 6.955-.126 10.304.127 4.895.253 9.274 1.898 12.365 5.948 1.803 2.405 2.705 5.19 2.962 8.1.258 3.924-.257 7.72-2.447 11.138-2.447 3.67-6.053 5.695-10.304 6.581-1.545.253-3.22.38-4.765.506-2.834.127-5.668 0-8.63 0Zm4.508-3.797h5.281c.773 0 1.545-.126 2.189-.253 4.637-.886 7.728-3.417 9.016-7.973.644-2.405.773-4.81.387-7.214-.644-4.05-2.963-6.961-6.955-8.48-2.061-.76-4.122-1.012-6.312-1.012h-3.606v24.932ZM218.702 38.595h-4.894c-.258 0-.515-.253-.644-.506-1.803-3.037-3.606-6.075-5.538-9.112-.644-1.013-1.288-1.899-1.932-2.785-.516-.633-1.288-1.012-2.19-1.012-.773.126-1.546 0-2.447 0v13.415h-4.508v-32.4h.515c3.091 0 6.054 0 9.145.127 3.091.126 5.925 1.139 7.728 3.797 3.477 4.683 1.288 11.264-4.122 13.289-.257.126-.515.253-.773.253 1.417 1.139 2.319 2.658 3.22 4.176l6.183 10.252c.129.127.129.253.257.506Zm-17.645-16.959c1.932 0 3.864.127 5.667-.38 2.447-.76 3.864-2.531 4.122-4.683.257-2.784-.773-4.809-2.963-5.821-2.189-1.14-4.508-.76-6.826-.76v11.644ZM258.759 38.595c.644-1.645 1.288-3.29 1.803-4.809a6174.4 6174.4 0 0 0 10.433-27.084c.257-.507.386-.76 1.03-.633.902 0 1.932-.253 2.447.126.644.38.773 1.393 1.031 2.152 3.864 9.745 7.728 19.617 11.592 29.362.129.253.129.507.257.76-.257 0-.515 0-.644.126h-3.477c-.515 0-.644-.126-.902-.633-.901-2.404-1.803-4.809-2.705-7.34-.128-.506-.386-.633-.901-.633H267.26c-.516 0-.773.127-.902.633a466.353 466.353 0 0 0-2.705 7.34c-.129.38-.386.633-.901.633h-3.993Zm9.273-12.15h9.918c-1.674-4.556-3.22-9.112-4.894-13.668l-5.024 13.668ZM160.484 38.595c.773-2.025 1.546-4.05 2.319-5.948 3.349-8.606 6.697-17.34 10.046-25.945.129-.507.387-.76.902-.633h1.932c.515 0 .773.126 1.03.633 3.864 9.745 7.599 19.364 11.463 29.109.387.886.644 1.772 1.031 2.784H185.6c-1.288 0-1.288 0-1.803-1.265-.901-2.278-1.674-4.557-2.576-6.708-.129-.38-.386-.506-.773-.506h-11.592c-.515 0-.644.126-.901.632a466.001 466.001 0 0 0-2.705 7.341c-.129.506-.386.633-.902.633-1.03-.127-2.447-.127-3.864-.127Zm14.297-25.818-5.023 13.668h9.918c-1.675-4.556-3.22-9.112-4.895-13.668ZM294.823 6.195h4.508v28.603h11.979v3.797h-16.487v-32.4Z" fill="#185A7D"/><path d="M91.19 74.666c.773.126 1.16-.254 1.417-.38 5.538-3.417 12.493-15.567 14.941-19.49 2.189-3.544 1.288-7.974-2.061-10.505-1.417-1.013-2.834-2.025-3.864-2.532-.902-.506-1.932-.886-2.834-1.139-.386 1.266-.901 2.405-1.288 3.797-1.03 3.038-2.19 6.075-3.22 9.24-.773 2.277-1.417 4.302-2.06 6.2-1.933 5.696-3.478 10.126-3.607 11.898-.129 2.151.902 2.404 1.546 2.657.257.127.772.254 1.03.254ZM37.094 74.666c1.288-1.52 4.122-4.683 7.084-8.227-.644-1.012-1.03-2.025-1.16-2.784-.386-2.405 2.577-11.011 7.858-26.072 1.03-3.038 2.19-6.075 3.22-9.113.772-2.278 1.416-4.303 2.06-6.201 1.932-5.695 3.478-10.125 3.607-11.897.129-2.152-.902-2.658-1.417-2.911-.515-.253-1.03-.253-1.03-.253-1.546 1.265-4.637 4.176-7.857 7.467 1.03 1.392 1.674 2.784 1.803 3.797.386 2.405-2.576 11.01-7.857 26.072-1.03 3.037-2.19 6.075-3.22 9.239-.773 2.278-1.417 4.303-2.06 6.201-1.933 5.696-3.478 10.125-3.607 11.897-.129 2.152 1.288 2.531 1.546 2.658.515 0 1.03.127 1.03.127Z" fill="#C32C29"/><path d="M36.321 75.552c-.386 0-3.22-.507-2.962-4.05.258-2.532 2.576-9.113 5.667-18.479 5.41-15.44 11.463-31.893 11.077-34.678-.258-1.898-2.962-5.442-7.213-8.606-7.599-5.316-11.077-3.67-11.592-3.544.387 0 3.22.507 2.963 4.05-.258 2.532-2.576 9.113-5.668 18.478-5.41 15.441-11.463 31.894-11.076 34.679.257 1.898 2.962 5.442 7.212 8.606 7.6 5.442 11.077 3.797 11.592 3.544Z" fill="#2B5971"/><path d="M63.24 75.552c-.386 0-3.22-.507-2.962-4.05.258-2.532 2.576-9.113 5.668-18.479 5.41-15.44 11.463-31.893 11.076-34.678-.257-1.898-2.962-5.442-7.212-8.606-7.6-5.316-11.077-3.67-11.592-3.544.386 0 3.22.507 2.962 4.05-.258 2.532-2.576 9.113-5.667 18.478-5.41 15.441-11.463 31.894-11.077 34.679.258 1.898 2.962 5.442 7.213 8.606 7.599 5.442 11.205 3.797 11.592 3.544ZM36.321 75.552c-.386 0-3.22-.507-2.962-4.05.258-2.532 2.576-9.113 5.667-18.479 5.41-15.44 11.463-31.893 11.077-34.678-.258-1.898-2.962-5.442-7.213-8.606-7.599-5.316-11.077-3.67-11.592-3.544.387 0 3.22.507 2.963 4.05-.258 2.532-2.576 9.113-5.668 18.478-5.41 15.441-11.463 31.894-11.076 34.679.257 1.898 2.962 5.442 7.212 8.606 7.6 5.442 11.077 3.797 11.592 3.544ZM90.289 75.552c-.387 0-3.22-.507-2.963-4.05.258-2.532 2.576-9.113 5.668-18.479 5.41-15.44 11.463-31.893 11.076-34.678-.257-1.898-2.962-5.442-7.212-8.606-7.6-5.316-11.077-3.67-11.593-3.544.387 0 3.22.507 2.963 4.05-.258 2.532-2.576 9.113-5.667 18.478-5.41 15.441-11.464 31.894-11.077 34.679.258 1.898 2.962 5.442 7.213 8.606 7.599 5.442 11.076 3.797 11.592 3.544Z" fill="#185A7D"/><path d="M64.142 74.666c1.288-1.52 4.122-4.683 7.084-8.227-.644-1.012-1.03-2.025-1.159-2.784-.386-2.405 2.576-11.011 7.857-26.072 1.03-3.038 2.19-6.075 3.22-9.113.773-2.278 1.417-4.303 2.06-6.201 1.933-5.695 3.478-10.125 3.607-11.897.129-2.152-.901-2.658-1.417-2.911-.515-.253-1.03-.253-1.03-.253-1.546 1.265-4.637 4.176-7.857 7.467 1.03 1.392 1.675 2.784 1.803 3.797.387 2.405-2.576 11.01-7.856 26.072-1.03 3.037-2.19 6.075-3.22 9.239-.773 2.278-1.417 4.303-2.061 6.201-1.932 5.696-3.478 10.125-3.607 11.897-.128 2.152 1.288 2.531 1.546 2.658.386 0 1.03.127 1.03.127ZM30.525 7.081c-2.19 2.025-11.85 15.188-18.16 23.794-2.963 4.05-1.675 9.745 2.704 12.277l5.796 3.29a386.352 386.352 0 0 1 3.092-8.733c1.03-3.037 2.19-6.075 3.22-9.239.772-2.278 1.416-4.303 2.06-6.201 1.932-5.695 3.478-10.125 3.607-11.897.129-2.152-.902-2.784-1.417-2.911-.515-.38-.902-.38-.902-.38Z" fill="#C32C29"/><path d="M141.938 66.186c.128 2.91-.902 5.189-2.963 7.087-2.061 1.899-4.765 2.785-7.985 2.785-3.349 0-6.183-1.14-8.244-3.544-2.189-2.405-3.22-5.316-3.22-8.986V58.34c0-3.67 1.031-6.581 3.22-8.986 2.19-2.405 4.895-3.544 8.244-3.544 3.348 0 6.053.886 8.114 2.658 2.061 1.772 2.962 4.05 2.962 7.088v.126h-3.864c0-2.025-.644-3.67-1.803-4.936-1.288-1.139-2.962-1.772-5.152-1.772-2.318 0-4.121.886-5.409 2.658-1.288 1.772-2.061 4.05-2.061 6.708v5.316c0 2.657.644 4.936 2.061 6.707 1.288 1.772 3.091 2.658 5.409 2.658 2.19 0 3.993-.632 5.152-1.771 1.288-1.14 1.803-2.785 1.803-4.936h3.736v-.127ZM172.077 67.958h-12.494l-2.833 7.594h-4.122l11.592-29.363h3.478l11.334 29.363h-4.122l-2.833-7.594Zm-11.206-3.29h10.047l-4.895-13.416h-.129l-5.023 13.415ZM191.525 75.552V46.189h9.789c3.091 0 5.539.633 7.342 2.025 1.803 1.266 2.705 3.29 2.705 5.949 0 1.265-.387 2.53-1.288 3.543-.902 1.013-1.932 1.772-3.349 2.278 1.803.38 3.22 1.266 4.25 2.658 1.031 1.392 1.546 2.911 1.546 4.683 0 2.658-.902 4.683-2.705 6.202-1.803 1.392-4.122 2.151-7.213 2.151h-11.077v-.126Zm3.993-16.833h6.569c1.546 0 2.705-.38 3.735-1.266.902-.76 1.417-1.898 1.417-3.417 0-1.645-.515-2.784-1.546-3.544-1.03-.76-2.447-1.139-4.379-1.139h-5.667v9.366h-.129Zm0 3.037v10.632h6.955c1.804 0 3.22-.507 4.251-1.393 1.03-.886 1.545-2.151 1.545-3.797 0-1.771-.386-3.037-1.288-4.05-.901-1.012-2.189-1.518-3.992-1.518h-7.471v.126ZM230.81 72.388h14.168v3.164h-18.161V46.189h3.993v26.199ZM275.632 61.883h-13.653v10.505h15.843v3.164h-19.836V46.189h19.578v3.164h-15.585v9.492h13.653v3.038ZM307.188 68.211c0-1.392-.515-2.405-1.546-3.417-1.03-.886-2.833-1.645-5.409-2.278-3.22-.76-5.667-1.772-7.342-3.291-1.803-1.392-2.705-3.29-2.705-5.442 0-2.278.902-4.177 2.834-5.696 1.932-1.518 4.379-2.278 7.47-2.278 3.22 0 5.925.886 7.857 2.658 1.932 1.772 2.834 3.797 2.834 6.075v.127h-3.864c0-1.772-.515-3.164-1.675-4.177-1.159-1.012-2.833-1.645-5.023-1.645-2.061 0-3.606.506-4.637 1.392-1.03.886-1.674 2.025-1.674 3.544 0 1.265.644 2.404 1.803 3.164 1.159.886 3.091 1.645 5.667 2.278 3.092.76 5.539 1.898 7.213 3.417 1.675 1.519 2.447 3.29 2.447 5.569 0 2.405-1.03 4.303-2.962 5.695-1.932 1.392-4.508 2.152-7.728 2.152-2.962 0-5.667-.76-7.857-2.405-2.318-1.645-3.349-3.67-3.349-6.328v-.127h3.864c0 1.899.644 3.291 2.061 4.304 1.417 1.012 3.091 1.518 5.281 1.518 2.061 0 3.606-.38 4.894-1.265.902-1.013 1.546-2.152 1.546-3.544Z" fill="#185A7D"/></g><defs><clipPath id="a"><path fill="#fff" transform="translate(0 .5)" d="M0 0h322v81H0z"/></clipPath><filter id="b" x="4.763" y="-.143" width="312.675" height="82.201" filterUnits="userSpaceOnUse" color-interpolation-filters="sRGB"><feFlood flood-opacity="0" result="BackgroundImageFix"/><feColorMatrix in="SourceAlpha" values="0 0 0 0 0 0 0 0 0 0 0 0 0 0 0 0 0 0 127 0" result="hardAlpha"/><feOffset/><feGaussianBlur stdDeviation="3"/><feComposite in2="hardAlpha" operator="out"/><feColorMatrix values="0 0 0 0 0.991667 0 0 0 0 0.991667 0 0 0 0 0.991667 0 0 0 0.28 0"/><feBlend in2="BackgroundImageFix" result="effect1_dropShadow_29_1148"/><feBlend in="SourceGraphic" in2="effect1_dropShadow_29_1148" result="shape"/></filter></defs></svg>