<svg width="129" height="74" viewBox="0 0 129 74" fill="none" xmlns="http://www.w3.org/2000/svg">
<mask id="mask0_63_5713" style="mask-type:luminance" maskUnits="userSpaceOnUse" x="10" y="10" width="109" height="55">
<path d="M10.2944 10.1389H118.021V64.0021H10.2944V10.1389Z" fill="#FF0000"/>
</mask>
<g mask="url(#mask0_63_5713)">
<path fill-rule="evenodd" clip-rule="evenodd" d="M118.021 10.1389C89.7861 22.2287 38.5284 22.2287 10.2944 10.1389L19.2718 55.0239C42.1687 66.9713 84.416 67.0186 109.043 55.0239L118.021 10.1389H118.021Z" fill="#FF0000"/>
</g>
<path fill-rule="evenodd" clip-rule="evenodd" d="M35.9377 30.4168L34.2374 40.357L34.1232 41.0249H33.9016L33.7881 40.3625L32.0872 30.4168L28.6719 30.4199V48.5654H31.3125L31.3236 43.2031L31.0965 37.1387H31.3095L33.316 48.5654H34.7088L36.7148 37.1387H36.9277L36.7006 43.2031V48.5654H39.3523V30.4199L35.9377 30.4168ZM46.426 30.4168L46.3548 45.5791C46.3548 46.3755 45.6458 46.5603 45.2904 46.5603C44.8902 46.5603 44.2261 46.3755 44.2261 45.5791L44.1549 30.4168H41.2699L41.5081 44.8864C41.5081 47.4385 42.4092 48.7937 45.2904 48.7937C48.1711 48.7937 49.0728 47.4385 49.0728 44.8864L49.3109 30.4168H46.426ZM54.1147 46.2998V30.4168H51.2297V48.563H57.3004V46.2998H54.1147ZM81.5156 46.2998V30.4168H78.6306V48.563H84.5497V46.2998H81.5156ZM90.9524 32.68V30.4168H84.9309V48.5642H90.9113V46.3011H87.8158V39.5321H90.1238V37.2689H87.8158V32.6794L90.9524 32.68ZM63.9395 30.4168H56.0955V32.6H58.5753V48.5642H61.4603V32.6H63.9395V30.4168ZM65.0431 48.563H67.9281V30.4168H65.0431V48.563ZM74.5291 37.5828C74.5291 38.2892 74.3769 38.9373 73.2278 38.9373H72.7245V32.6781H73.4347C74.6672 32.6781 74.5291 33.49 74.5291 34.1964V37.5828ZM73.709 30.4181L69.8389 30.4168V48.563H72.7238V41.2159H73.8042C76.2306 41.2159 77.414 39.965 77.414 38.0169V33.8019C77.414 31.8532 76.5387 30.4175 73.709 30.4175V30.4181ZM100.097 30.4193H97.2502L96.0361 37.1722H95.8151L94.601 30.4193H91.7541L93.5507 38.2321L91.5724 48.5636H94.5249L95.5549 42.328L95.8163 39.3547H96.0324L96.2964 42.328L97.3073 48.5636H100.278L98.2999 38.2321L100.097 30.4193Z" fill="white"/>
</svg>
