<svg xmlns="http://www.w3.org/2000/svg" width="249" height="61" style="shape-rendering:geometricPrecision;text-rendering:geometricPrecision;image-rendering:optimizeQuality;fill-rule:evenodd;clip-rule:evenodd"><path style="opacity:.991" fill="#fa481c" d="M134.5-.5h26v11h14v16h-14v34h-19c-3.332-1.634-5.499-4.3-6.5-8-.5-8.66-.666-17.327-.5-26h-10v-16h10v-11Z"/><path style="opacity:.981" fill="#fa471b" d="M67.5 60.5h-26c.166-4.678 0-9.345-.5-14a11547.45 11547.45 0 0 0-13 5c-2.212 3.479-1.712 6.479 1.5 9h-26c-1.667-1-3-2.333-4-4v-9c1.815-3.979 4.815-6.812 9-8.5a407.942 407.942 0 0 1 32-7c1.491-5.019-.509-7.185-6-6.5-4.96-.868-7.627 1.132-8 6h-25c1.022-9.526 6.022-16.026 15-19.5 12.995-4.612 25.995-4.612 39 0 6.719 2.052 10.552 6.552 11.5 13.5.5 11.662.666 23.329.5 35Z"/><path style="opacity:.994" fill="#f9471b" d="M101.5 60.5h-26v-50h24a8.434 8.434 0 0 0 .5 4c5.269-4.745 11.436-6.245 18.5-4.5a70.904 70.904 0 0 1 1 16.5 60.94 60.94 0 0 0-11 .5c-2.348.346-4.181 1.512-5.5 3.5a158.137 158.137 0 0 0-1.5 30Z"/><path style="opacity:.987" fill="#f9471b" d="M248.5 32.5v15h-44v13h-19c-6.612-8.182-8.779-17.516-6.5-28 3.786-12.783 12.286-20.283 25.5-22.5 15.652-3.217 28.818.95 39.5 12.5 1.62 3.393 3.12 6.727 4.5 10Zm-39-7c5.614-1.086 10.114.58 13.5 5a8.43 8.43 0 0 1 .5 4c-6.7.33-13.366-.003-20-1 .906-3.562 2.906-6.228 6-8Z"/></svg>