<svg xmlns="http://www.w3.org/2000/svg" width="127" height="167" style="shape-rendering:geometricPrecision;text-rendering:geometricPrecision;image-rendering:optimizeQuality;fill-rule:evenodd;clip-rule:evenodd"><path style="opacity:.971" fill="#e41b21" d="M47.5.5v-1h31a31.703 31.703 0 0 1 2 6 4.932 4.932 0 0 1-.5 3c-6.132 6.976-12.965 12.976-20.5 18-3.154-7.645-6.32-15.312-9.5-23-.377-1.442-1.21-2.442-2.5-3Z"/><path style="opacity:.98" fill="#d9171d" d="M80.5 5.5c3.427 5.93 6.094 12.264 8 19-7.028 7.36-14.028 14.693-21 22a47.264 47.264 0 0 0-5-10c.15-3.695-.85-7.028-3-10 7.535-5.024 14.368-11.024 20.5-18 .483-.948.65-1.948.5-3Z"/><path style="opacity:.994" fill="#b00c10" d="M47.5.5c1.29.558 2.123 1.558 2.5 3 3.18 7.688 6.346 15.355 9.5 23 2.15 2.972 3.15 6.305 3 10-.588 2.563-1.588 4.896-3 7-10.18.327-20.18-.006-30-1a1551.675 1551.675 0 0 1 18-42Z"/><path style="opacity:.993" fill="#c91317" d="M88.5 24.5a240.224 240.224 0 0 1 14 33l-22 19a408.536 408.536 0 0 1-13-30c6.972-7.307 13.972-14.64 21-22Z"/><path style="opacity:.982" fill="#c91318" d="M29.5 42.5c9.82.994 19.82 1.327 30 1a550.78 550.78 0 0 1-12 29c-10.124-2.327-20.457-2.66-31-1a745.614 745.614 0 0 1 13-29Z"/><path style="opacity:.987" fill="#ae0b0f" d="M102.5 57.5a140.219 140.219 0 0 1 11 25 44.043 44.043 0 0 1-2-1 95.917 95.917 0 0 1-14.5 14c-2.02 2.05-3.52 4.384-4.5 7a104.62 104.62 0 0 1-5-11c-.457-.797-1.124-1.13-2-1l-5-14 22-19Z"/><path style="opacity:.974" fill="#db181d" d="M47.5 72.5a155.076 155.076 0 0 1-7 15l-29-2a87.51 87.51 0 0 1 5-14c10.543-1.66 20.876-1.327 31 1Z"/><path style="opacity:.944" fill="#ec1c23" d="M85.5 90.5c.876-.13 1.543.203 2 1a104.62 104.62 0 0 0 5 11 29.417 29.417 0 0 1 2 7c-17.003.167-34.003 0-51-.5a1163.875 1163.875 0 0 1 42-18.5Z"/><path style="opacity:.962" fill="#9a0608" d="M113.5 82.5a986.797 986.797 0 0 1 12 26.5c-10.328.5-20.661.666-31 .5a29.417 29.417 0 0 0-2-7c.98-2.616 2.48-4.95 4.5-7a95.917 95.917 0 0 0 14.5-14c.683.363 1.35.696 2 1Z"/><path style="opacity:.953" fill="#e81b22" d="m11.5 85.5 29 2-8 22c-10.672.167-21.338 0-32-.5a253.242 253.242 0 0 1 11-23.5Z"/><path style="opacity:.96" fill="#4a4340" d="M13.5 141.5c-3.9.93-7.9 1.263-12 1v-4c-.855-14.145 5.812-21.145 20-21 5.008.669 10.008 1.335 15 2a31.12 31.12 0 0 1-1 11c-5.531-1.878-11.198-2.378-17-1.5-4.252 3.021-5.92 7.187-5 12.5Z"/><path style="opacity:.983" fill="#49423f" d="M80.5 142.5h-12c.354-4.137-.146-8.137-1.5-12-3.018-3.129-6.518-3.796-10.5-2v10c-4.544.16-8.878.16-13 0a70.918 70.918 0 0 1 1-16.5c3.069-1.846 6.402-2.846 10-3 19.968-4.529 28.634 3.304 26 23.5Z"/><path style="opacity:.97" fill="#4d4541" d="M124.5 131.5h-12c-2.277-2.377-5.11-3.71-8.5-4a82.856 82.856 0 0 0-13.5 3c-1.934-3.413-2.268-6.913-1-10.5 10.15-2.311 20.151-1.978 30 1 3.103 2.806 4.77 6.306 5 10.5Z"/><path style="opacity:.932" fill="#3b3532" d="M112.5 131.5h12v18c-4.1-.263-8.1.07-12 1v-8a38.887 38.887 0 0 0-12 2.5c-1.361 1.584-2.028 3.418-2 5.5-3.9-.93-7.9-1.263-12-1-.111-6.62 2.889-11.12 9-13.5a76.88 76.88 0 0 1 17-1.5v-3Z"/><path style="opacity:.95" fill="#2a2422" d="M1.5 138.5v4c4.1.263 8.1-.07 12-1-.96 8.542 2.874 12.875 11.5 13a49.734 49.734 0 0 1 11.5-2v11l-17 2c-9.238.141-15.072-4.193-17.5-13A152.176 152.176 0 0 0 .5 141c.028-1.07.361-1.903 1-2.5Z"/><path style="opacity:.987" fill="#292321" d="M43.5 138.5c4.122.16 8.456.16 13 0v26h-13v-26Z"/><path style="opacity:.946" fill="#282220" d="M68.5 142.5h12v22h-12v-22Z"/><path style="opacity:.97" fill="#251f1d" d="M86.5 149.5c4.1-.263 8.1.07 12 1 .523 2.208 1.856 3.708 4 4.5 3.368.543 6.701.376 10-.5v-4c3.9-.93 7.9-1.263 12-1a36.875 36.875 0 0 1-1 12c-10.631 4.944-21.297 5.11-32 .5-3.404-3.428-5.07-7.595-5-12.5Z"/></svg>