<svg xmlns="http://www.w3.org/2000/svg" width="159" height="22" style="shape-rendering:geometricPrecision;text-rendering:geometricPrecision;image-rendering:optimizeQuality;fill-rule:evenodd;clip-rule:evenodd"><path style="opacity:.587" fill="#fefffe" d="M-.5.5C.822.33 1.989.663 3 1.5c.667 6 .667 12 0 18-1.011.837-2.178 1.17-3.5 1V.5Z"/><path style="opacity:.596" fill="#fefffe" d="M5.5.5C6.822.33 7.989.663 9 1.5c.497 2.31.663 4.643.5 7h5c-.163-2.357.003-4.69.5-7C16.05.483 17.216.316 18.5 1a45.626 45.626 0 0 1 0 19c-1.284.684-2.45.517-3.5-.5a24.939 24.939 0 0 1-.5-7h-5a24.936 24.936 0 0 1-.5 7c-1.011.837-2.178 1.17-3.5 1V.5Z"/><path style="opacity:.662" fill="#fcfcfc" d="M28.5.5c5.325.666 9.325 3.332 12 8C44.376.111 50.376-1.722 58.5 3A14.437 14.437 0 0 1 61 8.5c.497-2.646.664-5.313.5-8a40.937 40.937 0 0 1 9 .5c4.201 3.025 5.035 6.859 2.5 11.5-2.564 1.68-5.398 2.346-8.5 2v6h-3a32.437 32.437 0 0 0-.5-8c-2.93 7.55-8.097 9.716-15.5 6.5-2.25-1.745-3.916-3.912-5-6.5-2.524 3.606-5.857 6.272-10 8-12.457-5.761-13.124-12.428-2-20Zm36 4c4.794-.64 6.461 1.193 5 5.5-1.634.493-3.3.66-5 .5v-6Zm-38 2c1.248.834 1.915 2.167 2 4-1.017 5.042-2.35 4.876-4-.5a11.81 11.81 0 0 1 2-3.5Zm6 0c4.704 2.085 5.037 4.752 1 8a16.869 16.869 0 0 1-1-8Z"/><path style="opacity:.641" fill="#fefffe" d="M76.5.5a4.932 4.932 0 0 1 3 .5L85 8.5 90.5 1a4.932 4.932 0 0 1 3-.5v20h-4a60.94 60.94 0 0 0-.5-11c-2.307 7.2-4.973 7.533-8 1a50.441 50.441 0 0 0-.5 10h-4V.5Z"/><path style="opacity:.647" fill="#fefffe" d="M101.5.5c1.322-.17 2.489.163 3.5 1a281.601 281.601 0 0 0 7.5 17.5c-3.086 2.244-5.086 1.41-6-2.5a13.118 13.118 0 0 0-7-1c.317 3.672-1.35 5.338-5 5 2.326-6.656 4.66-13.323 7-20Zm1 8c2.8 1.976 2.467 2.809-1 2.5.752-.67 1.086-1.504 1-2.5Z"/><path style="opacity:.611" fill="#fefffe" d="M124.5 4.5h-5v16h-4v-16h-6c-.17-1.322.163-2.489 1-3.5 4.655-.5 9.321-.666 14-.5v4Z"/><path style="opacity:.68" fill="#fefffe" d="M124.5 4.5c6.414-5.611 12.581-5.278 18.5 1 1.833 11.5-3 16.333-14.5 14.5-5.007-4.139-6.34-9.306-4-15.5Zm6 0c5.158-1.169 8.158.831 9 6-.845 5.344-3.845 7.177-9 5.5-3.945-3.83-3.945-7.664 0-11.5Z"/><path style="opacity:.667" fill="#fefffe" d="M158.5 3.5v8c-2.497 2.371-5.497 3.371-9 3 .901 3.74-.432 5.74-4 6V.5c4.772-.537 9.105.463 13 3Zm-9 1c4.659-.485 5.992 1.348 4 5.5a8.435 8.435 0 0 1-4 .5v-6Z"/><path style="opacity:1" fill="#2c1613" d="M44.5 6.5c1.152 1.125 2.152 1.125 3 0h1a8.434 8.434 0 0 1 4 .5c-.556.383-.89.883-1 1.5-1.676.683-2.343 2.017-2 4h3v-3c1.447-2.626 2.447-2.293 3 1-.986 3.647-3.32 4.814-7 3.5a99.82 99.82 0 0 0-2-5.5 168.86 168.86 0 0 1-2 6c-1.333-2.667-1.333-5.333 0-8Z"/><path style="opacity:1" fill="#5a5859" d="M44.5 14.5a168.86 168.86 0 0 0 2-6 99.82 99.82 0 0 1 2 5.5c3.68 1.314 6.014.147 7-3.5-.553-3.293-1.553-3.626-3-1-.667 0-1-.333-1-1 .11-.617.444-1.117 1-1.5a8.434 8.434 0 0 0-4-.5c2.204-.945 4.538-1.111 7-.5-2.455-1.54-5.121-1.874-8-1-1.238.69-1.238 1.19 0 1.5-.848 1.125-1.848 1.125-3 0 3.747-4.845 7.914-5.179 12.5-1 2.834 8.84-.332 12.673-9.5 11.5-1.442-.377-2.442-1.21-3-2.5Z"/><path style="opacity:1" fill="#ec3e25" d="M51.5 8.5c0 .667.333 1 1 1v3h-3c-.343-1.983.324-3.317 2-4Z"/><path style="opacity:1" fill="#f6f6f6" d="M48.5 6.5h-1c-1.238-.31-1.238-.81 0-1.5 2.879-.874 5.545-.54 8 1-2.462-.611-4.796-.445-7 .5Z"/></svg>