<svg xmlns="http://www.w3.org/2000/svg" width="154" height="153" style="shape-rendering:geometricPrecision;text-rendering:geometricPrecision;image-rendering:optimizeQuality;fill-rule:evenodd;clip-rule:evenodd"><path style="opacity:.931" fill="#13328d" d="M67.5-.5h18c16.885 2.861 31.718 9.861 44.5 21a310.908 310.908 0 0 1 12.5 17c-1.223 1.114-2.556 1.28-4 .5a594.657 594.657 0 0 0-28-16.5c-1.932 1.02-3.932 1.187-6 .5-25.342-13.003-50.009-11.67-74 4A139.834 139.834 0 0 0 17 40.5C8.83 52.176 4.33 65.176 3.5 79.5c-2.268-30.298 9.399-53.465 35-69.5 9.242-5.022 18.908-8.522 29-10.5Z"/><path style="opacity:.833" fill="#ec1b28" d="M108.5 24.5a137.398 137.398 0 0 1 32.5 17c.781 1.444.614 2.777-.5 4a631.675 631.675 0 0 1-27 15.5c-1.667.667-3.333.667-5 0a168.202 168.202 0 0 1 0-36.5Zm7 15c1.248.834 1.915 2.167 2 4l-1 4a16.874 16.874 0 0 1-1-8Z"/><path style="opacity:.965" fill="#12328d" d="M22.5 42.5h26v75h-26v-75Z"/><path style="opacity:.975" fill="#12328d" d="M50.5 42.5h25v27h16v-27h14c-.166 6.675 0 13.342.5 20 3.262 2.577 6.595 2.577 10 0a756.122 756.122 0 0 1 0 55c-7.957.062-16.123.062-24.5 0v-31h-16v31c-8.317.089-16.484.089-24.5 0a2812.97 2812.97 0 0 1-.5-75Z"/><path style="opacity:.933" fill="#13328d" d="M142.5 43.5c1.175-.219 2.175.114 3 1 10.9 28.324 7.4 54.658-10.5 79-16.325 19.581-37.158 28.248-62.5 26 30-2.828 50.834-18.162 62.5-46 5.009-16.832 4.509-33.499-1.5-50a4.932 4.932 0 0 1 1-2.5 28.4 28.4 0 0 0 7.5-4.5 4.934 4.934 0 0 0 .5-3Z"/></svg>