<?xml version="1.0" encoding="UTF-8"?>
<!DOCTYPE svg PUBLIC "-//W3C//DTD SVG 1.1//EN" "http://www.w3.org/Graphics/SVG/1.1/DTD/svg11.dtd">
<svg xmlns="http://www.w3.org/2000/svg" version="1.1" width="150px" height="150px" style="shape-rendering:geometricPrecision; text-rendering:geometricPrecision; image-rendering:optimizeQuality; fill-rule:evenodd; clip-rule:evenodd" xmlns:xlink="http://www.w3.org/1999/xlink">
<g><path style="opacity:0.867" fill="#12338e" d="M 66.5,1.5 C 97.2537,0.126262 121.087,12.1263 138,37.5C 138.667,38.1667 138.667,38.8333 138,39.5C 128.582,33.8737 119.082,28.3737 109.5,23C 107.189,23.1554 104.856,23.1554 102.5,23C 77.4446,9.93629 53.1113,11.2696 29.5,27C 12.8989,40.0325 4.06557,57.1992 3,78.5C 2.19884,44.9356 17.0322,21.1023 47.5,7C 53.8352,4.71061 60.1685,2.87728 66.5,1.5 Z"/></g>
<g><path style="opacity:0.849" fill="#eb1b29" d="M 106.5,25.5 C 113.937,29.0527 121.271,32.8861 128.5,37C 132.132,38.6454 135.132,40.9787 137.5,44C 128.698,49.9055 119.698,55.5722 110.5,61C 109.167,61.6667 107.833,61.6667 106.5,61C 105.176,49.1667 105.176,37.3334 106.5,25.5 Z M 109.5,40.5 C 113.967,39.1381 115.633,39.1381 114.5,40.5C 113.833,51.1667 113.167,51.1667 112.5,40.5C 111.5,40.5 110.5,40.5 109.5,40.5 Z M 119.5,39.5 C 121.857,39.3367 124.19,39.5034 126.5,40C 124.866,40.4935 123.199,40.6602 121.5,40.5C 121.5,41.5 121.5,42.5 121.5,43.5C 123.199,43.3398 124.866,43.5065 126.5,44C 127.517,45.0495 127.684,46.2161 127,47.5C 124.619,48.435 122.119,48.7683 119.5,48.5C 119.5,45.5 119.5,42.5 119.5,39.5 Z"/></g>
<g><path style="opacity:0.927" fill="#13328e" d="M 22.5,43.5 C 30.5,43.5 38.5,43.5 46.5,43.5C 46.6666,67.5023 46.5,91.5023 46,115.5C 38.3768,115.565 30.5435,115.565 22.5,115.5C 22.5,91.5 22.5,67.5 22.5,43.5 Z"/></g>
<g><path style="opacity:0.943" fill="#12338e" d="M 49.5,43.5 C 57.5,43.5 65.5,43.5 73.5,43.5C 73.5,52.1667 73.5,60.8333 73.5,69.5C 78.8333,69.5 84.1667,69.5 89.5,69.5C 89.5,60.8333 89.5,52.1667 89.5,43.5C 93.8333,43.5 98.1667,43.5 102.5,43.5C 102.334,49.8421 102.5,56.1754 103,62.5C 106.262,65.0768 109.595,65.0768 113,62.5C 113.667,80.1667 113.667,97.8333 113,115.5C 105.53,115.514 98.0299,115.514 90.5,115.5C 89.5015,105.522 89.1681,95.5222 89.5,85.5C 84.1667,85.5 78.8333,85.5 73.5,85.5C 73.6665,95.5056 73.4998,105.506 73,115.5C 65.3333,115.5 57.6667,115.5 50,115.5C 49.5,91.5023 49.3334,67.5023 49.5,43.5 Z"/></g>
<g><path style="opacity:0.45" fill="#eb1c28" d="M 121.5,44.5 C 122.978,44.238 124.311,44.5713 125.5,45.5C 124.68,47.1112 123.346,47.7778 121.5,47.5C 121.5,46.5 121.5,45.5 121.5,44.5 Z"/></g>
<g><path style="opacity:0.857" fill="#13338d" d="M 139.5,44.5 C 140.376,44.3691 141.043,44.7025 141.5,45.5C 153.796,78.482 147.129,106.982 121.5,131C 106.912,142.918 90.2458,148.085 71.5,146.5C 106.733,143.098 127.9,124.098 135,89.5C 136.567,77.2707 135.067,65.4374 130.5,54C 132.968,51.4978 135.802,49.3312 139,47.5C 139.483,46.552 139.649,45.552 139.5,44.5 Z"/></g>
</svg>
