<svg version="1.0" xmlns="http://www.w3.org/2000/svg"
 width="150.000000pt" height="150.000000pt" viewBox="0 0 150.000000 150.000000"
 preserveAspectRatio="xMidYMid meet">

<g transform="translate(0.000000,150.000000) scale(0.100000,-0.100000)"
fill="#13338E" stroke="none">
<path d="M606 1454 c-193 -43 -358 -157 -461 -318 -48 -75 -73 -135 -96 -231
-27 -113 -23 -136 7 -35 38 128 77 194 174 290 97 98 184 149 306 180 145 37
327 20 453 -44 28 -14 66 -26 85 -26 25 0 67 -19 145 -64 61 -36 121 -70 133
-77 l22 -12 -18 29 c-88 135 -231 241 -401 293 -94 30 -255 36 -349 15z"/>
<path fill="#EC1C29" d="M1070 1061 c0 -94 4 -172 8 -175 11 -7 292 157 292 170 0 12 -271
174 -290 174 -6 0 -10 -63 -10 -169z m120 34 c0 -8 -7 -15 -15 -15 -11 0 -15
-11 -15 -41 0 -33 -3 -40 -17 -37 -14 3 -17 11 -15 41 3 28 0 37 -12 37 -9 0
-16 7 -16 15 0 11 12 15 45 15 33 0 45 -4 45 -15z m83 0 c-1 -5 -13 -12 -25
-14 -23 -4 -23 -4 2 -10 36 -10 41 -58 6 -67 -28 -7 -57 -3 -57 9 1 4 1 28 1
53 l0 45 38 -3 c20 -2 36 -7 35 -13z"/>
<path fill="#EC1C29" d="M1230 1040 c0 -5 5 -10 10 -10 6 0 10 5 10 10 0 6 -4 10 -10 10 -5 0
-10 -4 -10 -10z"/>
<path d="M240 695 l0 -355 110 0 110 0 0 355 0 355 -110 0 -110 0 0 -355z"/>
<path d="M510 695 l0 -355 110 0 110 0 0 150 0 150 90 0 90 0 0 -150 0 -151
110 3 111 3 2 252 2 252 -36 -5 c-29 -5 -41 -2 -58 15 -18 18 -21 33 -21 106
l0 85 -55 0 -55 0 0 -125 0 -125 -90 0 -90 0 0 125 0 125 -110 0 -110 0 0
-355z"/>
<path d="M1405 1028 c-4 -9 -26 -28 -49 -42 l-43 -25 23 -69 c116 -345 -91
-733 -446 -839 -94 -28 -51 -30 49 -3 334 93 553 396 534 738 -7 117 -53 279
-68 240z"/>
</g>
</svg>
