<svg xmlns="http://www.w3.org/2000/svg" width="161" height="47" style="shape-rendering:geometricPrecision;text-rendering:geometricPrecision;image-rendering:optimizeQuality;fill-rule:evenodd;clip-rule:evenodd"><path style="opacity:.934" fill="#e5242c" d="M14.5-.5h3a23.312 23.312 0 0 1 6 3c4.157 1.935 6.657 5.269 7.5 10 .003 14.665-7.164 20.498-21.5 17.5C.19 23.587-1.644 15.42 4 5.5c3.069-2.946 6.569-4.946 10.5-6Z"/><path style="opacity:1" fill="#f17d84" d="M10.5 10.5c.709-.904 1.709-1.237 3-1l1 2c-.904.709-1.237 1.709-1 3-.522-1.72-1.522-3.053-3-4Z"/><path style="opacity:1" fill="#fef6f7" d="M23.5 2.5c-.973 1.568-1.14 3.235-.5 5 7.97 7.448 6.47 12.448-4.5 15-2.038 4.186-5.371 6.019-10 5.5 1.017-1.05 1.184-2.216.5-3.5a21.52 21.52 0 0 0-5-6c-.288-4.555 1.879-7.221 6.5-8 1.478.947 2.478 2.28 3 4a40.775 40.775 0 0 1 4.5 6c.667-1.667.667-3.333 0-5a19.568 19.568 0 0 1-3.5-4l-1-2c1.483-4.758 4.817-7.092 10-7Z"/><path style="opacity:1" fill="#e6202c" d="M14.5 11.5a19.568 19.568 0 0 0 3.5 4c.667 1.667.667 3.333 0 5a40.775 40.775 0 0 0-4.5-6c-.237-1.291.096-2.291 1-3Z"/><path style="opacity:.931" fill="#1b1d39" d="M35.5 21.5c7.008-.166 14.008 0 21 .5a1706.712 1706.712 0 0 1-5 22.5 21.12 21.12 0 0 1-9 1 298.416 298.416 0 0 1 3-15c-.825-.886-1.825-1.219-3-1a42.212 42.212 0 0 1-3.5 13c-3.413 2.514-7.247 3.514-11.5 3v-7c1.644.214 3.144-.12 4.5-1a76.237 76.237 0 0 0 3.5-16Z"/><path style="opacity:.882" fill="#191d39" d="M58.5 21.5a21.12 21.12 0 0 1 9 1 260.772 260.772 0 0 0-4.5 22c-3.057.95-6.223 1.284-9.5 1a40.516 40.516 0 0 1 3.5-12 11.529 11.529 0 0 1 4.5-3.5 14.73 14.73 0 0 1-5-1.5c.67-2.363 1.337-4.696 2-7Z"/><path style="opacity:.918" fill="#191d39" d="M69.5 21.5h16c-.461 5.629-3.461 8.296-9 8a117.73 117.73 0 0 1-2.5 15c-3.125 1.287-6.291 1.287-9.5 0a849.123 849.123 0 0 0 5-23Z"/><path style="opacity:.93" fill="#1a1d39" d="M87.5 21.5h12a196.895 196.895 0 0 1 3 24h-9c.004-4.105-1.996-5.605-6-4.5a18.088 18.088 0 0 0-2 3.5c-3.284 1.157-6.618 1.324-10 .5a782.894 782.894 0 0 0 12-23.5Zm4 8c.951 1.419 1.284 3.085 1 5a4.932 4.932 0 0 1-3-.5 9.173 9.173 0 0 0 2-4.5Z"/><path style="opacity:.861" fill="#e31424" d="M130.5 36.5c-.975 2.811-1.642 5.811-2 9h-5a63.483 63.483 0 0 1 2-11c-2.261-2.755-4.094-2.422-5.5 1a43.088 43.088 0 0 0-2 9c-1.814 1.26-3.647 1.26-5.5 0a84.65 84.65 0 0 0 3-16c4.309.46 8.643.46 13 0 1.729 2.351 2.396 5.018 2 8Z"/><path style="opacity:.857" fill="#e41523" d="M130.5 36.5c1.44-5.265 4.94-8.265 10.5-9 2.51.609 4.51 1.942 6 4 1-1.667 2.333-3 4-4a4.934 4.934 0 0 0 .5-3h5v4h3c.094 3.04-1.406 4.707-4.5 5a168.19 168.19 0 0 0-1.5 8h3v4c-2.619.268-5.119-.065-7.5-1a144.77 144.77 0 0 0-.5-12 167.813 167.813 0 0 0-2 6.5l-10 1c2.917 1.236 5.917 1.736 9 1.5a18.083 18.083 0 0 1-2 3.5c-7.974 2.506-12.308-.328-13-8.5Zm9-5a7.468 7.468 0 0 1 3 2c-1.574 1.13-3.241 1.297-5 .5.881-.708 1.547-1.542 2-2.5Z"/><path style="opacity:.876" fill="#e31725" d="M105.5 39.5h5c.661 4.668-1.339 6.668-6 6 .017-2.065.35-4.065 1-6Z"/></svg>