<svg xmlns="http://www.w3.org/2000/svg" width="189" height="113" style="shape-rendering:geometricPrecision;text-rendering:geometricPrecision;image-rendering:optimizeQuality;fill-rule:evenodd;clip-rule:evenodd"><path style="opacity:.981" fill="#fdc60d" d="M19.5-.5h42c36.17 1.51 72.504 2.844 109 4a282.872 282.872 0 0 0-1 31 6840.872 6840.872 0 0 1-136 4c-4.805-.987-9.805-1.32-15-1a371.712 371.712 0 0 1 1-38Z"/><path style="opacity:1" fill="#fffbef" d="M55.5 16.5c-.06-.543-.393-.876-1-1a43.123 43.123 0 0 0-1 13h-4v-20a9.865 9.865 0 0 1 6 1 46.895 46.895 0 0 0 4.5 8 95.521 95.521 0 0 0 5.5-7.5c1.634-.494 3.3-.66 5-.5v20h-4a84.938 84.938 0 0 0-.5-13c-1.788 2.619-3.788 4.952-6 7-2.484-1.618-3.984-3.952-4.5-7Z"/><path style="opacity:1" fill="#fffdf6" d="M74.5 9.5h15v4a185.644 185.644 0 0 0-11-1v5h9v3h-9v6h10v3h-14v-20Z"/><path style="opacity:1" fill="#fffcf4" d="M94.5 10.5h14c.091 8.39.758 16.724 2 25h-4v-5h-12v4h-4c2.519-7.598 3.852-15.598 4-24Z"/><path style="opacity:1" fill="#fffefc" d="M113.5 10.5h4v20h-4v-20Z"/><path style="opacity:1" fill="#fffbf1" d="M127.5 10.5c1.788-.285 3.455.048 5 1a417.633 417.633 0 0 1 7 19c-1.545.952-3.212 1.285-5 1 .676-3.99-.99-5.657-5-5a337.384 337.384 0 0 1-9 4l7-20Z"/><path style="opacity:1" fill="#fecb2c" d="M98.5 13.5h6v13a32.438 32.438 0 0 1-8-.5c1.603-3.983 2.27-8.15 2-12.5Z"/><path style="opacity:1" fill="#fecd31" d="M129.5 15.5c1.442 2.04 2.442 4.373 3 7-1.545.952-3.212 1.285-5 1a53.768 53.768 0 0 1 2-8Z"/><path style="opacity:1" fill="#ffe795" d="m55.5 16.5-2 12a43.123 43.123 0 0 1 1-13c.607.124.94.457 1 1Z"/><path style="opacity:.995" fill="#8573a1" d="M188.5 38.5v34l-30 1a4263.48 4263.48 0 0 0-140 4c-6.009.201-12.009.534-18 1 .302-2.56-.032-4.893-1-7v-32a555.082 555.082 0 0 1 34-1 6840.872 6840.872 0 0 0 136-4 163.245 163.245 0 0 1 18-1c-.284 1.915.049 3.581 1 5Z"/><path style="opacity:1" fill="#f5f3f7" d="M145.5 43.5c1.788-.285 3.455.048 5 1 2.992 7.722 5.658 7.722 8 0 1.667-1.333 3.333-1.333 5 0a109.778 109.778 0 0 0-5 8.5 47.081 47.081 0 0 0 6 9.5c-1.574 1.13-3.241 1.297-5 .5l-4.5-6.5a69.162 69.162 0 0 1-4.5 6.5c-1.444.78-2.777.614-4-.5a59.024 59.024 0 0 0 5-9 45.112 45.112 0 0 1-6-10Z"/><path style="opacity:1" fill="#f9f8fa" d="M137.5 43.5h5v21h-4a98.433 98.433 0 0 0-.5-14l-7 12c-1.789 1.729-3.956 2.396-6.5 2v-20h4a84.9 84.9 0 0 0 .5 13 150.993 150.993 0 0 0 8.5-14Zm-55 2h4c-.166 4.346.001 8.68.5 13a140.139 140.139 0 0 0 7.5-12 9.864 9.864 0 0 1 6-1v20h-4a98.29 98.29 0 0 0-.5-14l-7 12c-1.789 1.729-3.956 2.396-6.5 2v-20Z"/><path style="opacity:1" fill="#f5f4f7" d="M115.5 44.5c1.788-.285 3.455.048 5 1a71.916 71.916 0 0 0-7 9 108.03 108.03 0 0 1 8 9.5c-1.667.667-3.333.667-5 0a36.537 36.537 0 0 1-6.5-7.5 40.911 40.911 0 0 0-.5 9h-5v-20h4a13.115 13.115 0 0 0 1 7 27.683 27.683 0 0 0 6-8Zm-51 2h14v19h-5v-16h-5a84.938 84.938 0 0 1-.5 13c-1.312 2.739-3.478 4.072-6.5 4-.372-2.522.461-4.522 2.5-6 .5-4.655.666-9.322.5-14Z"/><path style="opacity:1" fill="#f6f5f8" d="M24.5 47.5c4.733-.277 9.4.056 14 1 2.15 2.422 2.483 5.09 1 8 2.622 3.203 2.622 6.37 0 9.5a50.476 50.476 0 0 1-15 1.5v-20Z"/><path style="opacity:1" fill="#f5f3f7" d="M44.5 46.5h15v4h-10v4h8v3h-8v6h10v3h-15v-20Z"/><path style="opacity:1" fill="#9686ae" d="M28.5 50.5a18.436 18.436 0 0 1 6 .5c2.667 1.333 2.667 2.667 0 4a18.436 18.436 0 0 1-6 .5v-5Z"/><path style="opacity:1" fill="#8a79a5" d="M29.5 58.5c3.408-.672 6.075.328 8 3a3.646 3.646 0 0 1-1 1.5c-2.31.497-4.643.663-7 .5v-5Z"/><path style="opacity:.974" fill="#84c0cc" d="M158.5 73.5c3.798.983 7.798 1.317 12 1a395.514 395.514 0 0 0-1 38h-39a8840.909 8840.909 0 0 0-112-4v-31a4263.48 4263.48 0 0 1 140-4Z"/><path style="opacity:1" fill="#f2f8fa" d="M137.5 79.5c3.513.054 7.18-.113 11-.5-3.509 4.472-7.176 4.639-11 .5Z"/><path style="opacity:1" fill="#fbfdfd" d="M36.5 79.5h4v20h-4v-20Z"/><path style="opacity:1" fill="#f6fafb" d="M50.5 79.5c6.807-.987 11.14 1.68 13 8h-5c-.882-3.643-3.215-4.81-7-3.5-3.653 3.45-3.986 7.283-1 11.5 2.265 1.147 4.598 1.314 7 .5 1.117-1.892 2.784-2.725 5-2.5.052 3.452-1.615 5.619-5 6.5-5.391 1.653-9.558.153-12.5-4.5-2.096-6.931-.263-12.264 5.5-16Z"/><path style="opacity:1" fill="#f5fafb" d="M64.5 80.5h17v4h-7v16h-4v-16h-6v-4Z"/><path style="opacity:1" fill="#f6fafb" d="M88.5 80.5c12.638.46 16.471 6.46 11.5 18-3.681 2.86-7.848 3.693-12.5 2.5-5.525-2.919-7.358-7.419-5.5-13.5 1.694-2.858 3.86-5.191 6.5-7Z"/><path style="opacity:1" fill="#fafcfd" d="M105.5 81.5a41.07 41.07 0 0 1 13 1.5c4 4 4 8 0 12a40.939 40.939 0 0 1-9 .5v6h-4v-20Z"/><path style="opacity:1" fill="#f2f8f9" d="M124.5 82.5h5v20h-5v-20Z"/><path style="opacity:1" fill="#fcfdfd" d="M133.5 82.5h4a98.433 98.433 0 0 0 .5 14 50.727 50.727 0 0 1 8.5-12.5 12.935 12.935 0 0 1 5-.5v19h-4a84.9 84.9 0 0 0-.5-13l-8.5 12.5a12.93 12.93 0 0 1-5 .5v-20Z"/><path style="opacity:1" fill="#86c2cd" d="M89.5 84.5c6.814-.01 9.314 3.323 7.5 10-3.333 5.333-6.667 5.333-10 0-1.139-3.921-.305-7.254 2.5-10Z"/><path style="opacity:1" fill="#8bc4cf" d="M109.5 85.5a18.437 18.437 0 0 1 6 .5c2.533 1.916 2.533 3.916 0 6a18.437 18.437 0 0 1-6 .5v-7Z"/></svg>