<svg width="161" height="40" viewBox="0 0 161 40" fill="none" xmlns="http://www.w3.org/2000/svg">
<g clip-path="url(#clip0_29_894)">
<path fill-rule="evenodd" clip-rule="evenodd" d="M80.265 19.9975V13.2727H76.5909V16.6351H75.1687V13.2727H71.6131L70.902 14.6177H71.6131V21.4545H75.1687V18.0921H76.5909V21.4545H80.7391L81.3317 20.1096H80.265V19.9975ZM67.3227 14.6177C67.3227 14.4383 67.2278 14.2814 67.0856 14.1694C66.9434 14.0573 66.8012 13.9676 66.6115 13.9452C66.4219 13.9452 66.256 14.0349 66.1375 14.1694C66.0189 14.3038 65.9241 14.4383 65.9004 14.6177V17.5317C65.9004 17.7111 65.9952 17.868 66.1375 17.9801C66.2797 18.0921 66.4219 18.1818 66.6115 18.2042C66.8012 18.2042 66.9671 18.1145 67.0856 17.9801C67.2041 17.8456 67.299 17.7111 67.3227 17.5317V14.6177ZM66.493 12.6002C67.5597 12.6002 68.6027 12.9141 69.456 13.4969C70.3331 14.0573 70.8545 14.9763 70.8782 15.9626C70.8782 18.3163 69.6931 19.2129 68.3893 19.5492C67.5597 19.7509 66.7064 19.7509 65.9004 19.5492V20.1096H66.9671L66.3745 21.4545H62.2263V15.2901C62.2737 14.797 62.4633 14.3263 62.8189 13.9452C63.293 13.2727 64.3597 12.6002 66.493 12.6002ZM83.465 10.0224C83.0384 10.0448 82.6117 10.2017 82.2798 10.4707C81.948 10.7397 81.7584 11.1656 81.8058 11.5915C81.8295 11.995 81.9954 12.3985 82.2798 12.7123C82.9436 13.3176 83.9865 13.3176 84.6502 12.7123C84.9821 12.4433 85.1717 12.0174 85.1243 11.5915C85.1006 11.188 84.9347 10.7846 84.6502 10.4707C84.3184 10.2017 83.8917 10.0448 83.465 10.0224ZM80.9761 14.6177H81.6873V21.4545H85.8354L86.428 20.1096H85.4799V13.3848H81.8058L80.9761 14.6177ZM92.2592 20.5579V21.4545H96.4074L97 20.1096H95.9333V13.3848H92.2592V18.4284C92.2592 19.0112 91.9511 19.5716 91.4296 19.8854C91.074 20.1096 90.5999 20.2216 90.5999 19.9975V13.4969H86.9258L86.2147 14.8418H86.9258V19.8854C86.9732 20.2665 87.1392 20.6251 87.3999 20.8941C88.0636 21.589 89.0118 21.9701 90.0073 21.9028C90.5999 21.8804 91.1688 21.7235 91.6666 21.4545C91.8799 21.1631 92.0933 20.8717 92.2592 20.5579ZM58.6707 10C58.244 10.0224 57.8174 10.1793 57.4855 10.4483C57.1537 10.7173 56.964 11.1432 57.0114 11.5691C57.0351 11.9726 57.2011 12.3761 57.4855 12.6899C58.1492 13.2951 59.1922 13.2951 59.8559 12.6899C60.1878 12.4209 60.3774 11.995 60.33 11.5691C60.3063 11.1656 60.1404 10.7621 59.8559 10.4483C59.5241 10.1793 59.0974 10.0224 58.6707 10ZM56.1818 14.5953H56.8929V21.4321H61.0411L61.6337 20.0871H60.567V13.3624H56.8929L56.1818 14.5953ZM46.4395 13.2503L45.9654 14.5953H47.0321V17.5093C47.0558 17.9128 47.2217 18.3163 47.5061 18.6301C48.0987 19.4147 49.0943 19.8406 50.1136 19.7509C50.6351 19.7509 51.1566 19.6837 51.6543 19.5267C52.0099 19.4147 52.1284 19.3026 52.1284 19.1905V20.0871H51.7729V21.4321H55.8025L56.3951 20.0871H55.3285V13.3624H51.8914V17.6214C51.8914 17.8456 51.5358 18.0697 51.1803 18.0697C50.8247 18.0697 50.4691 18.1818 50.4691 17.9576V13.2503H46.4395ZM40.1579 16.3885H42.5283V15.0436C42.5283 14.8867 42.4809 14.7298 42.4098 14.5953C42.1728 14.2814 41.7461 14.1021 41.3431 14.1469C40.9402 14.1469 40.5372 14.3038 40.2764 14.5953C40.1816 14.7746 40.1579 14.9539 40.1579 15.1557V16.3885ZM45.9654 18.518C45.7758 19.1905 45.4202 19.8182 44.8987 20.3113C43.9269 21.3873 42.4809 22.0149 40.9876 21.9925C40.1342 22.0373 39.2809 21.8804 38.4986 21.5442C36.8631 20.8045 35.8912 19.2129 36.0097 17.5093C35.8912 15.7833 36.8631 14.1469 38.4986 13.3624C39.3283 13.0261 40.2053 12.8244 41.1061 12.802C42.8128 12.7123 44.4246 13.5417 45.2543 14.9315C45.7995 15.8505 46.0839 16.9041 46.0839 17.9576H40.1579V19.7509C40.1579 19.9078 40.2053 20.0647 40.2764 20.1992C40.4898 20.4906 40.8453 20.67 41.2246 20.6475C41.6276 20.6924 42.0542 20.513 42.2913 20.1992C42.3624 20.0647 42.4098 19.9078 42.4098 19.7509V18.518H45.9654Z" fill="#02548F"/>
<path fill-rule="evenodd" clip-rule="evenodd" d="M80.2324 19.9978V13.2743H76.5512V16.636H75.1262V13.2743H71.5636L70.8511 14.619H71.5636V21.4546H75.1262V18.0928H76.5512V21.4546H80.7074L81.3012 20.1099H80.2324V19.9978ZM67.2649 14.619C67.2649 14.4397 67.1699 14.2828 67.0274 14.1707C66.8849 14.0587 66.7424 13.969 66.5524 13.9466C66.3624 13.9466 66.1961 14.0363 66.0774 14.1707C65.9586 14.3052 65.8636 14.4397 65.8399 14.619V17.5325C65.8399 17.7118 65.9349 17.8687 66.0774 17.9808C66.2199 18.0928 66.3624 18.1825 66.5524 18.2049C66.7424 18.2049 66.9086 18.1152 67.0274 17.9808C67.1461 17.8463 67.2411 17.7118 67.2649 17.5325V14.619ZM66.4336 12.4898C67.5024 12.4898 68.5474 12.8036 69.4024 13.3863C70.2336 13.969 70.7324 14.8879 70.7086 15.8516C70.7086 18.2049 69.5211 19.1014 68.2149 19.4375C67.3836 19.6392 66.5286 19.6392 65.7211 19.4375V19.9978H66.7899L66.1961 21.3426H62.0399V15.1793C62.0874 14.6862 62.2774 14.2156 62.6336 13.8345C63.6311 12.8708 65.0324 12.3778 66.4336 12.4898ZM83.4387 10.0245C83.0112 10.0469 82.5837 10.2038 82.2512 10.4728C81.9187 10.7417 81.7287 11.1675 81.7762 11.5934C81.7999 11.9968 81.9662 12.4002 82.2512 12.714C82.9162 13.3191 83.9612 13.3191 84.6262 12.714C84.9587 12.445 85.1487 12.0192 85.1012 11.5934C85.0775 11.1899 84.9112 10.7865 84.6262 10.4728C84.3175 10.159 83.8899 10.0021 83.4387 10.0245ZM81.0637 14.5069H81.7762V21.3426H85.9325L86.5262 19.9978H85.4575V13.2743H81.7762L81.0637 14.5069ZM92.25 20.4461V21.3426H96.4062L97 19.9978H95.9312V13.2743H92.25V18.3169C92.25 18.8996 91.9412 19.4599 91.4187 19.7737C91.0625 19.9978 90.5875 20.1099 90.5875 19.8858V13.3863H86.9062L86.1937 14.731H86.9062V19.7737C86.9537 20.1547 87.12 20.5133 87.3812 20.7823C88.0462 21.477 88.9962 21.858 89.9937 21.7908C90.5875 21.7684 91.1575 21.6115 91.6562 21.3426C92.0125 20.8943 92.25 20.6702 92.25 20.4461ZM58.5961 10.0021C58.1686 10.0245 57.7411 10.1814 57.4086 10.4503C57.0761 10.7193 56.8861 11.1451 56.9336 11.5709C56.9573 11.9744 57.1236 12.3778 57.4086 12.6915C58.0736 13.2967 59.1186 13.2967 59.7836 12.6915C60.1161 12.4226 60.3061 11.9968 60.2586 11.5709C60.2349 11.1675 60.0686 10.7641 59.7836 10.4503C59.4749 10.1366 59.0473 9.97969 58.5961 10.0021ZM56.2211 14.4845H56.9336V21.3201H61.0899L61.6836 19.9754H60.6149V13.2518H56.9336L56.2211 14.4845ZM46.341 13.2518L45.866 14.5966H46.9348V17.5101C46.9585 17.9135 47.1248 18.3169 47.4098 18.6307C48.0036 19.4151 49.0011 19.841 50.0223 19.7513C50.5448 19.7513 51.0673 19.6841 51.5661 19.5272C51.9223 19.4151 52.0411 19.3031 52.0411 19.191V20.0875H51.6848V21.4322H55.8411L56.4348 20.0875H55.3661V13.3639H51.9223V17.6222C51.9223 17.8463 51.5661 18.0704 51.2098 18.0704C50.8536 18.0704 50.4973 18.1825 50.4973 17.9583V13.2518H46.341ZM40.0473 16.2775H42.4223V14.9327C42.4223 14.7759 42.3748 14.619 42.3035 14.4845C42.066 14.1707 41.6385 13.9914 41.2348 14.0363C40.831 14.0363 40.4273 14.1931 40.166 14.4845C40.071 14.6638 40.0473 14.8431 40.0473 15.0448V16.2775ZM45.9848 18.5186C45.7948 19.191 45.4385 19.8185 44.916 20.3116C43.9423 21.3874 42.4935 22.0149 40.9973 21.9925C40.1423 22.0373 39.2873 21.8804 38.5035 21.5443C36.8648 20.8047 35.891 19.2134 36.0098 17.5101C35.891 15.7844 36.8648 14.1483 38.5035 13.3639C39.2873 13.0277 40.1423 12.826 40.9973 12.8036C42.7073 12.714 44.3223 13.5432 45.1535 14.9327C45.6998 15.8516 45.9848 16.905 45.9848 17.9583H40.0473V19.7513C40.0473 19.953 40.0948 20.1323 40.166 20.3116C40.3798 20.603 40.736 20.7823 41.116 20.7598C41.5198 20.8047 41.9473 20.6254 42.1848 20.3116C42.256 20.1771 42.3035 20.0202 42.3035 19.8634V18.6307H44.441C44.9635 18.5635 45.4623 18.5186 45.9848 18.5186Z" fill="#02548F"/>
<path fill-rule="evenodd" clip-rule="evenodd" d="M38.5072 6.62538C37.7208 5.03242 36.291 3.86113 34.5753 3.34576C32.5259 2.99437 30.4289 2.90066 28.3795 3.1115C25.4723 3.43946 22.6127 4.00168 19.8008 4.75131C15.5115 5.92261 4.28766 11.3106 4.28766 11.3106L5.47914 13.1846L11.1983 10.3735C11.6749 10.1393 11.9132 10.2564 12.0323 10.3735C12.1991 10.5141 12.2468 10.7483 12.1515 10.9592C10.3642 15.6444 2 39 2 39C2 39 13.4621 38.2972 14.2961 38.4144C16.3693 38.3675 18.4425 38.2035 20.4919 37.9458C22.3029 37.6647 24.0902 37.2665 25.8536 36.7745C28.4034 35.9781 30.6672 34.4085 32.2876 32.3236C33.3123 30.7307 33.8842 28.9269 33.9557 27.0528C33.8127 25.3427 32.8357 23.82 31.3344 22.9532C29.9523 22.3676 28.5225 21.9928 27.0451 21.782C27.0451 21.782 31.2153 20.025 31.811 19.7907C33.6459 18.924 35.2901 17.7058 36.577 16.1597C37.7923 14.5668 38.6025 12.7161 38.9599 10.7718C39.0791 9.38964 38.9361 7.98409 38.4833 6.67224L38.5072 6.62538ZM19.1812 33.5886C17.1557 35.3456 12.1515 35.8141 11.4366 35.9312L15.1302 25.6004C15.1302 25.6004 18.1089 25.4832 19.4195 25.6004C20.8493 25.7644 21.9217 27.0059 21.8025 28.4115C21.6119 30.4027 20.6825 32.2299 19.1812 33.5652V33.5886ZM24.3046 18.5726C21.8978 20.1187 19.1574 21.126 16.3217 21.5008L21.8025 6.48483C23.0655 6.06316 24.4 5.85233 25.7344 5.89918C27.9268 6.39112 29.4995 8.2652 29.5472 10.4672C29.428 13.0441 27.0451 16.6751 24.3046 18.5492V18.5726Z" fill="#02548F"/>
<path fill-rule="evenodd" clip-rule="evenodd" d="M138.84 18C138.275 18 137.733 18.2305 137.309 18.5763C136.532 19.337 136.532 20.5587 137.309 21.3425C137.733 21.7113 138.275 21.9188 138.84 21.9188C139.405 21.9188 139.946 21.6883 140.37 21.3425C141.147 20.5818 141.147 19.36 140.37 18.5763C139.923 18.2305 139.405 18.0461 138.84 18ZM134.366 18C133.26 18 132.365 18.876 132.365 19.9594C132.365 20.4665 132.577 20.9737 132.954 21.3425C133.331 21.6883 133.848 21.8957 134.366 21.9188C134.931 21.9188 135.473 21.6883 135.897 21.3425C136.674 20.5818 136.674 19.36 135.897 18.5763C135.473 18.2075 134.931 18 134.366 18ZM132.012 24.685H133.778V39H140.488V22.1493H133.189L132.012 24.685ZM124.125 36.4643V39H131.306L132.483 36.4643H130.717V22.1493H124.125V32.5456C123.913 33.4907 123.301 34.3205 122.477 34.8507C121.653 35.427 120.829 35.7728 120.829 35.1965V22.1493H113.413L112 24.8002H114.001V35.1965C114.072 36.2338 114.59 37.202 115.414 37.8474C116.308 38.5851 117.439 39 118.592 39C119.675 38.9308 120.735 38.6312 121.653 38.0779C122.548 37.64 123.372 37.0867 124.125 36.4643ZM150.07 36.6948C150.753 36.764 151.436 36.5565 151.954 36.1185C152.519 35.5653 152.825 34.8277 152.778 34.0439C152.848 33.0527 152.33 32.1306 151.483 31.6235C151.082 31.416 150.635 31.3008 150.188 31.2777V34.5049C150.07 35.2195 150.023 35.9572 150.07 36.6948ZM152.542 27.6817C152.942 26.9901 153.107 26.1833 153.013 25.3765C152.895 24.5697 152.424 23.9934 151.718 23.9934C150.776 23.9934 150.423 25.2613 150.305 26.6443C150.188 28.0274 150.188 29.2953 150.188 29.2953C150.706 29.2953 151.2 29.1339 151.6 28.8342C151.954 28.4654 152.26 28.0966 152.542 27.6817ZM141.218 39L142.042 36.6948H143.219V27.9122C143.266 26.8518 143.596 25.8145 144.161 24.9155C145.102 23.4171 147.104 21.9188 150.988 21.9188C152.895 21.7805 154.802 22.3567 156.286 23.5324C157.11 24.3161 157.58 25.3996 157.58 26.5291C157.416 28.1427 156.168 29.4797 154.52 29.7563C155.297 29.8716 156.05 30.1021 156.756 30.4479C158.216 31.2316 159.087 32.753 158.993 34.3666C158.946 35.5884 158.334 36.7409 157.345 37.4786C156.191 38.3315 154.779 38.8156 153.343 38.8617H141.194V38.9769L141.218 39Z" fill="#02548F"/>
<path fill-rule="evenodd" clip-rule="evenodd" d="M90.0479 12.3634L91.3653 13.8795C91.3653 13.8795 94.8383 11.1972 98.0719 9.09799C101.305 6.99878 104.419 5.24945 103.82 7.23203C103.222 9.21461 101.665 13.413 100.228 17.2849C98.7904 21.1568 97.5928 24.2822 97.5928 24.2822L94.1198 24.7487L96.6347 26.7313L91.9641 39H99.7485L102.263 32.3525L108.611 39H119.054L117.018 37.7172L104.898 25.5651C107.796 24.8187 110.599 23.6758 113.162 22.183C118.862 19.0342 123.365 14.1594 126 8.28163C123.485 7.23203 121.449 6.41567 120.132 5.71594C118.814 5.0162 117.976 4.89958 117.976 4.89958C117.186 7.11541 116.228 9.26126 115.102 11.3138C113.186 14.8125 110.192 19.0109 106.096 21.4833C106.455 20.7836 107.892 16.935 109.21 13.3197C110.527 9.70443 111.844 6.32237 111.844 6.32237C112.06 5.64596 112.132 4.9229 112.084 4.22317C111.964 3.17357 111.365 2.12396 109.329 2.00734C107.293 1.89072 104.18 3.17357 100.563 5.15615C96.8263 7.23203 93.2814 9.65778 90 12.3867" fill="#02548F"/>
</g>
<defs>
<clipPath id="clip0_29_894">
<rect width="161" height="40" fill="white"/>
</clipPath>
</defs>
</svg>
