<svg xmlns="http://www.w3.org/2000/svg" width="164" height="147" style="shape-rendering:geometricPrecision;text-rendering:geometricPrecision;image-rendering:optimizeQuality;fill-rule:evenodd;clip-rule:evenodd"><path style="opacity:.987" fill="#ff0443" d="M68.5 2.5c20.664-.867 40.998 1.3 61 6.5a88.851 88.851 0 0 1 23 9.5c11.828 35.586 11.995 71.253.5 107-22.229 11.315-45.896 16.648-71 16-25.416.785-49.416-4.549-72-16-11.3-35.347-11.3-70.68 0-106a4.452 4.452 0 0 1 1.5-2c18.194-8.517 37.194-13.517 57-15Z"/><path style="opacity:1" fill="#fffdfd" d="M79.5 24.5c15.252-1.252 28.252 3.415 39 14-5 5.667-10.333 11-16 16-13.394-10.096-25.894-9.096-37.5 3-9.21 17.07-5.377 30.237 11.5 39.5 9.736 3.191 18.402 1.358 26-5.5 6.208 5.026 11.375 10.693 15.5 17-15.308 12.927-32.474 16.094-51.5 9.5C43.94 106.383 34.44 87.883 38 62.5c5.918-21.508 19.751-34.175 41.5-38Z"/></svg>