<svg fill="none" xmlns="http://www.w3.org/2000/svg"><path fill-rule="evenodd" clip-rule="evenodd" d="M50.3 11.665V7.182h-2.348v2.241h-.91V7.182H44.77l-.455.896h.455v4.558h2.273v-2.241h.91v2.241h2.652l.379-.896H50.3v-.075Zm-8.274-3.587c0-.12-.06-.224-.152-.298a.58.58 0 0 0-.303-.15.398.398 0 0 0-.303.15.566.566 0 0 0-.151.298v1.943c0 .12.06.224.151.299a.58.58 0 0 0 .303.15c.122 0 .228-.06.303-.15a.566.566 0 0 0 .152-.299V8.078Zm-.53-1.345c.681 0 1.348.21 1.894.598.56.374.894.987.91 1.644 0 1.57-.758 2.167-1.592 2.391a3.188 3.188 0 0 1-1.591 0v.374h.682l-.38.896h-2.651v-4.11a1.54 1.54 0 0 1 .379-.896c.303-.448.985-.897 2.349-.897Zm10.85-1.718c-.272.015-.545.12-.757.299a.87.87 0 0 0-.303.747c.015.269.12.538.303.747a1.1 1.1 0 0 0 1.515 0 .87.87 0 0 0 .303-.747 1.259 1.259 0 0 0-.303-.747 1.296 1.296 0 0 0-.758-.3Zm-1.59 3.063h.454v4.558h2.652l.379-.896h-.606V7.257h-2.35l-.53.821Zm7.213 3.96v.598h2.652L61 11.74h-.682V7.257h-2.349v3.362c0 .389-.197.762-.53.971-.228.15-.53.224-.53.075V7.331h-2.35l-.454.897h.454v3.362c.03.254.137.493.303.673a2.06 2.06 0 0 0 1.667.672c.38-.015.743-.12 1.061-.299.136-.194.273-.388.379-.597ZM36.494 5c-.272.015-.545.12-.757.299a.87.87 0 0 0-.303.747c.015.27.12.538.303.747a1.1 1.1 0 0 0 1.515 0 .87.87 0 0 0 .303-.747 1.257 1.257 0 0 0-.303-.747A1.295 1.295 0 0 0 36.494 5Zm-1.59 3.063h.454v4.558h2.652l.379-.896h-.682V7.242h-2.35l-.454.821Zm-6.23-.896-.303.896h.682v1.943c.015.27.121.538.303.747a1.85 1.85 0 0 0 1.667.748c.334 0 .667-.045.985-.15.228-.075.304-.15.304-.224v.598h-.228v.896h2.577l.378-.896h-.681V7.242H32.16v2.839c0 .15-.227.299-.455.299-.227 0-.454.074-.454-.075V7.167h-2.577Zm-4.016 2.092h1.516v-.897c0-.104-.03-.209-.076-.299a.756.756 0 0 0-.682-.298.902.902 0 0 0-.682.298.788.788 0 0 0-.076.374v.822Zm3.713 1.42a2.638 2.638 0 0 1-.682 1.195 3.262 3.262 0 0 1-2.5 1.121 3.434 3.434 0 0 1-1.591-.299 2.761 2.761 0 0 1-1.592-2.69 2.88 2.88 0 0 1 1.591-2.764 4.584 4.584 0 0 1 1.668-.374 2.872 2.872 0 0 1 2.652 1.42c.348.612.53 1.315.53 2.017h-3.789v1.196c0 .104.03.209.076.299a.693.693 0 0 0 .606.298c.258.03.53-.09.682-.299a.672.672 0 0 0 .076-.298v-.822h2.273Z" fill="#02548F"/><path fill-rule="evenodd" clip-rule="evenodd" d="M50.28 11.665V7.183h-2.354v2.241h-.91V7.183h-2.279l-.455.896h.455v4.557h2.278v-2.24h.911v2.24h2.657l.38-.896h-.683v-.075ZM41.989 8.08c0-.12-.06-.224-.152-.299a.582.582 0 0 0-.304-.149.399.399 0 0 0-.303.15.565.565 0 0 0-.152.298v1.943c0 .12.06.224.152.298a.582.582 0 0 0 .303.15c.122 0 .228-.06.304-.15a.566.566 0 0 0 .152-.298V8.079Zm-.531-1.42c.683 0 1.351.21 1.898.599.531.388.85 1 .835 1.643 0 1.569-.76 2.167-1.595 2.39a3.2 3.2 0 0 1-1.594 0v.374h.683l-.38.897h-2.657v-4.11c.03-.328.152-.642.38-.896a3.076 3.076 0 0 1 2.43-.896ZM52.33 5.017a1.3 1.3 0 0 0-.76.3.87.87 0 0 0-.303.746c.015.27.121.538.303.747a1.104 1.104 0 0 0 1.519 0 .87.87 0 0 0 .304-.747 1.256 1.256 0 0 0-.304-.747.963.963 0 0 0-.76-.299ZM50.81 8.005h.456v4.557h2.657l.38-.897h-.684V7.183h-2.353l-.456.822Zm7.152 3.959v.598h2.657l.38-.897h-.683V7.183h-2.354v3.362c0 .388-.197.762-.531.97-.228.15-.532.225-.532.075V7.259h-2.353l-.456.896h.456v3.362c.03.254.136.493.303.672a2.066 2.066 0 0 0 1.67.672c.38-.014.745-.119 1.063-.298.228-.3.38-.448.38-.598ZM36.447 5.001a1.3 1.3 0 0 0-.76.3.87.87 0 0 0-.303.746c.015.27.121.538.303.747a1.104 1.104 0 0 0 1.519 0 .87.87 0 0 0 .304-.747 1.256 1.256 0 0 0-.304-.747.963.963 0 0 0-.76-.299ZM34.928 7.99h.456v4.557h2.657l.38-.897h-.684V7.168h-2.353l-.456.822Zm-6.316-.822-.304.896h.683v1.943c.015.269.122.538.304.747.38.523 1.017.807 1.67.747.334 0 .668-.045.987-.15.228-.074.304-.149.304-.224v.598h-.228v.896h2.657l.38-.896h-.683V7.243H32.18v2.838c0 .15-.228.3-.456.3-.227 0-.455.074-.455-.075V7.168h-2.657Zm-4.024 2.017h1.518v-.897a.67.67 0 0 0-.076-.298.758.758 0 0 0-.683-.3.905.905 0 0 0-.684.3.787.787 0 0 0-.075.373v.822Zm3.796 1.494c-.122.448-.35.867-.684 1.195a3.271 3.271 0 0 1-2.505 1.121 3.447 3.447 0 0 1-1.594-.299 2.76 2.76 0 0 1-1.595-2.69 2.879 2.879 0 0 1 1.595-2.763 4.216 4.216 0 0 1 1.594-.374c1.093-.06 2.126.493 2.657 1.42a4.09 4.09 0 0 1 .532 2.017h-3.796V11.5c0 .134.03.254.075.373a.695.695 0 0 0 .608.3c.258.03.531-.09.683-.3a.67.67 0 0 0 .076-.298v-.822h1.367a7.32 7.32 0 0 1 .987-.075Z" fill="#02548F"/><path fill-rule="evenodd" clip-rule="evenodd" d="M23.68 3.316c-.51-1.018-1.437-1.766-2.55-2.095a15.087 15.087 0 0 0-4.019-.15c-1.886.21-3.74.569-5.565 1.048-2.782.748-10.062 4.19-10.062 4.19l.773 1.198 3.71-1.796c.309-.15.463-.075.54 0 .109.09.14.24.078.374C5.425 9.078 0 24 0 24s7.435-.449 7.976-.374c1.345-.03 2.69-.135 4.019-.3a30.55 30.55 0 0 0 3.478-.748 8.528 8.528 0 0 0 4.173-2.843 6.6 6.6 0 0 0 1.082-3.368 3.342 3.342 0 0 0-1.7-2.62A11.233 11.233 0 0 0 16.245 13s2.705-1.123 3.092-1.273c1.19-.553 2.257-1.332 3.091-2.32a8.029 8.029 0 0 0 1.546-3.442 6.276 6.276 0 0 0-.31-2.619l.016-.03ZM11.145 20.543c-1.314 1.122-4.56 1.422-5.024 1.496l2.396-6.6s1.932-.075 2.782 0c.928.105 1.623.898 1.546 1.796a5.008 5.008 0 0 1-1.7 3.293v.015Zm3.323-9.594A12.807 12.807 0 0 1 9.29 12.82l3.555-9.594a7.37 7.37 0 0 1 2.55-.374c1.422.315 2.442 1.512 2.473 2.919-.077 1.646-1.623 3.966-3.4 5.163v.015ZM88.132 10c-.36 0-.707.154-.977.384a1.329 1.329 0 0 0 0 1.844c.27.246.616.385.977.385.36 0 .706-.154.977-.385a1.329 1.329 0 0 0 0-1.844 1.76 1.76 0 0 0-.977-.384Zm-2.856 0C84.57 10 84 10.584 84 11.306c0 .338.135.676.376.922.24.23.57.37.901.385.361 0 .707-.154.977-.385a1.329 1.329 0 0 0 0-1.844 1.452 1.452 0 0 0-.977-.384Zm-1.502 4.457H84.9V24h4.283V12.766h-4.659l-.751 1.69Zm-5.035 7.853V24h4.584l.751-1.69h-1.127v-9.544H78.74v6.931a2.504 2.504 0 0 1-1.052 1.537c-.526.384-1.052.614-1.052.23v-8.698h-4.733L71 14.534h1.277v6.93c.046.692.376 1.337.902 1.768a3.123 3.123 0 0 0 2.029.768 4.183 4.183 0 0 0 1.953-.615 8.007 8.007 0 0 0 1.578-1.075Zm16.561.153c.436.046.872-.092 1.202-.384.36-.369.556-.86.526-1.383a1.764 1.764 0 0 0-.826-1.614 1.965 1.965 0 0 0-.827-.23v2.151a6.75 6.75 0 0 0-.075 1.46Zm1.578-6.009a2.58 2.58 0 0 0 .3-1.536c-.075-.538-.375-.922-.826-.922-.601 0-.827.845-.902 1.767-.075.922-.075 1.767-.075 1.767.33 0 .646-.107.902-.307.225-.246.42-.492.6-.769ZM89.65 24l.525-1.537h.752v-5.855a4.24 4.24 0 0 1 .601-1.998c.601-.999 1.878-1.997 4.358-1.997a4.75 4.75 0 0 1 3.381 1.075c.526.523.827 1.245.827 1.998-.105 1.076-.902 1.967-1.954 2.151.496.077.977.231 1.428.462a2.814 2.814 0 0 1 1.428 2.612 2.771 2.771 0 0 1-1.052 2.075 4.442 4.442 0 0 1-2.555.922h-7.754v.077l.014.015Z" fill="#02548F"/><path fill-rule="evenodd" clip-rule="evenodd" d="m57.03 6.722.842.984s2.22-1.74 4.285-3.102c2.066-1.362 4.055-2.496 3.673-1.21-.383 1.286-1.378 4.009-2.296 6.52-.918 2.512-1.683 4.54-1.683 4.54l-2.219.302 1.607 1.286L58.255 24h4.973l1.607-4.312L68.89 24h6.672l-1.3-.832-7.744-7.882a20.684 20.684 0 0 0 5.28-2.194A19.255 19.255 0 0 0 80 4.075c-1.607-.681-2.907-1.21-3.75-1.665-.84-.454-1.376-.53-1.376-.53a28.924 28.924 0 0 1-1.837 4.161c-1.224 2.27-3.137 4.993-5.754 6.597.23-.454 1.148-2.95 1.99-5.295a252.303 252.303 0 0 1 1.683-4.54c.138-.438.184-.907.153-1.36C71.033.76 70.65.08 69.35.004c-1.3-.076-3.29.756-5.6 2.042A43.917 43.917 0 0 0 57 6.737" fill="#02548F"/></svg>