<svg aria-hidden="true" style="position: absolute; width: 0; height: 0; overflow: hidden;" version="1.1" xmlns="http://www.w3.org/2000/svg" xmlns:xlink="http://www.w3.org/1999/xlink">
<defs>
<symbol id="icon-telegram" viewBox="0 0 38 32">
<path fill="#fff" style="fill: var(--color1, #fff)" d="M2.628 13.776c10.26-4.516 17.102-7.493 20.525-8.932 9.774-4.107 11.805-4.82 13.129-4.844 0.291-0.005 0.942 0.068 1.364 0.413 0.356 0.292 0.454 0.686 0.501 0.963s0.105 0.907 0.059 1.4c-0.53 5.622-2.822 19.266-3.987 25.563-0.493 2.664-1.465 3.558-2.405 3.645-2.044 0.19-3.596-1.365-5.575-2.675-3.098-2.051-4.848-3.328-7.854-5.33-3.475-2.313-1.222-3.585 0.758-5.663 0.518-0.544 9.524-8.819 9.698-9.569 0.022-0.094 0.042-0.444-0.164-0.629s-0.509-0.122-0.729-0.071c-0.311 0.071-5.259 3.376-14.846 9.913-1.405 0.974-2.677 1.449-3.817 1.424-1.257-0.027-3.674-0.718-5.471-1.308-2.204-0.724-3.956-1.107-3.803-2.336 0.079-0.64 0.952-1.295 2.618-1.964z"></path>
</symbol>
<symbol id="icon-instagram" viewBox="0 0 32 32">
<path fill="#fff" style="fill: var(--color1, #fff)" d="M16.001 0c-4.345 0-4.891 0.019-6.597 0.097-1.703 0.078-2.866 0.348-3.883 0.743-1.052 0.409-1.945 0.955-2.834 1.845s-1.437 1.782-1.847 2.834c-0.397 1.018-0.667 2.181-0.743 3.883-0.076 1.707-0.096 2.252-0.096 6.598s0.019 4.889 0.097 6.596c0.078 1.703 0.348 2.866 0.743 3.883 0.409 1.052 0.956 1.945 1.845 2.834s1.782 1.438 2.833 1.847c1.018 0.396 2.181 0.665 3.884 0.743 1.707 0.078 2.252 0.097 6.597 0.097s4.889-0.019 6.596-0.097c1.703-0.078 2.867-0.348 3.885-0.743 1.052-0.409 1.943-0.957 2.832-1.847 0.89-0.889 1.437-1.782 1.847-2.834 0.393-1.018 0.663-2.181 0.743-3.883 0.077-1.707 0.097-2.251 0.097-6.596s-0.020-4.891-0.097-6.597c-0.080-1.703-0.35-2.866-0.743-3.883-0.41-1.052-0.957-1.945-1.847-2.834s-1.78-1.437-2.833-1.845c-1.020-0.396-2.183-0.665-3.887-0.743-1.707-0.078-2.25-0.097-6.597-0.097h0.005zM14.566 2.883c0.426-0.001 0.901 0 1.435 0 4.272 0 4.778 0.015 6.465 0.092 1.56 0.071 2.407 0.332 2.971 0.551 0.747 0.29 1.279 0.637 1.839 1.197s0.907 1.093 1.197 1.84c0.219 0.563 0.48 1.41 0.551 2.97 0.077 1.687 0.093 2.193 0.093 6.463s-0.017 4.777-0.093 6.463c-0.071 1.56-0.332 2.407-0.551 2.97-0.29 0.747-0.637 1.278-1.197 1.838s-1.092 0.907-1.839 1.197c-0.563 0.22-1.411 0.48-2.971 0.551-1.687 0.077-2.193 0.093-6.465 0.093s-4.779-0.017-6.465-0.093c-1.56-0.072-2.407-0.333-2.971-0.552-0.747-0.29-1.28-0.637-1.84-1.197s-0.907-1.092-1.197-1.839c-0.219-0.563-0.48-1.41-0.551-2.97-0.077-1.687-0.092-2.193-0.092-6.466s0.015-4.777 0.092-6.463c0.071-1.56 0.332-2.407 0.551-2.971 0.29-0.747 0.637-1.28 1.197-1.84s1.093-0.907 1.84-1.197c0.564-0.22 1.411-0.48 2.971-0.552 1.476-0.067 2.048-0.087 5.030-0.090v0.004zM24.542 5.54c-0.38 0-0.751 0.113-1.067 0.324s-0.562 0.511-0.707 0.862-0.183 0.737-0.109 1.109c0.074 0.372 0.257 0.715 0.526 0.983s0.611 0.451 0.983 0.525 0.759 0.036 1.109-0.11c0.351-0.145 0.651-0.392 0.862-0.707s0.323-0.687 0.323-1.067c0-1.060-0.86-1.92-1.92-1.92v0.001zM16.001 7.783c-4.538 0-8.217 3.679-8.217 8.217s3.679 8.215 8.217 8.215c4.538 0 8.216-3.677 8.216-8.215s-3.678-8.217-8.216-8.217h0zM16.001 10.667c2.945 0 5.333 2.388 5.333 5.333s-2.388 5.333-5.333 5.333c-2.946 0-5.333-2.388-5.333-5.333s2.388-5.333 5.333-5.333z"></path>
</symbol>
</defs>
</svg>
