<svg aria-hidden="true" style="position: absolute; width: 0; height: 0; overflow: hidden;" version="1.1" xmlns="http://www.w3.org/2000/svg" xmlns:xlink="http://www.w3.org/1999/xlink">
<defs>
<symbol id="icon-telegram-new--transform" viewBox="0 0 32 32">
<path fill="#fff" style="fill: var(--color1, #fff)" d="M3.339 12.147c0-3.083 0-4.624 0.6-5.802 0.538-1.041 1.365-1.868 2.375-2.391l0.031-0.014c1.177-0.6 2.719-0.6 5.801-0.6h7.707c3.083 0 4.624 0 5.802 0.6 1.041 0.538 1.868 1.365 2.391 2.375l0.014 0.031c0.6 1.177 0.6 2.719 0.6 5.801v7.707c0 3.083 0 4.624-0.6 5.802-0.538 1.041-1.365 1.868-2.375 2.391l-0.031 0.014c-1.178 0.6-2.719 0.6-5.802 0.6h-7.706c-3.083 0-4.624 0-5.802-0.6-1.041-0.538-1.868-1.365-2.391-2.375l-0.014-0.031c-0.6-1.178-0.6-2.719-0.6-5.802v-7.706z"></path>
<path fill="#000" style="fill: var(--color2, #000)" d="M16 26.991c6.070 0 10.991-4.921 10.991-10.991s-4.921-10.991-10.991-10.991-10.991 4.921-10.991 10.991 4.921 10.991 10.991 10.991z"></path>
<path fill="#fff" style="fill: var(--color1, #fff)" d="M10.005 15.999c3.212-1.414 5.354-2.346 6.425-2.796 3.060-1.286 3.696-1.509 4.11-1.517 0.091-0.001 0.295 0.021 0.427 0.129 0.111 0.092 0.142 0.215 0.157 0.302 0.015 0.091 0.023 0.195 0.023 0.302 0 0.048-0.002 0.096-0.005 0.143l0-0.006c-0.166 1.76-0.883 6.031-1.248 8.002-0.154 0.834-0.459 1.114-0.753 1.141-0.64 0.060-1.126-0.427-1.745-0.838-0.97-0.642-1.518-1.042-2.459-1.668-1.088-0.724-0.383-1.122 0.237-1.773 0.162-0.17 2.981-2.761 3.036-2.996 0.007-0.030 0.013-0.139-0.051-0.197s-0.159-0.038-0.228-0.022c-0.097 0.022-1.646 1.057-4.647 3.103-0.44 0.305-0.838 0.454-1.195 0.446-0.393-0.009-1.15-0.225-1.713-0.41-0.69-0.227-1.238-0.346-1.191-0.731 0.025-0.2 0.298-0.405 0.82-0.615z"></path>
</symbol>
<symbol id="icon-instagram-new-transform" viewBox="0 0 32 32">
<path d="M16.004 3.339c-5.286 0-6.832 0.006-7.132 0.031-1.085 0.090-1.76 0.261-2.495 0.627-0.567 0.282-1.014 0.608-1.455 1.065-0.803 0.834-1.29 1.86-1.466 3.080-0.086 0.592-0.111 0.713-0.116 3.738-0.002 1.008 0 2.335 0 4.115 0 5.283 0.006 6.827 0.031 7.127 0.088 1.056 0.253 1.72 0.604 2.447 0.67 1.391 1.949 2.435 3.457 2.825 0.522 0.134 1.099 0.208 1.838 0.243 0.314 0.014 3.509 0.023 6.707 0.023s6.395-0.004 6.701-0.019c0.857-0.040 1.355-0.107 1.905-0.249 1.535-0.403 2.773-1.436 3.443-2.799l0.014-0.031c0.344-0.709 0.518-1.399 0.597-2.399 0.017-0.218 0.024-3.697 0.024-7.171s-0.008-6.947-0.025-7.165c-0.080-1.017-0.254-1.7-0.609-2.423-0.291-0.592-0.614-1.033-1.084-1.485-0.838-0.8-1.862-1.287-3.083-1.463-0.592-0.085-0.709-0.111-3.736-0.116h-4.121z"></path>
<path  d="M16.004 3.339c-5.286 0-6.832 0.006-7.132 0.031-1.085 0.090-1.76 0.261-2.495 0.627-0.567 0.282-1.014 0.608-1.455 1.065-0.803 0.834-1.29 1.86-1.466 3.080-0.086 0.592-0.111 0.713-0.116 3.738-0.002 1.008 0 2.335 0 4.115 0 5.283 0.006 6.827 0.031 7.127 0.088 1.056 0.253 1.72 0.604 2.447 0.67 1.391 1.949 2.435 3.457 2.825 0.522 0.134 1.099 0.208 1.838 0.243 0.314 0.014 3.509 0.023 6.707 0.023s6.395-0.004 6.701-0.019c0.857-0.040 1.355-0.107 1.905-0.249 1.535-0.403 2.773-1.436 3.443-2.799l0.014-0.031c0.344-0.709 0.518-1.399 0.597-2.399 0.017-0.218 0.024-3.697 0.024-7.171s-0.008-6.947-0.025-7.165c-0.080-1.017-0.254-1.7-0.609-2.423-0.291-0.592-0.614-1.033-1.084-1.485-0.838-0.8-1.862-1.287-3.083-1.463-0.592-0.085-0.709-0.111-3.736-0.116h-4.121z"></path>
<path fill="#fff" style="fill: var(--color1, #fff)" d="M16.001 6.678c-2.532 0-2.849 0.011-3.844 0.056-0.992 0.046-1.67 0.203-2.262 0.433-0.613 0.238-1.133 0.557-1.651 1.075s-0.837 1.038-1.076 1.651c-0.231 0.593-0.388 1.271-0.433 2.263-0.045 0.995-0.056 1.312-0.056 3.844s0.011 2.848 0.056 3.843c0.046 0.992 0.203 1.67 0.433 2.262 0.238 0.613 0.557 1.133 1.075 1.651s1.038 0.838 1.651 1.076c0.593 0.231 1.271 0.388 2.263 0.433 0.994 0.045 1.312 0.056 3.843 0.056s2.849-0.011 3.843-0.056c0.993-0.046 1.671-0.203 2.264-0.433 0.613-0.238 1.132-0.557 1.65-1.076s0.837-1.038 1.076-1.651c0.229-0.593 0.387-1.271 0.433-2.262 0.045-0.994 0.056-1.311 0.056-3.843s-0.012-2.849-0.056-3.844c-0.047-0.992-0.204-1.67-0.433-2.262-0.239-0.613-0.557-1.133-1.076-1.651s-1.037-0.837-1.651-1.075c-0.594-0.231-1.272-0.388-2.264-0.433-0.995-0.045-1.311-0.056-3.843-0.056h0.003zM15.164 8.358h0.836c2.489 0 2.784 0.009 3.767 0.054 0.909 0.041 1.402 0.193 1.731 0.321 0.435 0.169 0.745 0.371 1.071 0.697s0.528 0.637 0.698 1.072c0.128 0.328 0.28 0.822 0.321 1.73 0.045 0.983 0.054 1.278 0.054 3.765s-0.010 2.783-0.054 3.766c-0.042 0.909-0.193 1.402-0.321 1.73-0.169 0.435-0.371 0.745-0.698 1.071s-0.636 0.528-1.071 0.697c-0.328 0.128-0.822 0.28-1.731 0.321-0.983 0.045-1.278 0.055-3.767 0.055s-2.784-0.010-3.767-0.055c-0.909-0.042-1.402-0.194-1.731-0.321-0.435-0.169-0.746-0.371-1.072-0.697s-0.528-0.636-0.698-1.071c-0.127-0.328-0.28-0.822-0.321-1.73-0.045-0.983-0.054-1.278-0.054-3.767s0.009-2.783 0.054-3.766c0.042-0.909 0.193-1.402 0.321-1.731 0.169-0.435 0.371-0.746 0.698-1.072s0.637-0.528 1.072-0.698c0.328-0.128 0.822-0.28 1.731-0.321 0.86-0.039 1.193-0.050 2.931-0.052v0.002zM20.977 9.906c-0.618 0-1.119 0.501-1.119 1.119s0.501 1.119 1.119 1.119v0c0.618 0 1.119-0.501 1.119-1.119s-0.501-1.119-1.119-1.119v0 0zM16.001 11.213c-2.643 0-4.787 2.144-4.787 4.787s2.143 4.786 4.787 4.786c2.644 0 4.787-2.143 4.787-4.786s-2.143-4.787-4.787-4.787zM16.001 12.893c1.716 0 3.107 1.391 3.107 3.107s-1.391 3.107-3.107 3.107-3.107-1.391-3.107-3.107 1.391-3.107 3.107-3.107z"></path>
</symbol>
</defs>
</svg>
