<svg width="91" height="91" viewBox="0 0 91 91" fill="none" xmlns="http://www.w3.org/2000/svg">
<path d="M0 31.6522C0 20.5729 0 15.0332 2.15618 10.8015C4.0528 7.07915 7.07915 4.0528 10.8015 2.15618C15.0332 0 20.5729 0 31.6522 0H59.3478C70.4271 0 75.9668 0 80.1985 2.15618C83.9208 4.0528 86.9472 7.07915 88.8438 10.8015C91 15.0332 91 20.5729 91 31.6522V59.3478C91 70.4271 91 75.9668 88.8438 80.1985C86.9472 83.9208 83.9208 86.9472 80.1985 88.8438C75.9668 91 70.4271 91 59.3478 91H31.6522C20.5729 91 15.0332 91 10.8015 88.8438C7.07915 86.9472 4.0528 83.9208 2.15618 80.1985C0 75.9668 0 70.4271 0 59.3478V31.6522Z" fill="white"/>
<g clip-path="url(#clip0_29_870)">
<path d="M45.5 85C67.3153 85 85 67.3153 85 45.5C85 23.6848 67.3153 6 45.5 6C23.6848 6 6 23.6848 6 45.5C6 67.3153 23.6848 85 45.5 85Z" fill="url(#paint0_linear_29_870)"/>
<path fill-rule="evenodd" clip-rule="evenodd" d="M23.956 45.4978C35.4987 40.4173 43.1957 37.068 47.0469 35.4498C58.0428 30.8294 60.3276 30.0268 61.8169 30.0003C62.1444 29.9945 62.8768 30.0765 63.3512 30.4653C63.7517 30.7937 63.8619 31.2373 63.9147 31.5486C63.9674 31.8599 64.0331 32.5691 63.9809 33.1233C63.385 39.4482 60.8067 54.7972 59.495 61.8812C58.9399 64.8787 57.8471 65.8838 56.789 65.9822C54.4897 66.1959 52.7437 64.447 50.5166 62.9723C47.0318 60.6645 45.0631 59.2279 41.6804 56.976C37.7711 54.3735 40.3053 52.9431 42.5332 50.6055C43.1163 49.9937 53.2472 40.6845 53.4433 39.84C53.4678 39.7344 53.4906 39.3407 53.2591 39.1328C53.0276 38.925 52.6859 38.996 52.4393 39.0526C52.0898 39.1327 46.5227 42.85 35.738 50.2045C34.1578 51.3007 32.7265 51.8348 31.4441 51.8068C30.0303 51.7759 27.3108 50.9993 25.2892 50.3354C22.8096 49.5211 20.8388 49.0906 21.0104 47.7077C21.0998 46.9874 22.0817 46.2508 23.956 45.4978Z" fill="white"/>
</g>
<defs>
<linearGradient id="paint0_linear_29_870" x1="45.5" y1="6" x2="45.5" y2="84.4141" gradientUnits="userSpaceOnUse">
<stop stop-color="#2AABEE"/>
<stop offset="1" stop-color="#229ED9"/>
</linearGradient>
<clipPath id="clip0_29_870">
<rect width="79" height="79" fill="white" transform="translate(6 6)"/>
</clipPath>
</defs>
</svg>
