<svg width="91" height="91" viewBox="0 0 91 91" fill="none" xmlns="http://www.w3.org/2000/svg">
<path d="M0 31.7685C0 20.6485 0 15.0885 2.1641 10.8412C4.0677 7.10518 7.10518 4.0677 10.8412 2.1641C15.0885 0 20.6485 0 31.7685 0H59.2315C70.3515 0 75.9115 0 80.1588 2.1641C83.8948 4.0677 86.9323 7.10518 88.8359 10.8412C91 15.0885 91 20.6485 91 31.7685V59.2315C91 70.3515 91 75.9115 88.8359 80.1588C86.9323 83.8948 83.8948 86.9323 80.1588 88.8359C75.9115 91 70.3515 91 59.2315 91H31.7685C20.6485 91 15.0885 91 10.8412 88.8359C7.10518 86.9323 4.0677 83.8948 2.1641 80.1588C0 75.9115 0 70.3515 0 59.2315V31.7685Z" fill="white"/>
<g clip-path="url(#clip0_409_1279)">
<path d="M38.69 38.1734V35.3916C37.7579 35.2651 36.8097 35.1853 35.8434 35.1853C24.1956 35.1853 14.7202 44.6511 14.7202 56.2856C14.7202 63.4243 18.2913 69.7412 23.7381 73.5613C20.2218 69.7914 18.135 64.7405 18.135 59.1951C18.135 47.7281 27.2739 38.4412 38.6911 38.1746L38.69 38.1734Z" fill="#25F4EE"/>
<path d="M39.1887 68.9002C44.3856 68.9002 48.6983 64.7018 48.8911 59.5564L48.9071 13.6851L57.2393 13.6144C57.0647 12.6708 56.9678 11.6998 56.9678 10.7061H45.4912L45.4729 56.6481C45.2801 61.7924 41.0404 65.9212 35.8446 65.9212C34.229 65.9212 32.7082 65.5178 31.3699 64.8135C33.1235 67.2409 35.9712 68.8991 39.1898 68.8991L39.1887 68.9002Z" fill="#25F4EE"/>
<path d="M72.934 29.2845V26.6542C69.728 26.6542 66.7434 25.7026 64.239 24.0718C66.4684 26.6291 69.4964 28.5494 72.934 29.2845Z" fill="#25F4EE"/>
<path d="M64.2389 24.0718C61.7962 21.2694 60.3119 17.6135 60.3119 13.6145H57.2371C58.0471 17.9827 60.6416 21.7298 64.2378 24.0718H64.2389Z" fill="#FE2C55"/>
<path d="M35.8433 46.649C30.5242 46.649 26.1956 50.9716 26.1956 56.2857C26.1956 59.9861 28.2971 63.201 31.3674 64.8147C30.223 63.2306 29.5408 61.2932 29.5408 59.194C29.5408 53.8799 33.8683 49.5573 39.1885 49.5573C40.1811 49.5573 41.1337 49.7214 42.0351 50.0029V38.3C41.1029 38.1735 40.1548 38.0938 39.1885 38.0938C39.0207 38.0938 38.8564 38.1029 38.6899 38.1063V47.0934C37.7885 46.8119 36.8359 46.6478 35.8433 46.6478V46.649Z" fill="#FE2C55"/>
<path d="M72.9338 29.208V38.1177C66.9827 38.1177 61.4686 36.2156 56.9677 32.9893V56.2857C56.9677 67.9202 47.4923 77.3848 35.8445 77.3848C31.3435 77.3848 27.17 75.9671 23.7393 73.5602C27.5979 77.6982 33.0949 80.2932 39.1897 80.2932C50.8375 80.2932 60.3129 70.8285 60.3129 59.194V35.8977C64.8138 39.1251 70.3291 41.026 76.279 41.026V29.5624C75.1313 29.5624 74.0132 29.4382 72.9338 29.208Z" fill="#FE2C55"/>
<path d="M56.9678 56.2858V32.9894C61.4688 36.2168 66.9841 38.1177 72.934 38.1177V29.2081C69.4964 28.473 66.4684 26.6291 64.239 24.0718C60.6428 21.7298 58.0483 17.9827 57.2382 13.6145H48.8364L48.8182 59.5565C48.6254 64.7008 44.3868 68.8297 39.1899 68.8297C35.9713 68.8297 33.1236 67.241 31.37 64.8136C28.2997 63.1999 26.1981 59.985 26.1981 56.2846C26.1981 50.9705 30.5257 46.6479 35.8458 46.6479C36.8384 46.6479 37.7911 46.812 38.6924 47.0935V38.1063C27.2752 38.373 18.0679 47.726 18.0679 59.1941C18.0679 64.7407 20.2254 69.7904 23.7406 73.5603C27.1713 75.9661 31.3449 77.3849 35.8458 77.3849C47.4936 77.3849 56.969 67.9203 56.969 56.2858H56.9678Z" fill="black"/>
</g>
<defs>
<clipPath id="clip0_409_1279">
<rect width="61.5588" height="69.5882" fill="white" transform="translate(14.7205 10.7061)"/>
</clipPath>
</defs>
</svg>
