<svg width="32" height="32" viewBox="0 0 32 32" fill="none" xmlns="http://www.w3.org/2000/svg">
<g id="Frame 151">
<path id="Vector" d="M26.5672 1.77337L1.77327 26.5673C0.793922 27.5467 0.793922 29.1345 1.77327 30.1139C2.75263 31.0932 4.34047 31.0932 5.31983 30.1138L30.1138 5.31992C31.0931 4.34057 31.0931 2.75272 30.1138 1.77337C29.1344 0.794017 27.5466 0.79402 26.5672 1.77337Z" fill="#E6E6E6"/>
<path id="Vector_2" d="M29.7793 26.5672L4.98537 1.77327C4.00602 0.793922 2.41817 0.793922 1.43882 1.77327C0.45947 2.75263 0.459472 4.34047 1.43882 5.31983L26.2328 30.1138C27.2121 31.0931 28.8 31.0931 29.7793 30.1138C30.7587 29.1344 30.7587 27.5466 29.7793 26.5672Z" fill="#E6E6E6"/>
</g>
</svg>
