<svg width="32" height="24" viewBox="0 0 32 24" fill="none" xmlns="http://www.w3.org/2000/svg">
<path d="M30.0001 0H2.03613C0.931563 0 0.0361328 0.895431 0.0361328 2C0.0361328 3.10457 0.931563 4 2.03613 4H30.0001C31.1047 4 32.0001 3.10457 32.0001 2C32.0001 0.895431 31.1047 0 30.0001 0Z" fill="#E6E6E6"/>
<path d="M30.0001 10H2.03613C0.931563 10 0.0361328 10.8954 0.0361328 12C0.0361328 13.1046 0.931563 14 2.03613 14H30.0001C31.1047 14 32.0001 13.1046 32.0001 12C32.0001 10.8954 31.1047 10 30.0001 10Z" fill="#E6E6E6"/>
<path d="M30.0001 20H2.03613C0.931563 20 0.0361328 20.8954 0.0361328 22C0.0361328 23.1046 0.931563 24 2.03613 24H30.0001C31.1047 24 32.0001 23.1046 32.0001 22C32.0001 20.8954 31.1047 20 30.0001 20Z" fill="#E6E6E6"/>
</svg>
