<svg width="74" height="24" viewBox="0 0 74 24" fill="none" xmlns="http://www.w3.org/2000/svg">
<g clip-path="url(#clip0_133_1918)">
<path d="M2.35826 9.61438C2.23404 9.54173 2.12838 9.48475 2.02558 9.42064C1.47871 9.07875 1.25026 8.51747 1.43445 7.89636C1.82996 6.55299 2.23832 5.2139 2.6424 3.87481C2.71237 3.64119 2.78519 3.40898 2.85801 3.17678C2.87371 3.12549 2.88942 3.07278 2.91226 3.02435C2.97937 2.88474 3.04791 2.84628 3.2064 2.86907C3.27922 2.87904 3.35204 2.90184 3.42058 2.92748C4.77417 3.44032 6.12633 3.95317 7.4785 4.46743C7.55988 4.49877 7.64127 4.53581 7.71409 4.58282C7.82689 4.65405 7.85116 4.72955 7.8169 4.86061C7.80119 4.91902 7.7812 4.97743 7.7555 5.03156C7.06157 6.52165 6.37049 8.01317 5.67228 9.50184C5.37672 10.1329 4.7656 10.4022 4.06025 10.2241C3.996 10.2084 3.93031 10.1913 3.85036 10.17C3.8118 10.2412 3.76897 10.3096 3.73756 10.3808C3.20212 11.5717 2.6681 12.7627 2.13552 13.955C2.08983 14.0576 2.03414 14.1602 2.0727 14.2884C2.23119 14.3012 2.33542 14.2129 2.44108 14.1317C2.92654 13.7599 3.40915 13.3866 3.89319 13.0148C4.19447 12.7826 4.49431 12.5504 4.79844 12.3211C4.98977 12.1757 5.19538 12.0675 5.44383 12.049C5.8322 12.019 6.12919 12.2327 6.17202 12.6231C6.21771 13.0405 6.23057 13.4607 6.25627 13.8795C6.29625 14.522 6.3348 15.1645 6.3762 15.807C6.38192 15.8867 6.40048 15.9665 6.41476 16.0591C6.50328 16.0206 6.51185 15.9437 6.53898 15.8825C6.83311 15.2058 7.13153 14.532 7.41853 13.8525C7.86116 12.804 8.53795 11.9264 9.34611 11.1344C10.4527 10.0489 11.7834 9.37078 13.2555 8.93344C13.5454 8.84654 13.8352 8.75395 14.1379 8.65992C14.1379 8.50037 14.1451 8.3451 14.1379 8.19124C14.0694 6.90344 14.3493 5.70253 15.0503 4.61131C15.3459 4.15118 15.4487 3.64119 15.4744 3.10555C15.5058 2.436 15.5501 1.76646 15.5901 1.09549C15.6015 0.906023 15.6158 0.716556 15.6286 0.527089C15.64 0.357566 15.7114 0.216534 15.8157 0.0797756C16.0098 0.168099 16.1126 0.333348 16.2026 0.508569C16.5324 1.15247 16.8608 1.7978 17.1907 2.44313C17.2249 2.51008 17.2592 2.57561 17.2978 2.63972C17.4305 2.85625 17.5491 2.90611 17.7918 2.84913C18.0288 2.79499 18.2644 2.72946 18.5029 2.68388C18.9455 2.5984 19.3938 2.60125 19.8407 2.64257C20.0164 2.65824 20.192 2.67533 20.3676 2.68815C20.666 2.70952 20.963 2.72804 21.2614 2.74656C21.5027 2.76081 21.6784 2.64969 21.804 2.45167C21.8626 2.3605 21.9111 2.26363 21.9611 2.16819C22.2067 1.70805 22.4865 1.04563 22.7335 0.588345C22.8492 0.37466 22.9834 0.172372 23.1833 0C23.2961 0.123937 23.3689 0.259271 23.3846 0.415973C23.4289 0.867559 23.4446 1.52143 23.4646 1.97445C23.5103 3.00583 23.723 3.99875 24.1014 4.95891C24.2899 5.43756 24.4969 5.90909 24.6683 6.39202C24.9424 7.16841 25.0524 7.97186 24.9767 8.79241C24.8867 9.76539 24.5183 10.623 23.8687 11.358C23.7744 11.4649 23.6816 11.5732 23.5888 11.6814C23.4989 11.7868 23.4889 11.898 23.5588 12.0176C23.6445 12.1644 23.7259 12.3125 23.8087 12.4592C24.2556 13.2513 24.287 14.0661 23.9386 14.8995C23.8701 15.0619 23.7916 15.2186 23.713 15.3767C23.1762 16.448 22.6407 17.5179 22.101 18.5877C21.8554 19.0749 21.7383 19.592 21.7226 20.1334C21.7141 20.4525 21.7255 20.7716 21.7226 21.0892C21.7198 21.3998 21.8554 21.6334 22.1081 21.8086C22.3537 21.9782 22.6007 22.1463 22.8392 22.3272C23.2333 22.6249 23.4318 23.0238 23.4246 23.5196C23.4246 23.5666 23.4218 23.615 23.4132 23.6606C23.3704 23.88 23.2476 23.9968 23.0205 23.9982C22.4294 24.0011 21.8369 24.0025 21.2457 23.9868C20.9702 23.9797 20.7531 23.8315 20.6189 23.5936C20.509 23.3999 20.419 23.1947 20.3348 22.9882C20.1563 22.5551 19.9564 22.1349 19.6694 21.7602C19.5266 21.5736 19.3553 21.4269 19.1354 21.3343C18.9398 21.2516 18.9212 21.2046 18.9455 20.9867C18.9712 20.7573 19.0126 20.5294 19.0183 20.3C19.0397 19.394 18.7713 18.5777 18.2244 17.8569C17.8018 17.2999 17.2935 16.8326 16.6981 16.4665C15.9627 16.0135 15.1531 15.8226 14.2936 15.8468C14.0494 15.854 13.8053 15.8753 13.5625 15.8953C13.504 15.8996 13.4454 15.9252 13.374 15.9451C13.4412 16.0363 13.5325 16.0349 13.6125 16.0534C14.1137 16.166 14.6163 16.2742 15.096 16.4637C15.75 16.7215 16.3482 17.0734 16.7752 17.6404C17.569 18.6946 17.7475 19.8484 17.2549 21.0878C17.2121 21.1947 17.1607 21.2987 17.1236 21.4069C17.0693 21.5665 17.1021 21.6277 17.2635 21.6776C17.3606 21.7075 17.4605 21.726 17.559 21.7502C18.3715 21.9454 18.9526 22.7645 18.8655 23.5951C18.8498 23.7489 18.807 23.7888 18.6428 23.7945C18.46 23.8002 18.2758 23.8002 18.0916 23.8002C14.3921 23.8102 10.694 23.8201 6.99446 23.8287C6.8531 23.8287 6.71032 23.8116 6.56896 23.7973C6.38906 23.7802 6.27054 23.6777 6.20201 23.5167C6.16488 23.4298 6.13062 23.3401 6.10777 23.2489C5.87789 22.3443 5.63373 21.4425 5.42955 20.5322C5.29247 19.9183 5.20538 19.2943 5.11542 18.6718C5.01262 17.9623 4.9298 17.2486 4.8427 16.5363C4.79416 16.1403 4.75132 15.7429 4.7042 15.3454C4.69421 15.2656 4.68564 15.1844 4.66851 15.1047C4.62996 14.9209 4.5243 14.8554 4.35867 14.9423C4.17448 15.0391 3.99314 15.1531 3.83179 15.2841C3.10217 15.8825 2.37968 16.4893 1.65291 17.0919C1.45158 17.2586 1.23027 17.3854 0.963263 17.4124C0.706252 17.4395 0.477798 17.3711 0.283612 17.2073C0.0151776 16.9808 -0.0576422 16.6902 0.0437344 16.3625C0.2779 15.6061 0.506355 14.8482 0.766221 14.1003C1.2574 12.6886 1.76999 11.2854 2.27402 9.87793C2.30401 9.7953 2.32828 9.71268 2.36112 9.61011L2.35826 9.61438ZM17.3677 7.16128C17.2521 6.87495 17.0979 6.2225 17.0593 5.93901C16.9708 5.58144 16.0013 5.02729 16.0013 5.02729C15.8199 4.98028 15.7414 5.01162 15.6557 5.17829C15.6158 5.25522 15.5801 5.33784 15.5572 5.42189C15.4873 5.67831 15.4758 5.93901 15.4972 6.2054C15.5786 7.18408 16.2711 7.81088 17.2492 7.87499C17.9503 7.92058 18.5314 7.64706 19.0383 7.18835C19.2125 7.03165 19.2039 6.9362 19.004 6.80942C18.7185 6.62707 18.43 6.449 18.1416 6.27093C18.0916 6.23959 18.0359 6.22107 17.9717 6.19115C17.7675 6.51738 17.5719 6.83078 17.3663 7.16128H17.3677ZM20.9287 6.16836C20.5732 6.38917 20.2277 6.60143 19.8879 6.81939C19.6951 6.9419 19.6894 7.05871 19.8764 7.1969C20.0663 7.33793 20.2634 7.47041 20.4676 7.5915C20.806 7.79237 21.1743 7.89208 21.5713 7.87926C23.0163 7.83653 23.6716 6.62137 23.3504 5.41619C23.3018 5.23242 23.1904 5.09282 23.0248 4.98882C22.7107 5.17971 22.398 5.36776 22.0867 5.55865C21.9968 5.61421 21.9411 5.69256 21.914 5.79798C21.8212 6.17121 21.7241 6.54302 21.627 6.91626C21.607 6.99176 21.5798 7.06726 21.5484 7.16698C21.3343 6.82081 21.1344 6.50029 20.9287 6.16836ZM2.80946 8.12144C2.65668 8.29381 2.98508 8.12429 3.05505 8.09152C4.00885 7.63994 4.96264 7.18835 5.91644 6.73534C5.95642 6.71682 5.99497 6.69545 6.06636 6.65841C5.5809 6.44758 5.12542 6.24956 4.65423 6.04585C4.72991 5.95183 4.7913 5.87348 4.85556 5.79655C5.10257 5.49882 5.35102 5.20251 5.59803 4.90477C5.64801 4.84494 5.79222 4.62413 5.64087 4.67827C5.57661 4.70533 5.50951 4.73098 5.44525 4.76232C5.29961 4.83497 5.15683 4.91047 5.01262 4.98455C4.31298 5.34211 3.61476 5.69968 2.91512 6.05725C2.84373 6.09428 2.57815 6.17264 2.79518 6.25241C3.18213 6.39202 3.57907 6.5359 4.00171 6.68975C3.59906 7.1741 3.21068 7.64136 2.81089 8.12286L2.80946 8.12144ZM20.656 8.30093C20.6546 8.10434 20.5918 8.02457 20.3776 7.96046C19.815 7.79237 19.2568 7.82371 18.7013 7.9975C18.5257 8.05306 18.4586 8.14423 18.4543 8.3223C18.4486 8.50607 18.4786 8.55736 18.6785 8.63143C18.8113 8.67987 18.8912 8.76677 18.9355 8.8964C19.0483 9.21693 19.3224 9.38503 19.6565 9.34229C19.9307 9.30668 20.1406 9.13573 20.1634 8.8964C20.1806 8.71121 20.2591 8.62004 20.4419 8.58442C20.6332 8.54596 20.656 8.49895 20.6546 8.30236L20.656 8.30093Z" fill="#E6E6E6" stroke="#1D1D1B" stroke-width="0.407059" stroke-miterlimit="10"/>
<path d="M53.7495 9C53.0192 7.46324 52.2522 6.11352 51.512 4.55444C50.7718 6.11352 50.0429 7.43952 49.3013 9C47.8633 5.93347 46.4366 3.09584 45 0.0307072H45.226C45.8645 0.0307072 46.5044 0.0307072 47.1429 0.0307072C47.1839 0.0307072 47.2234 0.0334988 47.2644 0.0307072C47.4692 0.0181452 47.5963 0.0949132 47.6754 0.297302C47.9071 0.890509 48.1557 1.47674 48.3987 2.06576C48.6925 2.77761 48.9877 3.48806 49.2815 4.19991C49.3112 4.27249 49.3451 4.34367 49.3945 4.45394C49.4652 4.31855 49.5245 4.21107 49.5754 4.10081C49.9214 3.35406 50.2647 2.60592 50.6094 1.85779C50.8255 1.38741 51.0388 0.915633 51.2606 0.44665C51.2606 0.44665 51.4159 0.170285 51.5134 0C51.6038 0.156328 51.6829 0.276365 51.7451 0.403381C52.3497 1.67494 52.9528 2.9465 53.556 4.21945C53.5829 4.27668 53.6139 4.3339 53.6605 4.42742L53.7764 4.18735C54.2962 2.90881 54.8302 1.63167 55.3486 0.353133C55.3585 0.328009 55.3726 0.305676 55.3797 0.279156C55.4291 0.096309 55.5576 0.0307072 55.7399 0.0307072C56.4928 0.032103 57.2457 0.0307072 58 0.0307072C57.9845 0.173077 53.9205 8.75434 53.7524 8.99861L53.7495 9Z" fill="#E6E6E6" stroke="#1D1D1B" stroke-width="0.407059" stroke-miterlimit="10"/>
<path d="M69.1972 5.9994V8.95192H67.0368C66.9897 5.97838 66.9925 3.00063 67.0188 0.0130787C67.0937 0.00747355 67.1435 0.00186839 67.1948 0.00186839C68.4225 0.00186839 69.6489 -0.00233549 70.8766 0.00186839C71.5653 0.00467097 72.2055 0.17703 72.7556 0.614233C73.4623 1.17615 73.8129 1.92304 73.8573 2.82407C73.8808 3.32293 73.8199 3.80778 73.6078 4.2646C73.375 4.76766 73.0231 5.16283 72.5464 5.44168C72.4397 5.50474 72.3344 5.5692 72.218 5.63927C72.8125 6.74769 73.4 7.8435 74 8.96453C73.8794 8.97014 73.7894 8.97855 73.6993 8.97995C73.1589 8.98695 72.6171 8.98555 72.0766 8.99957C71.7912 9.00797 71.6083 8.89447 71.4863 8.63103C71.1344 7.87153 70.7699 7.12043 70.4096 6.36514C70.3805 6.30488 70.3501 6.24603 70.3237 6.18577C70.2641 6.04844 70.1658 5.98959 70.012 5.9952C69.7431 6.005 69.4757 5.998 69.1972 5.998V5.9994ZM69.2124 1.80954C69.2013 1.8768 69.1847 1.93425 69.1847 1.9917C69.1833 2.66432 69.1819 3.33694 69.1847 4.00956C69.1847 4.18473 69.2082 4.20855 69.3787 4.20434C69.8055 4.19173 70.235 4.18753 70.6605 4.15109C71.2411 4.10065 71.478 3.78816 71.5626 3.33554C71.593 3.17439 71.6027 3.00344 71.5903 2.84089C71.5501 2.3168 71.2522 1.9917 70.7408 1.8824C70.2392 1.7745 69.7334 1.81654 69.2124 1.81234V1.80954Z" fill="#E6E6E6" stroke="#1D1D1B" stroke-width="0.407059" stroke-miterlimit="10"/>
<path d="M36.8368 14.0127C36.7414 14.1367 36.675 14.2245 36.6058 14.3096C35.7497 15.3689 34.8935 16.4281 34.0373 17.4874C34.0249 17.5028 34.0111 17.5181 34 17.5334C33.8465 17.73 33.8423 17.7746 33.9751 17.9934C34.4661 18.8004 34.9613 19.6074 35.4537 20.413C35.888 21.1239 36.3223 21.8347 36.7552 22.5469C36.8368 22.6807 36.9101 22.8201 37 22.9776L34.7898 22.9999C34.61 23.0027 34.5007 22.9372 34.4108 22.7797C33.7732 21.6744 33.1286 20.5747 32.4855 19.4722C32.4357 19.3872 32.3845 19.305 32.3209 19.2004C32.2573 19.2631 32.2033 19.3091 32.1577 19.3621C31.888 19.6799 31.621 19.9991 31.3527 20.3182C31.2365 20.4562 31.1853 20.6137 31.1853 20.7935C31.1867 21.4444 31.1853 22.0939 31.1853 22.7448C31.1853 22.8104 31.1853 22.8759 31.1853 22.9665L29 22.9762V14.0698C29.249 14.0057 30.9004 13.9904 31.1646 14.0531V17.8206C31.177 17.8275 31.1895 17.8359 31.2019 17.8429C31.2614 17.7899 31.3319 17.7439 31.3804 17.6812C32.2241 16.5954 33.065 15.5082 33.9073 14.4197C33.9391 14.3779 33.9737 14.3374 34.0028 14.2928C34.1438 14.081 34.3375 13.996 34.5906 14.0001C35.1245 14.0113 35.657 14.0071 36.1909 14.0099C36.3887 14.0099 36.5851 14.0099 36.8368 14.0099V14.0127Z" fill="#E6E6E6" stroke="#1D1D1B" stroke-width="0.407059" stroke-miterlimit="10"/>
<path d="M64.2756 3.46818V5.29137C63.781 5.31542 63.2824 5.29986 62.785 5.30127C62.2919 5.30269 61.7974 5.30127 61.307 5.30127C61.264 5.45545 61.2516 6.74257 61.289 7.06789H64.9585C65.0028 7.22065 65.0153 8.65205 64.9779 9H59.0366C58.9936 5.99859 58.9839 3.00566 59.0324 0H64.7909V1.78784H61.2557V3.46818H64.277H64.2756Z" fill="#E6E6E6" stroke="#1D1D1B" stroke-width="0.407059" stroke-miterlimit="10"/>
<path d="M31.3355 6.12722V9H29V0.0358589C29.0634 0.026059 29.1356 0.00645912 29.2078 0.00645912C30.4499 0.00505913 31.6921 -0.00894078 32.9343 0.0092591C34.4476 0.030259 35.5056 0.962653 35.8298 2.00145C36.1981 3.18024 35.9771 4.25543 35.0842 5.17103C34.6333 5.63302 34.0453 5.85982 33.4029 5.95922C32.8429 6.04602 31.9043 6.11882 31.3355 6.12722ZM31.3547 1.85585V4.18963C31.8041 4.18963 32.2447 4.23443 32.6779 4.14623C33.1111 4.05663 33.3985 3.81023 33.5119 3.39724C33.5311 3.32724 33.5473 3.25584 33.562 3.18444C33.6681 2.68184 33.4132 2.05185 32.6882 1.88105C32.2491 1.81945 31.8159 1.80965 31.3532 1.85585H31.3547Z" fill="#E6E6E6" stroke="#1D1D1B" stroke-width="0.407059" stroke-miterlimit="10"/>
<path d="M49.5981 15.791V23H47.3591V15.8274C47.2541 15.819 47.1657 15.805 47.0773 15.8036C46.453 15.8022 45.8287 15.8036 45.203 15.8036C45.1381 15.8036 45.0746 15.8036 45 15.8036V14.0378C45.2376 14.0266 45.4765 14.0084 45.7168 14.007C46.5981 14.0014 47.4793 14 48.3605 14C49.366 14 50.3729 14 51.3785 14.0042C51.5815 14.0042 51.7845 14.0182 52 14.0252V15.7896H49.5981V15.791Z" fill="#E6E6E6" stroke="#1D1D1B" stroke-width="0.407059" stroke-miterlimit="10"/>
<path d="M41.9676 14.0261C41.9887 17.0221 42.0246 20.0068 41.975 23H40.0366C39.9995 20.0166 39.9846 17.0388 40.0205 14.0652C40.2334 14.0009 41.4799 13.9772 41.9676 14.0261Z" fill="#E6E6E6" stroke="#1D1D1B" stroke-width="0.407059" stroke-miterlimit="10"/>
<path d="M4 2.58109C4.28562 1.70945 4.56198 0.867025 4.84628 0C5.90149 0.465796 6.94479 0.926979 8 1.39431C7.71438 2.26441 7.43405 3.11914 7.14579 4C6.09587 3.52652 5.05521 3.05765 4 2.58109ZM5.62909 2.45503C5.75471 2.11068 5.84463 1.80015 5.97818 1.47425C5.73355 1.36357 5.54975 1.26057 5.31174 1.18063C5.13851 1.12221 5.03008 1.14066 4.92826 1.38355C4.87405 1.51422 4.83306 1.65257 4.79339 1.79093C4.73917 1.98002 4.76694 2.05227 4.92826 2.13067C5.15306 2.23982 5.3805 2.34128 5.62909 2.45503ZM6.77289 3.00231C6.8919 2.99769 6.9686 2.81476 6.9686 2.81476C7.04793 2.65796 7.10612 2.48117 7.17488 2.31822C7.23835 2.16603 7.21719 2.10454 7.07967 2.02613C6.89983 1.92467 6.51636 1.77095 6.33388 1.67563L6.28364 1.80477L5.9914 2.63336L6.14744 2.71791C6.31934 2.81937 6.55471 2.92852 6.61289 2.95158C6.61289 2.95158 6.75306 2.99923 6.77421 3.00384L6.77289 3.00231Z" fill="#E6E6E6" stroke="#1D1D1B" stroke-width="0.407059" stroke-miterlimit="10"/>
<path d="M37 4.58525C37 1.49648 39.069 0 41.5 0C43.931 0 46 1.5148 46 4.58525C46 7.65571 43.931 9 41.5 9C39.069 9 37 7.56834 37 4.58525ZM43.9879 4.69375C43.9879 3.07468 43.1531 2.01503 41.5 2.01503C39.8469 2.01503 39.0121 3.07468 39.0121 4.69375C39.0121 6.31282 39.7512 7.18647 41.4028 7.18647C43.0544 7.18647 43.9864 6.31282 43.9864 4.69375H43.9879Z" fill="#E6E6E6" stroke="#1D1D1B" stroke-width="0.407059" stroke-miterlimit="10"/>
</g>
<defs>
<clipPath id="clip0_133_1918">
<rect width="74" height="24" fill="white"/>
</clipPath>
</defs>
</svg>
