<svg width="181" height="59" viewBox="0 0 181 59" fill="none" xmlns="http://www.w3.org/2000/svg">
<path d="M5.71547 23.6382C5.41549 23.4616 5.15693 23.3193 4.90841 23.1617C3.58298 22.3205 3.03197 20.9417 3.47629 19.4168C4.43522 16.118 5.42427 12.8268 6.40203 9.5331C6.57148 8.96 6.74845 8.38944 6.92292 7.81889C6.96183 7.69181 6.99823 7.5622 7.05471 7.44402C7.21788 7.10092 7.3823 7.00816 7.76763 7.06153C7.94335 7.08568 8.11907 7.14286 8.286 7.20639C11.5619 8.46569 14.8379 9.72625 18.1125 10.9906C18.3108 11.0669 18.5066 11.1596 18.6849 11.2753C18.956 11.4506 19.0175 11.6374 18.9347 11.9589C18.8983 12.1025 18.8468 12.2448 18.7853 12.3808C17.1059 16.0431 15.4303 19.7078 13.7421 23.3663C13.0279 24.9153 11.5456 25.5786 9.83736 25.1402C9.68047 25.0995 9.52358 25.0589 9.32777 25.0093C9.23489 25.1847 9.13197 25.3512 9.0529 25.5291C7.75759 28.4555 6.46353 31.382 5.17325 34.3111C5.06279 34.5614 4.92598 34.8156 5.02012 35.1294C5.40419 35.1599 5.65648 34.9439 5.91127 34.7457C7.08609 33.8333 8.25588 32.9158 9.42819 31.9996C10.1574 31.4303 10.8854 30.8572 11.6184 30.2943C12.0816 29.9385 12.5799 29.6704 13.1811 29.6246C14.1224 29.5522 14.8416 30.077 14.9445 31.0339C15.055 32.0593 15.0864 33.0924 15.1504 34.123C15.2483 35.7013 15.3412 37.2808 15.4428 38.859C15.4554 39.056 15.5018 39.2517 15.537 39.4791C15.7504 39.3864 15.7729 39.1958 15.837 39.0445C16.5499 37.3837 17.2728 35.7267 17.9682 34.0569C19.0413 31.4824 20.6793 29.326 22.6361 27.3792C25.3171 24.712 28.539 23.0448 32.1011 21.9723C32.8053 21.7601 33.5031 21.5326 34.2374 21.3013C34.2374 20.9087 34.255 20.5287 34.2349 20.1501C34.0704 16.9847 34.7445 14.0366 36.4464 11.3528C37.1619 10.2231 37.4129 8.97017 37.4731 7.65242C37.5485 6.00556 37.6577 4.35996 37.7543 2.71436C37.7819 2.24928 37.8183 1.78419 37.8472 1.3191C37.8735 0.904844 38.048 0.555393 38.3003 0.221191C38.771 0.437216 39.0207 0.842579 39.2379 1.27336C40.0374 2.85669 40.8332 4.44256 41.6314 6.02716C41.713 6.18981 41.7959 6.35374 41.89 6.50876C42.2126 7.03993 42.4987 7.16319 43.0874 7.02468C43.6623 6.88998 44.2308 6.72987 44.8095 6.61678C45.8826 6.40711 46.9658 6.41473 48.0503 6.51639C48.4757 6.55578 48.9012 6.59772 49.3267 6.62821C50.0484 6.68031 50.7702 6.72733 51.4919 6.77053C52.0768 6.80611 52.5023 6.53164 52.8047 6.04622C52.9453 5.8213 53.0633 5.58367 53.1863 5.34859C53.7825 4.22018 54.3737 3.08796 54.9749 1.96082C55.256 1.43474 55.5811 0.939154 56.0631 0.517272C56.338 0.822247 56.5124 1.15645 56.5488 1.54021C56.6543 2.64956 56.7773 3.7589 56.825 4.87206C56.9354 7.4059 57.4525 9.84697 58.3663 12.2042C58.8219 13.3796 59.3252 14.5372 59.7394 15.7266C60.4034 17.6327 60.6695 19.6087 60.4862 21.6254C60.2678 24.0143 59.3754 26.125 57.8015 27.9307C57.573 28.1925 57.3496 28.4606 57.125 28.7249C56.9053 28.9829 56.884 29.2561 57.0522 29.5522C57.258 29.9118 57.4563 30.2752 57.6571 30.6387C58.7378 32.5854 58.8169 34.5881 57.9709 36.6365C57.8065 37.0342 57.6145 37.4218 57.4237 37.8081C56.1246 40.4398 54.8255 43.0702 53.5214 45.6994C52.9277 46.8951 52.6416 48.1671 52.6052 49.4963C52.5838 50.2791 52.6102 51.0631 52.6052 51.8459C52.5989 52.6109 52.9252 53.184 53.5403 53.6135C54.1352 54.029 54.7326 54.4433 55.3088 54.8855C56.2614 55.6174 56.7446 56.5971 56.7258 57.817C56.7246 57.9327 56.7195 58.0509 56.6969 58.1652C56.5928 58.7053 56.2966 58.9899 55.7481 58.9937C54.3159 59.0014 52.8826 59.0039 51.4517 58.9645C50.7852 58.9467 50.2581 58.582 49.9317 57.9962C49.6669 57.521 49.4485 57.0152 49.2439 56.5095C48.8134 55.4446 48.3289 54.4115 47.6323 53.4927C47.2859 53.0353 46.8717 52.6757 46.3395 52.4469C45.8663 52.2436 45.8211 52.1267 45.8789 51.593C45.9404 51.0313 46.042 50.4697 46.0558 49.9067C46.1098 47.6817 45.4584 45.6752 44.1329 43.9025C43.11 42.5352 41.8775 41.3878 40.4353 40.4856C38.653 39.3711 36.6962 38.9022 34.6114 38.9619C34.0202 38.9785 33.4303 39.0318 32.8417 39.0801C32.6986 39.0916 32.5593 39.1538 32.386 39.2021C32.548 39.427 32.7714 39.4232 32.9634 39.4677C34.1771 39.7447 35.3946 40.0103 36.5556 40.4767C38.1396 41.112 39.5881 41.9748 40.6211 43.3676C42.5439 45.9586 42.977 48.7936 41.7821 51.8395C41.6791 52.1026 41.5524 52.3554 41.4633 52.6223C41.3315 53.0149 41.4105 53.1649 41.8021 53.2869C42.0369 53.3593 42.2778 53.4063 42.5176 53.4648C44.4856 53.9439 45.8914 55.958 45.6818 57.9975C45.6429 58.3736 45.5412 58.4753 45.1433 58.4867C44.699 58.5007 44.2547 58.5007 43.8104 58.502C34.8537 58.5261 25.8957 58.5515 16.939 58.5706C16.5951 58.5706 16.2512 58.5274 15.9085 58.4943C15.4742 58.4511 15.1843 58.2021 15.0186 57.8043C14.9295 57.5909 14.8454 57.3723 14.7889 57.1474C14.2329 54.9249 13.6392 52.71 13.1484 50.4722C12.8171 48.9651 12.6062 47.4288 12.3878 45.8989C12.1393 44.1541 11.9397 42.4018 11.7264 40.652C11.6071 39.6774 11.5029 38.7014 11.3912 37.7268C11.3686 37.5286 11.3473 37.3303 11.3059 37.1359C11.2117 36.6848 10.957 36.5247 10.5553 36.7382C10.1085 36.9771 9.67043 37.2554 9.28133 37.5794C7.51409 39.0484 5.76567 40.5415 4.00722 42.0206C3.52147 42.4298 2.98553 42.7411 2.33662 42.8097C1.71532 42.8745 1.16306 42.7081 0.688613 42.304C0.0384476 41.7487 -0.136018 41.032 0.108736 40.2289C0.676061 38.3711 1.22833 36.5069 1.85841 34.6707C3.04829 31.2029 4.28962 27.7528 5.50837 24.2939C5.57991 24.0919 5.6389 23.886 5.71798 23.6369L5.71547 23.6382ZM42.062 17.6111C41.7833 16.9097 41.6239 16.2349 41.5323 15.5411C41.3365 14.0518 40.1855 12.7417 38.7546 12.3681C38.3153 12.2537 38.1258 12.33 37.9162 12.7392C37.8183 12.9298 37.7342 13.1318 37.679 13.3389C37.5108 13.9705 37.4807 14.6097 37.5346 15.2654C37.7317 17.6696 39.4073 19.211 41.7758 19.3686C43.4727 19.4816 44.8798 18.8082 46.1085 17.6823C46.529 17.2973 46.5077 17.0647 46.0244 16.7496C45.3341 16.2997 44.635 15.8626 43.9371 15.4267C43.8166 15.3518 43.6798 15.3022 43.5267 15.2298C43.0334 16.0316 42.559 16.8029 42.0607 17.6124L42.062 17.6111ZM50.6835 15.1713C49.8238 15.7152 48.9866 16.2337 48.162 16.7699C47.6963 17.0723 47.6825 17.3583 48.1331 17.6963C48.5937 18.0419 49.0719 18.3685 49.564 18.6646C50.3836 19.1576 51.276 19.4016 52.2362 19.3724C55.7342 19.2656 57.3233 16.282 56.5451 13.3199C56.4271 12.8688 56.1585 12.5244 55.7581 12.2703C54.9962 12.7392 54.2394 13.203 53.485 13.6706C53.2666 13.8066 53.1311 13.9997 53.0683 14.2589C52.8437 15.1764 52.6077 16.0913 52.3717 17.0063C52.324 17.1931 52.2588 17.376 52.1822 17.6238C51.6626 16.7737 51.1806 15.9859 50.6823 15.1713H50.6835ZM6.8087 19.9683C7.07353 20.1272 7.23545 19.9747 7.40238 19.8946C9.7131 18.7866 12.0226 17.6747 14.3333 16.5641C14.4299 16.517 14.5241 16.4649 14.6973 16.376C13.5212 15.8575 12.4179 15.3721 11.277 14.8689C11.4603 14.6376 11.6096 14.4445 11.764 14.2551C12.3627 13.5245 12.9639 12.7963 13.5626 12.0644C13.6831 11.917 13.8538 11.7759 13.6656 11.5091C13.5099 11.5764 13.3455 11.6374 13.1911 11.7162C12.8397 11.8941 12.492 12.0809 12.1418 12.2614C10.4499 13.1394 8.75668 14.0175 7.06349 14.8956C6.88903 14.9858 6.68821 15.0582 6.7723 15.3734C7.70989 15.7177 8.67133 16.071 9.69553 16.4471C8.72154 17.6365 7.78144 18.784 6.80995 19.9683H6.8087ZM50.0233 20.4106C50.0196 19.9264 49.8677 19.732 49.3506 19.5757C47.9888 19.1627 46.6357 19.2415 45.2927 19.6672C44.8672 19.8019 44.7065 20.0268 44.6953 20.4639C44.6827 20.915 44.7555 21.0421 45.2375 21.2225C45.56 21.3433 45.7508 21.5555 45.8613 21.8719C46.1336 22.6585 46.7976 23.0715 47.6084 22.9673C48.2712 22.8809 48.7795 22.4602 48.8347 21.8706C48.8761 21.4157 49.0669 21.1921 49.51 21.1031C49.9744 21.0091 50.0284 20.8934 50.0246 20.4106H50.0233Z" fill="white"/>
<path d="M130.22 23.0091C128.433 19.155 126.659 15.3288 124.847 11.4201C123.033 15.3288 121.249 19.1728 119.434 23.0854C115.915 15.3936 112.423 7.76162 108.906 0.0749731H109.46C111.024 0.0749731 112.588 0.0749731 114.151 0.0749731C114.251 0.0749731 114.35 0.080056 114.448 0.0749731C114.951 0.0419341 115.261 0.237627 115.453 0.744648C116.018 2.23267 116.629 3.70291 117.225 5.1795C117.945 6.9636 118.665 8.74771 119.387 10.5305C119.461 10.7135 119.544 10.8927 119.664 11.1684C119.835 10.8279 119.982 10.5598 120.107 10.2827C120.953 8.40842 121.795 6.53282 122.638 4.65723C123.167 3.47799 123.689 2.29367 124.23 1.11951C124.395 0.761167 124.609 0.428236 124.848 0C125.069 0.392656 125.265 0.692548 125.414 1.01277C126.895 4.20103 128.369 7.39184 129.845 10.5826C129.911 10.7275 129.985 10.8698 130.102 11.1036C130.244 10.8444 130.355 10.683 130.426 10.5051C131.697 7.29907 132.964 4.09048 134.231 0.881887C134.255 0.819621 134.29 0.761167 134.307 0.697631C134.428 0.237627 134.743 0.0737023 135.188 0.0749731C137.032 0.0787853 138.874 0.0762438 140.719 0.0762438C140.68 0.433319 130.63 22.3928 130.219 23.0078L130.22 23.0091Z" fill="white"/>
<path d="M168.631 15.0568V22.4334H163.24C163.123 15.006 163.129 7.5684 163.196 0.105402C163.383 0.0926945 163.508 0.076175 163.634 0.076175C166.697 0.0749043 169.758 0.0672799 172.82 0.0787165C174.539 0.0850701 176.136 0.515848 177.51 1.6074C179.273 3.00902 180.148 4.87572 180.257 7.12619C180.317 8.37404 180.165 9.58378 179.636 10.7262C179.053 11.9829 178.176 12.969 176.986 13.6654C176.72 13.8217 176.457 13.9843 176.165 14.1597C177.648 16.9299 179.114 19.6683 180.612 22.4677C180.311 22.483 180.086 22.502 179.862 22.5058C178.512 22.5224 177.162 22.5185 175.813 22.5554C175.101 22.5757 174.645 22.2936 174.34 21.6354C173.463 19.7395 172.553 17.86 171.654 15.9743C171.583 15.8243 171.506 15.6769 171.441 15.5257C171.292 15.1813 171.046 15.0365 170.664 15.0492C169.995 15.0721 169.325 15.0555 168.629 15.0555L168.631 15.0568ZM168.67 4.58854C168.643 4.75627 168.601 4.8986 168.601 5.04219C168.596 6.72209 168.594 8.40327 168.601 10.0832C168.602 10.519 168.66 10.5813 169.085 10.5686C170.152 10.5356 171.221 10.5279 172.283 10.4352C173.733 10.3094 174.322 9.52914 174.532 8.39692C174.608 7.99409 174.633 7.5684 174.601 7.15923C174.5 5.85037 173.758 5.03965 172.484 4.76517C171.233 4.49705 169.97 4.59997 168.671 4.58854H168.67Z" fill="white"/>
<path d="M90.3435 35.4546C90.1038 35.7659 89.9394 35.9857 89.7674 36.2005C87.6274 38.8614 85.4874 41.521 83.3473 44.1807C83.316 44.2188 83.2833 44.2569 83.2532 44.2963C82.8704 44.7919 82.8578 44.9012 83.1904 45.4514C84.4192 47.4795 85.6543 49.5038 86.8856 51.5293C87.9713 53.3147 89.057 55.1 90.1377 56.8867C90.341 57.2234 90.5243 57.5716 90.7489 57.9706C90.5255 57.9859 90.3686 58.0049 90.2105 58.0062C88.5474 58.0126 86.8843 58.0062 85.2213 58.0291C84.7732 58.0354 84.4996 57.8702 84.2736 57.4763C82.6796 54.701 81.068 51.9372 79.4614 49.1708C79.3384 48.9586 79.2079 48.7502 79.0497 48.4884C78.8891 48.6473 78.7548 48.7604 78.643 48.8938C77.9703 49.6918 77.3026 50.4949 76.6323 51.2942C76.3424 51.6398 76.2131 52.035 76.2143 52.4887C76.2194 54.1216 76.2143 55.7557 76.2143 57.3886C76.2143 57.5526 76.2143 57.7165 76.2143 57.9452C74.3756 58.0189 72.5744 58.0202 70.752 57.9719V35.6045C71.3732 35.4431 75.5027 35.4037 76.1629 35.5626V45.0244C76.1943 45.0435 76.2256 45.0613 76.257 45.0803C76.4064 44.9456 76.5821 44.8313 76.7038 44.6737C78.8137 41.9467 80.9174 39.2146 83.021 36.4838C83.1013 36.3784 83.1867 36.2767 83.2607 36.1662C83.6122 35.635 84.0979 35.419 84.7292 35.4317C86.0622 35.4584 87.3964 35.4507 88.7306 35.4558C89.2239 35.4584 89.7172 35.4558 90.346 35.4558L90.3435 35.4546Z" fill="white"/>
<path d="M157.483 8.76049V13.2741C156.247 13.3338 155.005 13.2945 153.764 13.2983C152.531 13.3034 151.299 13.2983 150.075 13.2983C149.966 13.6808 149.936 16.8652 150.029 17.6709H159.187C159.297 18.0495 159.328 21.5923 159.235 22.4526H144.404C144.295 15.0239 144.273 7.61556 144.396 0.177979H158.768V4.60012H149.945V8.76049H157.484H157.483Z" fill="white"/>
<path d="M76.3559 15.3846V22.3978C74.5134 22.5465 72.7123 22.4918 70.876 22.4664V0.154919C71.0241 0.132046 71.1935 0.0824873 71.363 0.0824873C74.2774 0.0774044 77.1931 0.0443654 80.1063 0.088841C83.6571 0.142212 86.141 2.47273 86.9017 5.0701C87.7639 8.0182 87.2481 10.7071 85.152 12.9969C84.0952 14.152 82.7158 14.7188 81.2071 14.9665C79.8917 15.1826 78.5637 15.2842 77.2295 15.302C76.9521 15.3058 76.676 15.3529 76.3559 15.3846ZM76.4011 4.70286V10.5419C77.4554 10.5393 78.4884 10.655 79.5076 10.4313C80.523 10.2089 81.197 9.59263 81.4656 8.55699C81.5108 8.38035 81.5485 8.20245 81.5836 8.02328C81.8334 6.7678 81.2334 5.18955 79.534 4.76513C78.5098 4.50844 77.4868 4.58723 76.4011 4.70286Z" fill="white"/>
<path d="M104.832 5.16045C105.309 5.38791 105.733 5.55946 106.127 5.78311C107.146 6.36256 107.971 7.16948 108.688 8.09711C110.007 9.80497 110.914 11.7073 111.248 13.8573C111.826 17.5844 110.853 20.8463 108.277 23.5899C106.529 25.4527 104.37 26.5125 101.871 26.9128C99.0219 27.369 96.3397 26.9598 93.8959 25.3524C90.871 23.3624 89.149 20.5325 88.7411 16.9084C88.2465 12.5192 89.8807 9.04253 93.2696 6.35875C93.6913 6.02455 94.1984 5.79963 94.6741 5.53913C94.8549 5.44001 95.0569 5.3841 95.2954 5.29007C95.3155 5.46543 95.3406 5.59123 95.3419 5.7183C95.3544 6.65102 95.3607 7.585 95.3695 8.51772C95.3795 9.49237 95.0871 10.3615 94.4206 11.0668C92.2881 13.3236 92.1839 17.0354 93.9248 19.5566C94.9314 21.0141 96.1928 22.1501 97.9099 22.6571C101.151 23.614 106.058 22.2467 107.133 17.1104C107.662 14.5791 107.062 12.4023 105.27 10.5623C104.968 10.251 104.781 9.899 104.781 9.45679C104.781 8.12379 104.777 6.7908 104.778 5.4578C104.778 5.39554 104.799 5.33327 104.831 5.15918L104.832 5.16045Z" fill="white"/>
<path d="M121.52 39.944V57.963C119.631 58.0151 117.796 58.1155 115.914 57.963V40.0342C115.653 40.0114 115.432 39.9771 115.21 39.9758C113.646 39.972 112.082 39.9745 110.519 39.9758C110.357 39.9758 110.197 39.9758 110.011 39.9758V35.5625C110.604 35.5359 111.204 35.4888 111.804 35.485C114.01 35.471 116.215 35.4685 118.421 35.4685C120.939 35.4685 123.458 35.471 125.976 35.4799C126.485 35.4812 126.993 35.5143 127.533 35.5346V39.9466H121.52V39.944Z" fill="white"/>
<path d="M102.673 35.5105C102.733 43.0129 102.831 50.4861 102.693 57.9796H97.2782C97.1765 50.5089 97.1338 43.0523 97.233 35.6071C97.8267 35.447 101.31 35.386 102.673 35.5105Z" fill="white"/>
<path d="M98.4697 10.1151C98.4697 8.06669 98.4697 6.01955 98.4697 3.97113C98.4697 3.5645 98.5337 3.17565 98.7797 2.83891C99.1776 2.29377 99.7186 2.05233 100.371 2.17559C100.981 2.29122 101.324 2.73471 101.485 3.3167C101.55 3.55306 101.577 3.80848 101.577 4.05627C101.582 8.05272 101.585 12.0479 101.571 16.0443C101.571 16.4027 101.502 16.7775 101.385 17.1156C101.168 17.742 100.528 18.1296 99.9182 18.0699C99.1889 18 98.6505 17.5133 98.5287 16.8042C98.4948 16.6085 98.4798 16.4078 98.4798 16.2095C98.476 14.1776 98.4773 12.147 98.4773 10.1151C98.4747 10.1151 98.4722 10.1151 98.4697 10.1151Z" fill="white"/>
<path d="M9.69727 5.89124C10.4441 3.90636 11.167 1.98755 11.9101 0.0153809C14.6689 1.07771 17.3976 2.12733 20.1576 3.18966C19.4121 5.16946 18.6791 7.11622 17.9235 9.12143C15.1772 8.04258 12.4573 6.97517 9.69727 5.89124ZM13.9585 5.60532C14.3087 4.85813 14.6363 4.15796 14.9827 3.4184C14.3426 3.16679 13.7489 2.88596 13.1276 2.70297C12.6745 2.57082 12.3908 2.61148 12.1247 3.16425C11.9816 3.4616 11.8749 3.77674 11.7708 4.09188C11.6302 4.52139 11.7005 4.68531 12.1235 4.86449C12.7096 5.11355 13.3046 5.34228 13.9572 5.60405L13.9585 5.60532ZM16.7424 6.77312C17.0537 6.76296 17.2721 6.62445 17.4126 6.38174C17.6185 6.02466 17.8206 5.66251 18 5.29145C18.167 4.94581 18.1092 4.80476 17.749 4.62686C17.2783 4.39559 16.8026 4.17702 16.3257 3.95973C16.037 3.82757 15.9567 3.84536 15.8224 4.12365C15.5939 4.60018 15.3868 5.08814 15.1735 5.57228C15.0705 5.8061 15.1258 6.00687 15.3442 6.12759C15.732 6.34108 16.1286 6.53677 16.5253 6.73119C16.5955 6.7655 16.6847 6.76296 16.7411 6.77312H16.7424Z" fill="white"/>
</svg>
