<svg width="24" height="24" viewBox="0 0 24 24" fill="none" xmlns="http://www.w3.org/2000/svg">
<path d="M12 16.1109C11.8326 16.1109 11.6706 16.0795 11.5141 16.0168C11.3567 15.954 11.2257 15.8703 11.1211 15.7656L5.34529 9.98986C5.1151 9.75966 5 9.46669 5 9.11093C5 8.75518 5.1151 8.4622 5.34529 8.23201C5.57549 8.00182 5.86846 7.88672 6.22422 7.88672C6.57997 7.88672 6.87294 8.00182 7.10314 8.23201L12 13.1289L16.8969 8.23201C17.1271 8.00182 17.42 7.88672 17.7758 7.88672C18.1315 7.88672 18.4245 8.00182 18.6547 8.23201C18.8849 8.4622 19 8.75518 19 9.11093C19 9.46669 18.8849 9.75966 18.6547 9.98986L12.8789 15.7656C12.7534 15.8912 12.6173 15.9799 12.4709 16.0318C12.3244 16.0846 12.1674 16.1109 12 16.1109Z" fill="white"/>
</svg>
