<svg width="91" height="91" viewBox="0 0 91 91" fill="none" xmlns="http://www.w3.org/2000/svg">
<path d="M45.5149 0C26.519 0 20.9635 0.0196017 19.8836 0.109209C15.9853 0.433337 13.5596 1.04729 10.9169 2.3634C8.88024 3.37499 7.27404 4.54758 5.68884 6.19132C2.80188 9.18898 1.05221 12.8769 0.418832 17.2607C0.11089 19.3888 0.0213071 19.8229 0.00311053 30.6934C-0.00388816 34.3169 0.00311053 39.0857 0.00311053 45.4822C0.00311053 64.4678 0.0241066 70.0192 0.115089 71.0973C0.43003 74.8916 1.02492 77.2788 2.28468 79.8901C4.69223 84.8885 9.29037 88.6408 14.7073 90.0409C16.583 90.524 18.6546 90.79 21.3141 90.916C22.4409 90.965 33.9257 91 45.4176 91C56.9094 91 68.4013 90.986 69.5 90.93C72.5795 90.7851 74.3676 90.545 76.3448 90.0339C79.0307 89.3449 81.5339 88.0777 83.6796 86.3209C85.8253 84.564 87.5616 82.3597 88.7674 79.8621C90.0027 77.3138 90.6291 74.8356 90.9125 71.2394C90.9741 70.4554 91 57.9544 91 45.4702C91 32.984 90.972 20.5061 90.9104 19.7221C90.6235 16.0678 89.9971 13.6106 88.7219 11.0133C87.6756 8.88725 86.5139 7.29952 84.8272 5.67608C81.8177 2.80024 78.1364 1.05009 73.7489 0.417235C71.6234 0.109909 71.2 0.0189016 60.3241 0H45.5149Z" fill="url(#paint0_radial_29_865)"/>
<path d="M45.5149 0C26.519 0 20.9635 0.0196017 19.8836 0.109209C15.9853 0.433337 13.5596 1.04729 10.9169 2.3634C8.88024 3.37499 7.27404 4.54758 5.68884 6.19132C2.80188 9.18898 1.05221 12.8769 0.418832 17.2607C0.11089 19.3888 0.0213071 19.8229 0.00311053 30.6934C-0.00388816 34.3169 0.00311053 39.0857 0.00311053 45.4822C0.00311053 64.4678 0.0241066 70.0192 0.115089 71.0973C0.43003 74.8916 1.02492 77.2788 2.28468 79.8901C4.69223 84.8885 9.29036 88.6408 14.7073 90.0409C16.583 90.524 18.6546 90.79 21.3141 90.916C22.4409 90.965 33.9257 91 45.4176 91C56.9094 91 68.4013 90.986 69.5 90.93C72.5795 90.7851 74.3676 90.545 76.3448 90.0339C79.0307 89.3449 81.5339 88.0778 83.6796 86.3209C85.8253 84.564 87.5616 82.3597 88.7674 79.8621C90.0027 77.3138 90.6291 74.8356 90.9125 71.2394C90.9741 70.4554 91 57.9544 91 45.4702C91 32.984 90.972 20.5061 90.9104 19.7221C90.6235 16.0678 89.9971 13.6106 88.7219 11.0133C87.6756 8.88725 86.5138 7.29952 84.8272 5.67608C81.8177 2.80024 78.1364 1.05009 73.7489 0.417235C71.6234 0.109909 71.2 0.0189016 60.3241 0H45.5149Z" fill="url(#paint1_radial_29_865)"/>
<path d="M45.5024 12C36.4043 12 35.2625 12.0398 31.6891 12.2024C28.1227 12.3657 25.6884 12.9303 23.5583 13.7588C21.355 14.6144 19.4859 15.759 17.6239 17.6217C15.7604 19.4838 14.6158 21.3528 13.7574 23.5554C12.9268 25.6861 12.3615 28.1212 12.201 31.6861C12.0419 35.2595 12 36.402 12 45.5C12 54.598 12.0405 55.7363 12.2024 59.3097C12.3664 62.876 12.931 65.3104 13.7588 67.4404C14.6151 69.6437 15.7597 71.5128 17.6225 73.3748C19.4838 75.2382 21.3529 76.3856 23.5548 77.2412C25.6863 78.0697 28.1213 78.6343 31.687 78.7976C35.2604 78.9602 36.4015 79 45.499 79C54.5978 79 55.7361 78.9602 59.3095 78.7976C62.8759 78.6343 65.313 78.0697 67.4445 77.2412C69.6471 76.3856 71.5134 75.2382 73.3747 73.3748C75.2382 71.5128 76.3828 69.6437 77.2412 67.4411C78.0648 65.3104 78.6301 62.8753 78.7976 59.3104C78.9581 55.737 79 54.598 79 45.5C79 36.402 78.9581 35.2602 78.7976 31.6868C78.6301 28.1205 78.0648 25.6861 77.2412 23.5561C76.3828 21.3528 75.2382 19.4838 73.3747 17.6217C71.5113 15.7583 69.6478 14.6137 67.4424 13.7588C65.3067 12.9303 62.871 12.3657 59.3046 12.2024C55.7312 12.0398 54.5936 12 45.4927 12H45.5024ZM42.4972 18.037C43.3891 18.0356 44.3844 18.037 45.5024 18.037C54.447 18.037 55.5072 18.0691 59.0394 18.2296C62.3057 18.379 64.0784 18.9247 65.2593 19.3833C66.8226 19.9904 67.9372 20.7163 69.109 21.8888C70.2815 23.0613 71.0074 24.1779 71.616 25.7413C72.0745 26.9208 72.621 28.6935 72.7696 31.9597C72.9302 35.4912 72.9651 36.552 72.9651 45.4923C72.9651 54.4326 72.9302 55.4935 72.7696 59.0249C72.6203 62.2912 72.0745 64.0639 71.616 65.2434C71.0088 66.8067 70.2815 67.9199 69.109 69.0917C67.9365 70.2642 66.8233 70.99 65.2593 71.5972C64.0798 72.0578 62.3057 72.6022 59.0394 72.7515C55.5079 72.9121 54.447 72.947 45.5024 72.947C36.5572 72.947 35.497 72.9121 31.9655 72.7515C28.6992 72.6008 26.9265 72.055 25.7449 71.5965C24.1816 70.9893 23.0649 70.2635 21.8924 69.091C20.7199 67.9185 19.994 66.8046 19.3854 65.2406C18.9269 64.0611 18.3804 62.2884 18.2318 59.0221C18.0712 55.4907 18.0391 54.4298 18.0391 45.4839C18.0391 36.538 18.0712 35.4828 18.2318 31.9513C18.3811 28.6851 18.9269 26.9124 19.3854 25.7315C19.9926 24.1682 20.7199 23.0515 21.8924 21.879C23.0649 20.7065 24.1816 19.9807 25.7449 19.3721C26.9258 18.9115 28.6992 18.3671 31.9655 18.217C35.0559 18.0775 36.2536 18.0356 42.4972 18.0286V18.037ZM63.3847 23.5994C62.5895 23.5994 61.8122 23.8352 61.1511 24.277C60.49 24.7187 59.9747 25.3467 59.6705 26.0813C59.3663 26.8159 59.2867 27.6243 59.442 28.4042C59.5972 29.184 59.9802 29.9003 60.5425 30.4624C61.1049 31.0246 61.8213 31.4073 62.6012 31.5623C63.3811 31.7173 64.1895 31.6374 64.924 31.333C65.6586 31.0285 66.2863 30.513 66.7279 29.8517C67.1694 29.1905 67.405 28.4131 67.4047 27.618C67.4047 25.3986 65.604 23.598 63.3847 23.598V23.5994ZM45.5024 28.2964C36.0016 28.2964 28.2986 35.9993 28.2986 45.5C28.2986 55.0007 36.0016 62.7002 45.5024 62.7002C55.0033 62.7002 62.7042 55.0007 62.7042 45.5C62.7042 35.9993 55.0026 28.2964 45.5017 28.2964H45.5024ZM45.5024 34.3333C51.6693 34.3333 56.6692 39.3325 56.6692 45.5C56.6692 51.6668 51.6693 56.6667 45.5024 56.6667C39.3349 56.6667 34.3357 51.6668 34.3357 45.5C34.3357 39.3325 39.3349 34.3333 45.5024 34.3333Z" fill="white"/>
<defs>
<radialGradient id="paint0_radial_29_865" cx="0" cy="0" r="1" gradientUnits="userSpaceOnUse" gradientTransform="translate(24.172 98.0089) rotate(-90) scale(90.1877 83.8817)">
<stop stop-color="#FFDD55"/>
<stop offset="0.1" stop-color="#FFDD55"/>
<stop offset="0.5" stop-color="#FF543E"/>
<stop offset="1" stop-color="#C837AB"/>
</radialGradient>
<radialGradient id="paint1_radial_29_865" cx="0" cy="0" r="1" gradientUnits="userSpaceOnUse" gradientTransform="translate(-15.243 6.55549) rotate(78.6806) scale(40.3143 166.177)">
<stop stop-color="#3771C8"/>
<stop offset="0.128" stop-color="#3771C8"/>
<stop offset="1" stop-color="#6600FF" stop-opacity="0"/>
</radialGradient>
</defs>
</svg>
