<svg xmlns="http://www.w3.org/2000/svg" width="91" height="91" fill="none"><path fill="url(#a)" d="M45.515 0C26.519 0 20.963.02 19.884.11c-3.899.323-6.324.937-8.967 2.253C8.88 3.375 7.274 4.548 5.689 6.191 2.802 9.19 1.052 12.877.419 17.261.11 19.389.02 19.823.003 30.693c-.007 3.624 0 8.393 0 14.79 0 18.985.021 24.536.112 25.614.315 3.795.91 6.182 2.17 8.793 2.407 4.998 7.005 8.75 12.422 10.15 1.876.484 3.948.75 6.607.876 1.127.049 12.612.084 24.104.084 11.491 0 22.983-.014 24.082-.07 3.08-.145 4.868-.385 6.845-.896a19.05 19.05 0 0 0 12.422-10.172c1.236-2.548 1.862-5.026 2.145-8.623.062-.784.088-13.285.088-25.769 0-12.486-.028-24.964-.09-25.748-.286-3.654-.913-6.111-2.188-8.709-1.046-2.126-2.208-3.713-3.895-5.337C81.817 2.8 78.137 1.05 73.75.417 71.623.11 71.2.02 60.324 0h-14.81Z"/><path fill="url(#b)" d="M45.515 0C26.519 0 20.963.02 19.884.11c-3.899.323-6.324.937-8.967 2.253C8.88 3.375 7.274 4.548 5.689 6.191 2.802 9.19 1.052 12.877.419 17.261.11 19.389.02 19.823.003 30.693c-.007 3.624 0 8.393 0 14.79 0 18.985.021 24.536.112 25.614.315 3.795.91 6.182 2.17 8.793 2.407 4.998 7.005 8.75 12.422 10.15 1.876.484 3.948.75 6.607.876 1.127.049 12.612.084 24.104.084 11.491 0 22.983-.014 24.082-.07 3.08-.145 4.868-.385 6.845-.896a19.05 19.05 0 0 0 12.422-10.172c1.236-2.548 1.862-5.026 2.145-8.623.062-.784.088-13.285.088-25.769 0-12.486-.028-24.964-.09-25.748-.286-3.654-.913-6.111-2.188-8.709-1.046-2.126-2.208-3.713-3.895-5.337C81.817 2.8 78.137 1.05 73.75.417 71.623.11 71.2.02 60.324 0h-14.81Z"/><path fill="#fff" d="M45.502 12c-9.098 0-10.24.04-13.813.202-3.566.164-6 .728-8.13 1.557-2.204.855-4.073 2-5.935 3.863-1.864 1.862-3.008 3.73-3.867 5.933-.83 2.131-1.396 4.566-1.556 8.131C12.041 35.26 12 36.402 12 45.5c0 9.098.04 10.236.202 13.81.164 3.566.729 6 1.557 8.13.856 2.204 2 4.073 3.863 5.935 1.862 1.863 3.73 3.01 5.933 3.866 2.131.829 4.566 1.393 8.132 1.557 3.573.162 4.714.202 13.812.202 9.099 0 10.237-.04 13.81-.202 3.567-.164 6.004-.728 8.136-1.557 2.202-.855 4.068-2.003 5.93-3.866 1.863-1.862 3.008-3.731 3.866-5.934.824-2.13 1.39-4.566 1.557-8.13.16-3.574.202-4.713.202-13.811 0-9.098-.042-10.24-.202-13.813-.168-3.567-.733-6-1.557-8.13-.858-2.204-2.003-4.073-3.866-5.935-1.864-1.864-3.727-3.008-5.933-3.863-2.135-.829-4.571-1.393-8.137-1.557C55.73 12.04 54.594 12 45.493 12h.01Zm-3.005 6.037h3.005c8.945 0 10.005.032 13.537.193 3.267.149 5.04.695 6.22 1.153 1.564.607 2.678 1.333 3.85 2.506 1.172 1.172 1.898 2.289 2.507 3.852.459 1.18 1.005 2.953 1.154 6.219.16 3.531.195 4.592.195 13.532 0 8.94-.035 10.002-.195 13.533-.15 3.266-.695 5.039-1.154 6.218-.607 1.564-1.335 2.677-2.507 3.849-1.172 1.172-2.286 1.898-3.85 2.505-1.18.46-2.953 1.005-6.22 1.154-3.531.161-4.592.196-13.537.196s-10.005-.035-13.537-.196c-3.266-.15-5.038-.696-6.22-1.154-1.563-.608-2.68-1.334-3.853-2.506-1.172-1.172-1.898-2.286-2.507-3.85-.458-1.18-1.005-2.953-1.153-6.219-.16-3.531-.193-4.592-.193-13.538 0-8.946.032-10.001.193-13.533.15-3.266.695-5.039 1.153-6.22.608-1.563 1.335-2.68 2.507-3.852 1.173-1.173 2.29-1.898 3.853-2.507 1.18-.46 2.954-1.005 6.22-1.155 3.09-.14 4.289-.181 10.532-.188v.008Zm20.888 5.562a4.02 4.02 0 1 0 0 8.043 4.02 4.02 0 0 0 0-8.044v.001Zm-17.883 4.697C36.002 28.296 28.3 36 28.3 45.5c0 9.5 7.703 17.2 17.203 17.2 9.501 0 17.202-7.7 17.202-17.2s-7.701-17.204-17.202-17.204Zm0 6.037c6.167 0 11.167 5 11.167 11.167s-5 11.167-11.167 11.167-11.166-5-11.166-11.167 4.999-11.167 11.166-11.167Z"/><defs><radialGradient id="a" cx="0" cy="0" r="1" gradientTransform="matrix(0 -90.1877 83.8817 0 24.172 98.009)" gradientUnits="userSpaceOnUse"><stop stop-color="#FD5"/><stop offset=".1" stop-color="#FD5"/><stop offset=".5" stop-color="#FF543E"/><stop offset="1" stop-color="#C837AB"/></radialGradient><radialGradient id="b" cx="0" cy="0" r="1" gradientTransform="rotate(78.681 -11.62 -6.02) scale(40.3143 166.177)" gradientUnits="userSpaceOnUse"><stop stop-color="#3771C8"/><stop offset=".128" stop-color="#3771C8"/><stop offset="1" stop-color="#60F" stop-opacity="0"/></radialGradient></defs></svg>