<svg xmlns="http://www.w3.org/2000/svg" width="91" height="91" fill="none"><path fill="#fff" d="M0 31.652c0-11.08 0-16.619 2.156-20.85a19.782 19.782 0 0 1 8.646-8.646C15.033 0 20.572 0 31.652 0h27.696c11.08 0 16.619 0 20.85 2.156a19.783 19.783 0 0 1 8.646 8.646C91 15.033 91 20.572 91 31.652v27.696c0 11.08 0 16.619-2.156 20.85a19.783 19.783 0 0 1-8.645 8.646C75.966 91 70.426 91 59.347 91H31.652c-11.08 0-16.619 0-20.85-2.156a19.783 19.783 0 0 1-8.646-8.645C0 75.966 0 70.426 0 59.347V31.652Z"/><g clip-path="url(#a)"><path fill="url(#b)" d="M45.5 85C67.315 85 85 67.315 85 45.5S67.315 6 45.5 6 6 23.685 6 45.5 23.685 85 45.5 85Z"/><path fill="#fff" fill-rule="evenodd" d="M23.956 45.498c11.543-5.08 19.24-8.43 23.09-10.048 10.997-4.62 13.282-5.423 14.77-5.45.328-.006 1.06.076 1.535.465.4.329.51.772.564 1.084a7.13 7.13 0 0 1 .066 1.574c-.596 6.325-3.174 21.674-4.486 28.758-.555 2.998-1.648 4.003-2.706 4.101-2.3.214-4.045-1.535-6.272-3.01-3.485-2.308-5.454-3.744-8.837-5.996-3.909-2.602-1.375-4.033.853-6.37.583-.612 10.714-9.922 10.91-10.766.025-.106.048-.5-.184-.707-.231-.208-.573-.137-.82-.08-.35.08-5.916 3.797-16.701 11.152-1.58 1.096-3.011 1.63-4.294 1.602-1.414-.031-4.133-.808-6.155-1.472-2.48-.814-4.45-1.244-4.279-2.627.09-.72 1.072-1.457 2.946-2.21Z" clip-rule="evenodd"/></g><defs><linearGradient id="b" x1="45.5" x2="45.5" y1="6" y2="84.414" gradientUnits="userSpaceOnUse"><stop stop-color="#2AABEE"/><stop offset="1" stop-color="#229ED9"/></linearGradient><clipPath id="a"><path fill="#fff" d="M6 6h79v79H6z"/></clipPath></defs></svg>