<svg xmlns="http://www.w3.org/2000/svg" width="322" height="52" fill="none"><g clip-path="url(#a)"><path fill="#007A33" d="M79.07 27.879 85 36.5h-3.693l-5.147-7.528h-3.916V36.5H69v-17h3.244v7.65h3.692l5.147-7.65h3.582l-5.596 8.379ZM99.778 36.5V22.657h-.221L91.223 36.5H87v-17h3.222v13.843h.222L98.778 19.5H103v17h-3.222ZM107 15.5c0 .533-.137 1-.41 1.4-.274.4-.637.6-1.09.6-.454 0-.817-.2-1.09-.6-.273-.4-.41-.867-.41-1.4 0-.533.137-1 .41-1.4.273-.4.636-.6 1.09-.6.44 0 .8.2 1.081.6.279.4.419.867.419 1.4ZM110 19.5h-3v17h3v-17ZM112 15.5c0 .533-.137 1-.409 1.4-.274.4-.638.6-1.091.6-.454 0-.817-.2-1.09-.6-.273-.4-.41-.867-.41-1.4 0-.533.137-1 .41-1.4.273-.4.637-.6 1.09-.6.44 0 .801.2 1.08.6.28.4.42.867.42 1.4ZM113.001 19.5h7.499c1.132 0 2.114.11 2.945.328.831.218 1.518.526 2.063.924.544.395.949.87 1.213 1.419.265.55.397 1.158.397 1.821 0 .859-.221 1.603-.662 2.236-.441.63-1.103 1.1-1.986 1.408 1.104.243 1.968.716 2.592 1.42.625.705.938 1.607.938 2.708 0 1.458-.548 2.61-1.643 3.46-1.096.851-2.828 1.276-5.196 1.276H113v-17h.001Zm7.499 7.407c2.132 0 3.198-.971 3.198-2.914 0-.857-.268-1.518-.804-1.979-.537-.462-1.335-.692-2.394-.692h-4.302v5.585h4.302Zm-4.301 1.822v5.95h4.964c1.102 0 1.948-.243 2.536-.728.588-.486.883-1.214.883-2.186 0-1.036-.295-1.8-.883-2.296-.588-.493-1.434-.74-2.536-.74h-4.964ZM141.07 27.879 147 36.5h-3.692l-5.148-7.528h-3.916V36.5H131v-17h3.244v7.65h3.693l5.146-7.65h3.581l-5.594 8.379ZM157.001 18.5c1.35 0 2.576.195 3.678.584 1.103.39 2.047.966 2.835 1.727.787.763 1.399 1.703 1.834 2.822.434 1.119.652 2.408.652 3.867 0 1.46-.218 2.749-.652 3.867-.435 1.12-1.047 2.06-1.834 2.822-.788.763-1.732 1.337-2.835 1.727-1.102.39-2.328.584-3.678.584s-2.582-.195-3.692-.584c-1.11-.39-2.059-.964-2.846-1.727-.787-.763-1.394-1.703-1.822-2.822-.428-1.118-.641-2.407-.641-3.867s.213-2.748.641-3.867c.428-1.119 1.035-2.06 1.822-2.822.788-.761 1.736-1.337 2.846-1.727 1.11-.389 2.342-.584 3.692-.584Zm0 1.703c-.766 0-1.482.146-2.15.438a4.685 4.685 0 0 0-1.744 1.338c-.495.6-.889 1.358-1.182 2.274-.292.917-.439 1.999-.439 3.247 0 1.249.147 2.331.439 3.247.293.917.687 1.674 1.182 2.274a4.671 4.671 0 0 0 1.744 1.338 5.305 5.305 0 0 0 2.15.438c.765 0 1.481-.146 2.148-.438a4.67 4.67 0 0 0 1.744-1.338c.495-.6.89-1.357 1.181-2.274.293-.916.439-1.999.439-3.247 0-1.248-.146-2.33-.439-3.247-.291-.916-.686-1.674-1.181-2.274a4.662 4.662 0 0 0-1.744-1.338 5.295 5.295 0 0 0-2.148-.438ZM178.886 34.072h.228l5.959-14.572H190v17h-3.322V22.9h-.23l-5.5 13.6h-3.896l-5.5-13.6h-.229v13.6H168v-17h4.927l5.959 14.572ZM210 19.5l-8.6 17h-3.553l2.522-4.979h-1.834L192 19.5h3.784l5.388 9.957h.229l5.046-9.957H210ZM228 19.5v17h-3.314v-7.407h-9.372V36.5H212v-17h3.314v7.771h9.372V19.5H228ZM239.333 34.676c1.007 0 1.974-.191 2.901-.572.925-.381 1.811-1.001 2.655-1.86L246 33.702c-.845.859-1.867 1.54-3.067 2.042a9.793 9.793 0 0 1-3.822.755c-1.392 0-2.648-.195-3.767-.584-1.118-.39-2.074-.964-2.866-1.727-.793-.763-1.404-1.703-1.833-2.822-.43-1.118-.645-2.407-.645-3.867s.211-2.748.633-3.867c.422-1.119 1.023-2.06 1.801-2.822.777-.761 1.714-1.337 2.81-1.727 1.097-.389 2.312-.584 3.645-.584a9.8 9.8 0 0 1 3.822.755c1.201.502 2.222 1.183 3.067 2.043l-1.112 1.46c-.843-.86-1.729-1.48-2.654-1.862a7.548 7.548 0 0 0-2.901-.572c-.8 0-1.548.142-2.244.426a4.68 4.68 0 0 0-1.799 1.302c-.505.583-.901 1.325-1.191 2.225-.288.901-.432 1.975-.432 3.223 0 1.249.144 2.323.432 3.223.29.9.697 1.642 1.223 2.226a4.896 4.896 0 0 0 1.867 1.301 6.395 6.395 0 0 0 2.366.426ZM251.328 21.322v5.585h8.377v1.822h-8.377v5.95H262V36.5h-14v-17h14v1.822h-10.672ZM271.941 19.501c1.102 0 2.092.133 2.966.4.876.268 1.614.657 2.217 1.167a5.1 5.1 0 0 1 1.39 1.869c.324.737.486 1.575.486 2.513 0 .94-.162 1.778-.486 2.514a5.108 5.108 0 0 1-1.39 1.87c-.603.51-1.343.898-2.218 1.166-.875.267-1.865.4-2.968.4h-4.745v5.1H264v-17h7.941v.001Zm-4.747 1.822v8.257h4.735c1.16 0 2.059-.335 2.698-1.008.639-.671.958-1.712.958-3.12 0-1.409-.319-2.45-.958-3.12-.639-.672-1.538-1.008-2.698-1.008h-4.735ZM282 19.5h7.5c1.132 0 2.115.11 2.945.328.831.218 1.519.526 2.063.924.544.395.948.87 1.213 1.419a4.16 4.16 0 0 1 .396 1.821c0 .859-.22 1.603-.661 2.236-.441.63-1.103 1.1-1.985 1.408 1.103.243 1.967.716 2.592 1.42.625.705.937 1.607.937 2.708 0 1.458-.547 2.61-1.642 3.46-1.096.851-2.828 1.276-5.196 1.276h-8.161l-.001-17Zm7.5 7.407c2.132 0 3.198-.971 3.198-2.914 0-.857-.268-1.518-.804-1.979-.537-.462-1.335-.692-2.394-.692h-4.302v5.585h4.302Zm-4.302 1.822v5.95h4.964c1.103 0 1.949-.243 2.537-.728.588-.486.883-1.214.883-2.186 0-1.036-.295-1.8-.883-2.296-.588-.493-1.434-.74-2.537-.74h-4.964ZM303 36.5h-3v-17h3v17ZM315.333 34.676c1.007 0 1.973-.191 2.9-.572.926-.381 1.811-1.001 2.656-1.86L322 33.702c-.845.859-1.867 1.54-3.068 2.042a9.79 9.79 0 0 1-3.822.755c-1.392 0-2.648-.195-3.766-.584-1.119-.39-2.074-.964-2.866-1.727-.793-.763-1.404-1.703-1.833-2.822-.43-1.118-.645-2.407-.645-3.867s.211-2.748.633-3.867c.423-1.119 1.024-2.06 1.8-2.822.778-.761 1.715-1.337 2.811-1.727 1.096-.389 2.311-.584 3.644-.584 1.348 0 2.622.252 3.822.755 1.202.502 2.223 1.183 3.067 2.043l-1.111 1.46c-.845-.86-1.73-1.48-2.655-1.862a7.548 7.548 0 0 0-2.901-.572c-.799 0-1.548.142-2.244.426a4.68 4.68 0 0 0-1.799 1.302c-.504.583-.901 1.325-1.19 2.225-.288.901-.433 1.975-.433 3.223 0 1.249.145 2.323.433 3.223.289.9.696 1.642 1.223 2.226a4.893 4.893 0 0 0 1.866 1.301c.718.284 1.508.426 2.367.426Z"/><path fill="url(#b)" d="M16.435 1.612S14.382 11.462 12 18.5c6.282-5.808 12.443-7.84 11.975-12.665-.29-2.972-6.048-4.822-7.54-4.223Z"/><path fill="#006838" d="M14 15.61s.065-.04.161-.074c.048-.008.104-.034.163-.033l.184-.003.183.039c.057.012.11.046.157.063.092.052.152.104.152.104v.02l-.5-.04-.5-.058v-.018ZM17.001 11.564s.19-.031.474-.051c.142-.002.308-.019.483-.01l.552.022.55.065c.175.02.338.063.477.087.279.065.463.126.463.126l-.001.019-1.5-.11-1.499-.13.001-.018ZM19 7.587s.128-.036.318-.064c.095-.005.206-.027.323-.022l.369.008.365.05c.117.016.225.054.318.075.184.058.307.114.307.114l-.001.019-1-.071c-.5-.044-.999-.09-.999-.09v-.019ZM15.984 13.5s-.102-.106-.23-.275c-.058-.088-.137-.185-.2-.3l-.199-.357-.162-.374c-.053-.12-.081-.24-.116-.34-.056-.203-.077-.346-.077-.346l.016-.008.5.992.484 1-.016.008ZM17.983 9.5s-.167-.23-.393-.585c-.104-.182-.241-.387-.362-.619l-.384-.723-.344-.742c-.11-.237-.192-.468-.273-.66A12.663 12.663 0 0 1 16 5.508l.018-.008 1 1.991.982 2-.017.009Z"/><path fill="#006838" d="m20 6.51-.322.53c-.208.334-.487.825-.856 1.39l-2.686 4.16-2.804 4.082c-.38.558-.724 1.005-.953 1.327l-.364.501-.015-.01L19.986 6.5l.014.01Z"/><path fill="url(#c)" d="M37.26 27.5c-1.405-7.624 2.195-11.786.026-18.913-1.545-5.079-5.458-6.612-6.695-7.286C28.595.21 19.662.105 17 1.79c1.328-.077 1.932 1.063 2.677 2.974.734 1.89 1.183 6.936 2.69 9.845 2.271 4.38 9.542 6.795 14.892 12.89Z"/><path fill="#006838" d="M23 .52s-.02.078-.071.206c-.058.123-.117.314-.23.516-.114.202-.228.45-.385.694-.149.248-.33.499-.51.751-.191.245-.381.491-.579.71-.192.221-.402.41-.567.58-.165.17-.336.291-.44.386a2.61 2.61 0 0 1-.184.137L20 4.479l1.466-2L22.966.5 23 .52ZM26 3.519s-.056.14-.166.376c-.116.232-.262.577-.474.966-.213.388-.439.856-.722 1.33l-.88 1.487c-.323.49-.645.982-.946 1.442-.3.462-.617.867-.87 1.228-.255.358-.497.637-.652.842-.162.2-.261.31-.261.31L21 11.48l2.472-4 2.5-3.98.028.019ZM29 9.522s-.055.142-.163.38c-.116.233-.259.582-.469.973-.21.391-.438.86-.714 1.339-.269.483-.576.984-.881 1.487-.317.494-.63.99-.944 1.442-.307.455-.622.86-.878 1.217-.257.357-.5.63-.657.834a7.755 7.755 0 0 1-.264.306l-.03-.023 2.47-4 2.5-3.977.03.022ZM31 14.521s-.026.094-.082.25c-.063.15-.133.38-.25.63-.12.248-.242.55-.402.854-.155.307-.337.62-.518.936-.191.307-.38.615-.575.892-.189.28-.39.522-.55.74-.16.217-.323.376-.422.498-.107.117-.173.179-.173.179L28 19.479l1.473-2.5 1.5-2.479.027.021ZM35 20.518s-.002.044-.021.115c-.027.066-.04.173-.103.28-.063.106-.115.24-.21.365-.088.13-.207.255-.322.382-.13.12-.258.243-.4.346-.135.107-.297.19-.417.27-.122.078-.262.126-.341.168-.088.039-.148.056-.148.056L33 22.482l.962-1 1-.982.038.018ZM26.004 2.588s.096-.021.264-.04c.166-.008.407-.052.691-.047.284.007.617-.014.97.014.355.017.73.067 1.105.112.375.062.749.123 1.097.206.349.076.672.19.95.265.278.077.506.187.667.242.161.066.252.114.252.114l-.004.046-3-.41L26 2.633l.004-.045ZM28.004 6.54s.144-.014.393-.023c.249 0 .607-.027 1.031-.013.425.016.923.012 1.451.047.53.027 1.093.081 1.656.132.562.064 1.123.127 1.648.208.525.074 1.012.178 1.43.249.418.072.764.17 1.007.221.243.06.38.102.38.102l-.004.037-4.5-.444L28 6.576l.004-.037ZM30.003 12.615s.112-.024.305-.046c.194-.011.472-.061.802-.06.33.003.716-.023 1.128.001.412.013.85.06 1.287.104.437.061.874.119 1.282.204.409.075.787.19 1.113.267.326.077.595.19.784.248.189.067.296.118.296.118l-.003.049-3.5-.392c-1.748-.22-3.497-.443-3.497-.443l.003-.05ZM33.004 17.7s.065-.032.178-.064c.112-.02.275-.088.465-.096.19-.009.415-.051.651-.037.238.002.488.042.738.078.25.057.499.111.73.196.232.074.444.197.629.275.184.079.333.204.44.264.106.071.165.126.165.126l-.004.058-2-.343-1.996-.4.004-.057ZM36.005 23.775c0 .002.019-.027.05-.058.03-.023.077-.083.127-.108.05-.023.111-.073.171-.087.062-.022.124-.02.188-.022.061.012.122.022.178.055.056.025.104.082.148.114.043.033.074.098.098.127.023.036.035.066.035.065l-.004.037-.5-.025-.496-.061.005-.037Z"/><path fill="#006838" d="m35.969 25.5-.516-1.051c-.323-.672-.811-1.619-1.348-2.778-.536-1.161-1.187-2.502-1.838-3.962l-2.05-4.57-1.978-4.604c-.633-1.469-1.183-2.86-1.675-4.042-.49-1.183-.86-2.188-1.138-2.882L25 .515 25.032.5 36 25.485l-.031.015Z"/><path fill="url(#d)" d="M7.544 51.5S16.871 48.36 24 46.956c-8.062-2.808-12.884-7.432-16.71-4.538-2.356 1.782-1.003 8.018.254 9.082Z"/><path fill="#006838" d="M19.973 46.5s-.126-.047-.277-.126c-.064-.042-.159-.087-.224-.143l-.208-.175a41.8 41.8 0 0 1-.149-.19c-.048-.06-.06-.124-.087-.175-.032-.107-.028-.184-.028-.184l.027-.007.5.494.473.499-.027.007ZM14.99 46.5s-.09-.168-.208-.43c-.054-.135-.126-.287-.187-.46a477.95 477.95 0 0 0-.194-.54l-.169-.559c-.054-.178-.091-.353-.13-.499-.067-.298-.102-.504-.102-.504l.01-.008.5 1.492.49 1.5-.01.008ZM10.984 45.5s-.102-.106-.232-.275c-.057-.088-.137-.184-.2-.3l-.199-.357-.162-.374c-.052-.12-.08-.24-.115-.34-.055-.203-.076-.346-.076-.346l.016-.008.5.992.484 1-.016.008ZM17 46.511s-.032.15-.098.36c-.038.1-.073.226-.128.345l-.168.377-.195.353c-.061.114-.134.206-.189.292a3.26 3.26 0 0 1-.21.262L16 48.489l.488-1 .5-.989.012.011ZM13 46.511s-.093.277-.25.676c-.084.195-.172.43-.285.668-.112.237-.232.49-.351.745l-.38.72c-.12.23-.248.43-.35.61-.216.348-.372.57-.372.57L11 50.488l.988-2 1-1.988.012.011Z"/><path fill="#006838" d="m10.001 45.5.604.017c.383.015.933.014 1.59.055l4.817.268 4.807.408c.655.052 1.2.129 1.582.167l.599.067-.001.018L10 45.517l.001-.017Z"/><path fill="url(#e)" d="M18 19.5c-5.474 5.157-10.666 3.867-15.352 9.494C-.69 33.004.043 37.458.122 38.96c.125 2.426 4.551 10.886 7.262 12.54-.733-1.211-.113-2.352 1.061-4.016 1.16-1.642 5.028-4.605 6.625-7.488 2.405-4.34.69-12.396 2.93-20.496Z"/><path fill="#006838" d="M4.003 46.766s.08-.037.22-.077c.139-.025.34-.106.576-.123.237-.016.515-.072.81-.065.294-.006.607.028.92.059.312.053.624.104.914.188.29.073.56.2.791.28.232.08.422.212.556.274.134.076.21.135.21.135l-.003.063-2.5-.302L4 46.831l.003-.065ZM4.002 41.608s.142-.023.39-.044c.247-.011.603-.06 1.026-.056.423.005.92-.027 1.447.01l1.655.1 1.65.21c.526.064 1.014.187 1.435.26.42.077.768.19 1.012.248.244.066.383.116.383.116l-.002.048-4.5-.397L4 41.657l.002-.048ZM7.004 36.578s.142-.02.392-.037c.248-.006.605-.047 1.029-.04.423.007.92-.01 1.449.02.529.019 1.092.068 1.654.115.562.064 1.124.125 1.649.208.525.075 1.013.187 1.432.261.42.076.766.184 1.01.24.243.064.381.11.381.11l-.003.045-4.5-.417C9.248 36.853 7 36.621 7 36.621l.004-.043ZM11.004 30.698s.096-.031.263-.063c.166-.02.405-.087.689-.095.284-.009.616-.051.969-.037.353.003.728.042 1.104.079.374.057.748.11 1.098.196.35.074.673.196.951.274.279.08.508.204.67.264.161.071.252.127.252.127l-.003.057-3-.343L11 30.756l.004-.058ZM14.005 25.713s.049-.024.134-.052c.084-.02.206-.073.35-.09.143-.018.311-.06.488-.065.178-.013.366-.003.554.005.186.021.373.04.546.081.174.034.333.1.471.138.138.04.25.112.329.143.079.04.123.072.123.072l-.003.037-1.5-.096L14 25.75l.005-.038ZM3.96 42.5s-.076-.083-.193-.233c-.107-.153-.29-.361-.458-.63-.168-.27-.387-.576-.58-.918-.202-.34-.391-.713-.583-1.084-.178-.377-.358-.754-.503-1.115-.152-.358-.259-.707-.368-.999-.108-.292-.158-.55-.213-.724-.045-.178-.062-.283-.062-.283l.04-.014 1.5 2.985 1.46 3-.04.015ZM5.963 38.5s-.09-.114-.232-.319c-.134-.208-.35-.496-.564-.86-.214-.363-.484-.778-.735-1.24-.259-.456-.51-.954-.765-1.45-.24-.502-.484-1.003-.69-1.482-.212-.475-.376-.933-.534-1.317-.158-.386-.25-.722-.334-.95-.075-.233-.109-.367-.109-.367l.037-.015 2 3.986 1.963 4-.037.014ZM8.97 33.5s-.07-.097-.179-.274c-.102-.18-.27-.427-.431-.742-.162-.316-.369-.676-.559-1.077-.195-.398-.385-.833-.575-1.267-.18-.439-.362-.877-.514-1.298-.158-.417-.277-.821-.393-1.161-.116-.339-.181-.638-.242-.84A5.833 5.833 0 0 1 6 26.515l.03-.015 1.5 3.485 1.47 3.5-.03.015ZM12.958 28.5s-.06-.05-.15-.146c-.081-.099-.226-.23-.349-.404-.122-.176-.287-.372-.423-.598-.144-.223-.271-.47-.4-.716-.116-.252-.233-.504-.318-.748-.093-.242-.143-.481-.205-.679-.06-.198-.07-.379-.096-.499-.017-.122-.017-.196-.017-.196l.04-.014 1 1.986.96 2-.042.014ZM15.935 23.5c.002-.002-.059-.002-.135-.01-.063-.015-.199-.02-.278-.052-.08-.032-.21-.058-.28-.106-.086-.044-.135-.103-.187-.16-.03-.065-.063-.13-.053-.2-.004-.068.052-.148.07-.208.02-.06.101-.131.128-.171.04-.045.082-.075.078-.074l.065-.019.362.48.295.5-.065.02Z"/><path fill="#006838" d="m17 20.521-.601 1.018c-.388.643-.917 1.58-1.597 2.672-.681 1.093-1.452 2.383-2.32 3.734l-2.716 4.242-2.782 4.196c-.887 1.34-1.752 2.564-2.474 3.626-.724 1.061-1.364 1.92-1.795 2.533l-.685.958-.03-.021L16.97 20.5l.03.021Z"/><path fill="url(#f)" d="M52 35.417S44.733 28.383 40 22.5c1.72 8.889.315 15.704 4.623 17.773 2.652 1.273 7.127-3.15 7.377-4.856Z"/><path fill="#006838" d="M42 26.51s-.013.082-.061.195c-.033.052-.055.12-.107.18l-.158.192-.203.172c-.063.055-.147.096-.207.137-.136.073-.245.114-.245.114L41 27.491l.48-.5.5-.491.02.01ZM44 30.511s-.084.213-.233.518c-.082.147-.165.327-.276.506l-.346.56-.383.537c-.121.171-.255.319-.36.452-.223.255-.386.416-.386.416L42 33.489l.985-1.5 1-1.489.015.011ZM46 34.511s-.032.15-.097.36c-.038.101-.073.227-.127.347l-.169.376-.194.354c-.062.112-.135.205-.19.29-.12.163-.211.262-.211.262L45 36.489l.488-1 .5-.989.012.011ZM43.002 28.587s.127-.037.317-.064c.094-.005.206-.027.323-.022l.368.009.366.05c.117.016.224.054.317.075.184.058.307.114.307.114l-.001.019-1-.072-.999-.09.002-.02ZM45.001 32.547s.253-.028.63-.042c.19.002.41-.012.644 0l.736.036.732.077c.234.024.451.07.638.097.372.072.619.138.619.138l-.001.018-2-.143L45 32.566l.001-.02Z"/><path fill="#006838" d="m45.984 35.5-.28-.547c-.173-.35-.441-.841-.727-1.447l-2.118-4.435-1.996-4.497c-.275-.612-.475-1.137-.628-1.496l-.235-.57.015-.008L46 35.492l-.016.008Z"/><path fill="url(#g)" d="M21 40.883c6.872 2.473 8.425 7.854 15.282 9.375 4.887 1.083 8.098-1.775 9.267-2.582 1.887-1.306 6.474-9.505 6.45-12.796-.607 1.264-1.832 1.259-3.753 1.002-1.9-.256-6.208-2.336-9.32-2.381-4.685-.07-10.302 5.453-17.926 7.382Z"/><path fill="#006838" d="M49.968 40.5s-.055-.051-.138-.148c-.076-.1-.208-.23-.325-.406-.117-.176-.271-.373-.403-.6-.139-.223-.266-.47-.394-.717-.117-.252-.236-.503-.328-.747-.098-.241-.16-.48-.227-.677-.067-.197-.09-.378-.122-.496a1.998 1.998 0 0 1-.031-.195l.033-.014 1 1.986.967 2-.032.014ZM45.969 43.5s-.085-.128-.221-.36c-.13-.234-.337-.557-.547-.965-.207-.41-.474-.875-.715-1.396l-.763-1.632-.694-1.667c-.222-.532-.391-1.05-.556-1.482-.162-.433-.266-.812-.353-1.069-.08-.26-.12-.412-.12-.412l.031-.017 2 4.484 1.969 4.5-.031.016ZM39.964 42.5s-.088-.112-.228-.317c-.133-.209-.346-.494-.559-.857-.212-.363-.48-.777-.73-1.237-.257-.457-.509-.954-.762-1.451-.242-.502-.485-1.003-.692-1.482-.214-.477-.38-.934-.54-1.32-.16-.386-.256-.724-.34-.953a6.976 6.976 0 0 1-.113-.368l.035-.015 2 3.985 1.965 4-.036.015ZM33.973 42.5s-.05-.067-.129-.19c-.072-.127-.194-.296-.306-.52-.113-.222-.259-.474-.388-.759-.135-.281-.261-.591-.389-.9-.119-.315-.238-.628-.335-.93-.101-.3-.172-.594-.244-.838-.072-.246-.105-.464-.141-.61-.03-.15-.041-.239-.041-.239l.027-.014 1 2.485.973 2.5-.027.015ZM27.972 42.5s-.036-.032-.087-.097c-.045-.07-.13-.155-.195-.281-.066-.127-.159-.263-.23-.428-.076-.162-.14-.345-.204-.529-.056-.19-.113-.378-.15-.566-.042-.185-.056-.374-.081-.527-.025-.154-.017-.301-.025-.395-.002-.099.004-.16.004-.16l.027-.017s.25.74.498 1.482l.471 1.5-.028.018ZM48 43.52s-.038.093-.118.248c-.086.151-.187.38-.348.629-.162.25-.333.552-.55.854-.209.306-.453.62-.695.935-.254.308-.506.616-.762.893-.25.28-.512.523-.722.742-.21.217-.419.377-.55.499-.137.117-.223.18-.223.18L44 48.48l1.968-2.5 2-2.48.032.02ZM43 43.52s-.056.124-.166.333c-.116.205-.26.513-.472.855-.211.342-.441.754-.718 1.173-.27.423-.578.862-.883 1.302-.316.433-.63.866-.943 1.26-.306.399-.62.752-.874 1.064-.256.311-.498.55-.654.727-.162.172-.261.266-.261.266L38 50.48l2.472-3.5 2.5-3.48.028.02ZM37 42.52s-.04.107-.124.288c-.09.177-.197.443-.362.74-.166.294-.342.649-.56 1.01-.212.364-.458.74-.701 1.117-.254.37-.506.742-.758 1.078-.248.34-.505.64-.712.905-.208.266-.41.467-.538.617a4.866 4.866 0 0 1-.217.225L33 48.48l1.972-3 2-2.98.028.02ZM31 42.519s-.013.06-.045.16c-.038.095-.074.244-.149.398-.074.154-.148.345-.251.529-.099.188-.22.377-.339.567-.127.182-.254.366-.387.527-.129.165-.27.3-.382.426-.11.125-.228.21-.299.278-.075.063-.124.096-.124.096L29 45.481l.976-1.5 1-1.481.024.019ZM25.869 41.53c-.003-.001.025.038.048.09.014.048.067.136.067.203s.03.163.008.234c-.012.078-.057.142-.099.207-.061.054-.118.111-.202.147-.076.04-.193.05-.269.073-.077.022-.194.01-.252.016-.068 0-.122-.01-.12-.008l-.05-.03.382-.495.435-.467.052.03Z"/><path fill="#006838" d="m22.003 41.5 1.164.038c.74.03 1.801.045 3.069.114 1.267.07 2.749.125 4.331.231l4.96.325 4.953.398c1.58.125 3.053.284 4.316.4 1.263.116 2.312.254 3.048.33l1.156.132-.003.032L22 41.532l.003-.032Z"/></g><defs><linearGradient id="b" x1="13.982" x2="18.82" y1="9.864" y2="10.639" gradientUnits="userSpaceOnUse"><stop stop-color="#65C08A"/><stop offset=".5" stop-color="#00A551"/><stop offset="1" stop-color="#00914D"/></linearGradient><linearGradient id="c" x1="23.762" x2="37.856" y1="16.269" y2="10.18" gradientUnits="userSpaceOnUse"><stop stop-color="#65C08A"/><stop offset=".25" stop-color="#00A551"/><stop offset=".5" stop-color="#00914D"/><stop offset=".75" stop-color="#00A551"/><stop offset="1" stop-color="#65C08A"/></linearGradient><linearGradient id="d" x1="15.724" x2="13.856" y1="49.52" y2="44.73" gradientUnits="userSpaceOnUse"><stop stop-color="#65C08A"/><stop offset=".5" stop-color="#00A551"/><stop offset="1" stop-color="#00914D"/></linearGradient><linearGradient id="e" x1="15.782" x2="2.754" y1="37.829" y2="29.071" gradientUnits="userSpaceOnUse"><stop stop-color="#65C08A"/><stop offset=".25" stop-color="#00A551"/><stop offset=".5" stop-color="#00914D"/><stop offset=".75" stop-color="#00A551"/><stop offset="1" stop-color="#65C08A"/></linearGradient><linearGradient id="f" x1="46.348" x2="42.949" y1="28.774" y2="32.737" gradientUnits="userSpaceOnUse"><stop stop-color="#65C08A"/><stop offset=".5" stop-color="#00A551"/><stop offset="1" stop-color="#00914D"/></linearGradient><linearGradient id="g" x1="36.865" x2="35.286" y1="33.953" y2="50.039" gradientUnits="userSpaceOnUse"><stop stop-color="#65C08A"/><stop offset=".25" stop-color="#00A551"/><stop offset=".5" stop-color="#00914D"/><stop offset=".75" stop-color="#00A551"/><stop offset="1" stop-color="#65C08A"/></linearGradient><clipPath id="a"><path fill="#fff" d="M0 .5h322v51H0z"/></clipPath></defs></svg>