<?xml version="1.0" encoding="UTF-8" standalone="no"?>
<svg
   id="Слой_1"
   data-name="Слой 1"
   viewBox="0 0 211.18 162.45"
   version="1.1"
   sodipodi:docname="logo_cosmo.svg"
   inkscape:version="1.1.2 (0a00cf5339, 2022-02-04)"
   xmlns:inkscape="http://www.inkscape.org/namespaces/inkscape"
   xmlns:sodipodi="http://sodipodi.sourceforge.net/DTD/sodipodi-0.dtd"
   xmlns="http://www.w3.org/2000/svg"
   xmlns:svg="http://www.w3.org/2000/svg">
  <sodipodi:namedview
     id="namedview37"
     pagecolor="#ffffff"
     bordercolor="#666666"
     borderopacity="1.0"
     inkscape:pageshadow="2"
     inkscape:pageopacity="0.0"
     inkscape:pagecheckerboard="0"
     showgrid="false"
     inkscape:zoom="2"
     inkscape:cx="255"
     inkscape:cy="-34"
     inkscape:window-width="1916"
     inkscape:window-height="1042"
     inkscape:window-x="1920"
     inkscape:window-y="0"
     inkscape:window-maximized="1"
     inkscape:current-layer="Слой_1" />
  <rect
     style="fill:#772b8e;fill-opacity:1;stroke-width:0.998318"
     id="rect22335"
     width="211.17235"
     height="162.49551"
     x="0.049022086"
     y="-0.045582488" />
  <defs
     id="defs4">
    <style
       id="style2">.cls-1{fill:#fff;}</style>
  </defs>
  <path
     class="cls-1"
     d="M-240.49,451.44a8,8,0,0,1-5.91-2.14q-2.15-2.13-2.14-6.19v-9.9a1,1,0,0,1,1-1h1.34a1,1,0,0,1,1,1V443a5.75,5.75,0,0,0,1.27,4,4.49,4.49,0,0,0,3.52,1.4,4.56,4.56,0,0,0,3.5-1.35,5.55,5.55,0,0,0,1.26-3.92v-9.9a1,1,0,0,1,1-1h1.34a1,1,0,0,1,1,1V443a8.58,8.58,0,0,1-2.17,6.31A8,8,0,0,1-240.49,451.44Z"
     transform="translate(301.29 -339.72)"
     id="path6" />
  <path
     class="cls-1"
     d="M-217.52,448.06h-7V433.21a1,1,0,0,0-1-1h-1.31a1,1,0,0,0-1,1v17a.94.94,0,0,0,.95.95h9.38a1,1,0,0,0,1-1v-1.1A1,1,0,0,0-217.52,448.06Z"
     transform="translate(301.29 -339.72)"
     id="path8" />
  <path
     class="cls-1"
     d="M-209.15,450.18V435.29h-5a1,1,0,0,1-1-1v-1.09a1,1,0,0,1,1-1h13.38a1,1,0,0,1,1,1v1.09a1,1,0,0,1-1,1h-5v14.89a1,1,0,0,1-1,1h-1.44A1,1,0,0,1-209.15,450.18Z"
     transform="translate(301.29 -339.72)"
     id="path10" />
  <rect
     class="cls-1"
     x="105.52"
     y="92.49"
     width="3.33"
     height="18.93"
     rx="0.99"
     id="rect12" />
  <path
     class="cls-1"
     d="M-155.77,432.1h-1.67a1,1,0,0,0-.93.65l-6.21,17.06a1,1,0,0,0,.94,1.33h1.15a1,1,0,0,0,.94-.66l1.3-3.76h7.18l1.4,3.78a1,1,0,0,0,.93.64h1.21a1,1,0,0,0,.94-1.33l-6.25-17.06A1,1,0,0,0-155.77,432.1Zm-3.43,11.7,2.57-7.23,2.54,7.23Z"
     transform="translate(301.29 -339.72)"
     id="path14" />
  <path
     class="cls-1"
     d="M-134.78,448.06h-7V433.21a1,1,0,0,0-1-1h-1.31a1,1,0,0,0-1,1v16.94a1,1,0,0,0,1,1h9.33a1,1,0,0,0,1-1v-1.1A1,1,0,0,0-134.78,448.06Z"
     transform="translate(301.29 -339.72)"
     id="path16" />
  <path
     class="cls-1"
     d="M-120.34,448.06h-7V433.21a1,1,0,0,0-1-1h-1.3a1,1,0,0,0-1,1v16.94a1,1,0,0,0,1,1h9.32a1,1,0,0,0,1-1v-1.1A1,1,0,0,0-120.34,448.06Z"
     transform="translate(301.29 -339.72)"
     id="path18" />
  <path
     class="cls-1"
     d="M-257.28,432.67l-5.46,8.49-5.47-8.49a1,1,0,0,0-.84-.46h-2a1,1,0,0,0-1,1v16.94a1,1,0,0,0,1,1h1.28a1,1,0,0,0,1-1V437.62l4.52,6.78a1,1,0,0,0,.83.44h1.25a1,1,0,0,0,.83-.44l4.57-6.83v12.58a1,1,0,0,0,1,1h1.34a1,1,0,0,0,1-1V433.21a1,1,0,0,0-1-1h-2A1,1,0,0,0-257.28,432.67Z"
     transform="translate(301.29 -339.72)"
     id="path20" />
  <path
     class="cls-1"
     d="M-172.29,432.67l-5.47,8.49-5.46-8.49a1,1,0,0,0-.84-.46h-2a1,1,0,0,0-1,1v16.94a1,1,0,0,0,1,1h1.29a1,1,0,0,0,1-1V437.62l4.53,6.78a1,1,0,0,0,.83.44h1.25a1,1,0,0,0,.82-.44l4.58-6.83v12.58a1,1,0,0,0,1,1h1.34a1,1,0,0,0,1-1V433.21a1,1,0,0,0-1-1h-2A1,1,0,0,0-172.29,432.67Z"
     transform="translate(301.29 -339.72)"
     id="path22" />
  <path
     class="cls-1"
     d="M-258.4,419.58a14,14,0,0,1-10.39-4.23,14.31,14.31,0,0,1-4.15-10.43,14.32,14.32,0,0,1,4.17-10.41,14.25,14.25,0,0,1,10.61-4.25,14.49,14.49,0,0,1,6.2,1.19,17.14,17.14,0,0,1,3.93,2.64,1.14,1.14,0,0,1,.13,1.61l-2.27,2.62a1.14,1.14,0,0,1-1.56.14,12.35,12.35,0,0,0-2.6-1.7,9.09,9.09,0,0,0-3.87-.75,7.6,7.6,0,0,0-5.89,2.57,9.12,9.12,0,0,0-2.33,6.34,9.14,9.14,0,0,0,2.33,6.32,7.59,7.59,0,0,0,5.89,2.59,8.89,8.89,0,0,0,3.93-.81,14.06,14.06,0,0,0,2.73-1.82,1.12,1.12,0,0,1,1.54.11l2.48,2.65a1.13,1.13,0,0,1,0,1.57,14.48,14.48,0,0,1-4.23,2.87A16.44,16.44,0,0,1-258.4,419.58Z"
     transform="translate(301.29 -339.72)"
     id="path26" />
  <path
     class="cls-1"
     d="M-218,415.31a14.75,14.75,0,0,1-10.79,4.27,14.63,14.63,0,0,1-10.75-4.25,14.14,14.14,0,0,1-4.28-10.41,14.06,14.06,0,0,1,4.32-10.39,14.69,14.69,0,0,1,10.79-4.27A14.63,14.63,0,0,1-218,394.51a14.13,14.13,0,0,1,4.27,10.41A14.06,14.06,0,0,1-218,415.31Zm-16.87-4.07a8.12,8.12,0,0,0,6.16,2.59,8,8,0,0,0,6.11-2.57,9,9,0,0,0,2.39-6.34,8.91,8.91,0,0,0-2.43-6.32,8.06,8.06,0,0,0-6.15-2.59,8,8,0,0,0-6.12,2.57,9,9,0,0,0-2.39,6.34A8.91,8.91,0,0,0-234.92,411.24Z"
     transform="translate(301.29 -339.72)"
     id="path28" />
  <path
     class="cls-1"
     d="M-198.31,419.5a17.41,17.41,0,0,1-11.11-3.77,1.15,1.15,0,0,1-.19-1.64l2.24-2.68a1.15,1.15,0,0,1,1.56-.21,12.72,12.72,0,0,0,7.62,2.79,5.33,5.33,0,0,0,3-.73,2.3,2.3,0,0,0,1.09-2,2.26,2.26,0,0,0-1.13-2,17.68,17.68,0,0,0-4.58-1.64,31.89,31.89,0,0,1-3.92-1.19,13.09,13.09,0,0,1-2.86-1.56,5.73,5.73,0,0,1-2-2.45,9,9,0,0,1-.63-3.54,7.72,7.72,0,0,1,2.77-6.2,10.68,10.68,0,0,1,7.15-2.35,16.36,16.36,0,0,1,9.66,3,1.11,1.11,0,0,1,.25,1.55l-2,2.89a1.13,1.13,0,0,1-1.51.33,12.31,12.31,0,0,0-6.49-2.21,4.37,4.37,0,0,0-2.69.71,2.18,2.18,0,0,0-1,1.84,2.23,2.23,0,0,0,1.18,2.06,22.46,22.46,0,0,0,4.94,1.66,16.92,16.92,0,0,1,6.8,3.12,6.85,6.85,0,0,1,2.19,5.47,7.88,7.88,0,0,1-2.85,6.46A11.63,11.63,0,0,1-198.31,419.5Z"
     transform="translate(301.29 -339.72)"
     id="path30" />
  <path
     class="cls-1"
     d="M-122.76,415.31a14.77,14.77,0,0,1-10.8,4.27,14.63,14.63,0,0,1-10.75-4.25,14.13,14.13,0,0,1-4.27-10.41,14.09,14.09,0,0,1,4.31-10.39,14.71,14.71,0,0,1,10.79-4.27,14.61,14.61,0,0,1,10.75,4.25,14.14,14.14,0,0,1,4.28,10.41A14.09,14.09,0,0,1-122.76,415.31Zm-16.87-4.07a8.09,8.09,0,0,0,6.15,2.59,8,8,0,0,0,6.12-2.57,9,9,0,0,0,2.39-6.34,8.91,8.91,0,0,0-2.43-6.32,8.07,8.07,0,0,0-6.16-2.59,8,8,0,0,0-6.11,2.57,9,9,0,0,0-2.39,6.34A8.91,8.91,0,0,0-139.63,411.24Z"
     transform="translate(301.29 -339.72)"
     id="path32" />
  <path
     class="cls-1"
     d="M-161.18,391.28-167.82,402a.57.57,0,0,1-1,0l-6.64-10.68a1.14,1.14,0,0,0-1-.53h-5a1.13,1.13,0,0,0-1.13,1.13V418a1.14,1.14,0,0,0,1.13,1.13h3.85a1.14,1.14,0,0,0,1.13-1.13V400.71l5.55,8.42a1.14,1.14,0,0,0,.95.51h3.12a1.14,1.14,0,0,0,1-.51l5.55-8.42V418a1.14,1.14,0,0,0,1.13,1.13h3.85a1.14,1.14,0,0,0,1.13-1.13V391.88a1.13,1.13,0,0,0-1.13-1.13h-5A1.12,1.12,0,0,0-161.18,391.28Z"
     transform="translate(301.29 -339.72)"
     id="path34" />
</svg>
