<svg width="201" height="116" viewBox="0 0 201 116" fill="none" xmlns="http://www.w3.org/2000/svg">
<mask id="mask0_29_907" style="mask-type:luminance" maskUnits="userSpaceOnUse" x="15" y="16" width="170" height="85">
<path d="M15 16H185V101H15V16Z" fill="#FF0000"/>
</mask>
<g mask="url(#mask0_29_907)">
<path fill-rule="evenodd" clip-rule="evenodd" d="M185 16C140.444 35.0786 59.5553 35.0786 15 16L29.1669 86.8317C65.3 105.686 131.969 105.76 170.833 86.8317L185.001 16H185Z" fill="#FF0000"/>
</g>
<path fill-rule="evenodd" clip-rule="evenodd" d="M55.4659 48L52.7828 63.6862L52.6026 64.7403H52.2529L52.0737 63.695L49.3896 48L44 48.0049V76.6398H48.1671L48.1846 68.1777L47.8262 58.6076H48.1623L51.3288 76.6398H53.5267L56.6922 58.6076H57.0284L56.67 68.1777V76.6398H60.8545V48.0049L55.4659 48ZM72.0173 48L71.9049 71.9272C71.9049 73.1839 70.7861 73.4756 70.2253 73.4756C69.5937 73.4756 68.5456 73.1839 68.5456 71.9272L68.4333 48H63.8806L64.2564 70.8339C64.2564 74.8615 65.6784 77 70.2253 77C74.7712 77 76.1941 74.8615 76.1941 70.8339L76.5699 48H72.0173ZM84.1506 73.0645V48H79.598V76.6359H89.1779V73.0645H84.1506ZM127.391 73.0645V48H122.839V76.6359H132.179V73.0645H127.391ZM142.283 51.5714V48H132.781V76.6379H142.218V73.0664H137.333V62.3845H140.976V58.8131H137.333V51.5704L142.283 51.5714ZM99.6549 48H87.2765V51.4452H91.1898V76.6379H95.7425V51.4452H99.6549V48ZM101.396 76.6359H105.949V48H101.396V76.6359ZM116.366 59.3083C116.366 60.4231 116.126 61.4459 114.312 61.4459H113.518V51.5685H114.639C116.584 51.5685 116.366 52.8496 116.366 53.9644V59.3083ZM115.072 48.002L108.965 48V76.6359H113.517V65.0418H115.222C119.051 65.0418 120.919 63.0677 120.919 59.9935V53.3419C120.919 50.2668 119.537 48.001 115.072 48.001V48.002ZM156.714 48.0039H152.222L150.306 58.6604H149.957L148.041 48.0039H143.548L146.384 60.3331L143.262 76.6369H147.921L149.546 66.7967L149.959 62.1046H150.3L150.716 66.7967L152.312 76.6369H157L153.878 60.3331L156.714 48.0039Z" fill="white"/>
</svg>
