<svg width="156" height="92" viewBox="0 0 156 39" fill="none" xmlns="http://www.w3.org/2000/svg">
<path d="M50.8398 9.93684C51.1542 9.93684 51.4556 9.87138 51.7438 9.75356C52.0321 9.63574 52.281 9.46554 52.4907 9.25608C52.7003 9.04661 52.8706 8.79787 52.9886 8.52295C53.1065 8.24802 53.172 7.93382 53.172 7.60653C53.172 7.27924 53.1065 6.97813 52.9886 6.69012C52.8706 6.41519 52.7003 6.16645 52.4907 5.95699C52.281 5.74752 52.0321 5.57733 51.7438 5.4595C51.4556 5.34168 51.1542 5.27622 50.8398 5.27622H47.158V16.2732C47.158 16.6005 47.0269 16.8754 46.7518 17.1111C46.4766 17.3336 46.1491 17.4514 45.7691 17.4514C45.3891 17.4514 45.0616 17.3336 44.7864 17.1111C44.5113 16.8885 44.3802 16.6005 44.3802 16.2732V3.75759C44.3802 3.4303 44.5113 3.15538 44.7864 2.91973C45.0616 2.69717 45.3891 2.57935 45.7691 2.57935H50.8529C51.5735 2.57935 52.2417 2.71026 52.8706 2.959C53.4996 3.20774 54.0499 3.56122 54.5215 4.00633C54.9932 4.45145 55.3601 4.97511 55.6353 5.59042C55.8973 6.20573 56.0414 6.8734 56.0414 7.59344C56.0414 8.18256 55.9497 8.73241 55.7532 9.25608C55.5566 9.77974 55.2815 10.251 54.9408 10.67C54.6002 11.0889 54.194 11.4424 53.7223 11.7435C53.2637 12.0446 52.7527 12.2672 52.2286 12.4112L55.0194 15.5139C55.2029 15.7888 55.2422 16.0899 55.1505 16.4303C55.0587 16.7707 54.8491 17.0456 54.5346 17.2682C54.2202 17.4776 53.8926 17.5562 53.5389 17.5169C53.1851 17.4776 52.923 17.3205 52.7396 17.0456L48.691 12.0708C48.5206 11.822 48.442 11.5471 48.442 11.2329C48.442 10.8533 48.5599 10.5391 48.7827 10.2772C49.0054 10.0285 49.2937 9.89757 49.6212 9.89757H50.8398V9.93684Z" fill="white"/>
<path d="M60.7841 11.6519C60.7841 11.3115 60.889 11.0235 61.0855 10.8009C61.282 10.5784 61.531 10.4605 61.8192 10.4605H66.1692C65.9334 9.76668 65.5403 9.21684 64.9769 8.811C64.4135 8.40515 63.7715 8.20878 63.0509 8.20878C62.5923 8.20878 62.1599 8.30042 61.7668 8.4837C61.3737 8.66699 61.02 8.91573 60.7186 9.21684C60.4173 9.51794 60.1814 9.88451 59.998 10.2903C59.8277 10.6962 59.7359 11.1413 59.7359 11.5995C59.7359 12.0577 59.8277 12.5028 59.998 12.9218C60.1683 13.3407 60.4173 13.7204 60.7186 14.0476C61.02 14.3749 61.3868 14.6368 61.793 14.8331C62.1992 15.0295 62.6578 15.1212 63.1426 15.1212C63.6405 15.1212 64.1646 15.0295 64.7018 14.8593C65.239 14.6891 65.6845 14.4404 66.0251 14.1262C66.2217 13.9036 66.4706 13.7989 66.7851 13.7989C67.0995 13.812 67.3878 13.9298 67.6498 14.1655C67.9119 14.388 68.0691 14.6499 68.1084 14.9641C68.1477 15.2783 68.0822 15.5401 67.8988 15.7626C67.2961 16.3518 66.5754 16.81 65.7369 17.1242C64.8983 17.4384 64.0335 17.6086 63.1426 17.6086C62.2516 17.6086 61.4262 17.4646 60.6662 17.1635C59.9063 16.8623 59.238 16.4434 58.6746 15.8936C58.1112 15.3568 57.6657 14.7153 57.3382 13.9822C57.0106 13.2491 56.8534 12.4505 56.8534 11.5864C56.8534 10.7224 57.0106 9.92378 57.3382 9.19065C57.6657 8.45752 58.1112 7.82912 58.6615 7.29237C59.2118 6.75561 59.867 6.33668 60.6269 6.03557C61.3737 5.73446 62.1861 5.59045 63.0509 5.59045C63.8894 5.59045 64.6756 5.74755 65.4093 6.06175C66.143 6.37595 66.7982 6.79488 67.3485 7.33164C67.8988 7.8684 68.3443 8.4968 68.6587 9.22993C68.9732 9.96306 69.1435 10.7486 69.1435 11.5864C69.1435 11.7435 69.1042 11.9006 69.0387 12.0577C68.9601 12.2148 68.8684 12.3457 68.7373 12.4636C68.6063 12.5814 68.4622 12.673 68.2918 12.7516C68.1346 12.8301 67.9512 12.8563 67.7546 12.8563H61.8192C61.531 12.8563 61.282 12.7385 61.0855 12.5028C60.889 12.2803 60.7841 11.9923 60.7841 11.6519Z" fill="white"/>
<path d="M77.7386 8.56253C77.3587 8.37925 76.9263 8.23524 76.4546 8.1305C75.9829 8.02577 75.4981 7.97341 75.0395 7.97341C74.4368 7.97341 73.9913 8.06505 73.69 8.26142C73.3886 8.4447 73.2183 8.66726 73.1659 8.90291C73.1135 9.13856 73.179 9.37421 73.3624 9.58367C73.5327 9.79314 73.8079 9.93715 74.1616 9.98952L76.5987 10.3561C76.9918 10.4215 77.3849 10.5394 77.791 10.7096C78.1841 10.8797 78.551 11.1154 78.8785 11.4034C79.2061 11.6914 79.4682 12.058 79.6778 12.49C79.8743 12.922 79.9792 13.4326 79.9792 14.0217C79.9792 14.5847 79.8481 15.0822 79.5861 15.5273C79.324 15.9724 78.9703 16.352 78.5117 16.6532C78.0662 16.9543 77.5421 17.1899 76.9394 17.3601C76.3498 17.5172 75.7077 17.6088 75.0526 17.6088C74.2272 17.6088 73.4541 17.5172 72.7204 17.3339C71.9866 17.1506 71.3315 16.9019 70.7419 16.5746C70.5061 16.4306 70.3488 16.208 70.2833 15.8938C70.2178 15.5927 70.2571 15.2785 70.4143 14.9774C70.5847 14.6632 70.8205 14.4538 71.1088 14.3359C71.397 14.2181 71.6853 14.2312 71.9604 14.3752C72.3797 14.6109 72.8514 14.8072 73.3755 14.9512C73.8996 15.0953 74.463 15.1869 75.0526 15.2131C75.6029 15.2523 76.0484 15.1738 76.4022 14.9643C76.7428 14.768 76.9787 14.5323 77.0835 14.2574C77.1883 13.9956 77.1621 13.7206 76.9918 13.4588C76.8346 13.197 76.507 13.0137 76.0222 12.9089L73.6244 12.5555C72.6811 12.4115 71.9211 12.058 71.3446 11.482C70.7681 10.9059 70.4798 10.1335 70.4798 9.15165C70.4798 8.61489 70.5978 8.1305 70.8205 7.68539C71.0433 7.24027 71.3577 6.86062 71.7639 6.54642C72.157 6.23222 72.6418 5.99657 73.2052 5.82638C73.7686 5.65619 74.3844 5.57764 75.0526 5.57764C75.734 5.57764 76.3891 5.65619 77.0049 5.80019C77.6207 5.9442 78.2234 6.16676 78.7737 6.44168C79.0096 6.54642 79.1668 6.74279 79.2585 7.03081C79.3371 7.31882 79.3109 7.60684 79.1668 7.90795C79.0227 8.20905 78.813 8.41852 78.551 8.54944C78.2627 8.69344 78.0007 8.69344 77.7386 8.56253Z" fill="white"/>
<path d="M85.8627 6.08962C86.1641 5.90633 86.5178 5.77542 86.9371 5.70996C87.3564 5.6445 87.8019 5.60522 88.2867 5.60522C89.0728 5.60522 89.8066 5.74923 90.5141 6.05034C91.2085 6.35145 91.8243 6.77038 92.3353 7.32023C92.8463 7.85699 93.2656 8.49848 93.567 9.23161C93.8683 9.96474 94.0124 10.7633 94.0124 11.6274C94.0124 12.4914 93.8683 13.29 93.567 14.0231C93.2656 14.7563 92.8594 15.3847 92.3353 15.9214C91.8243 16.4582 91.2085 16.8771 90.5141 17.1782C89.8197 17.4793 89.0728 17.6233 88.2867 17.6233C87.3957 17.6233 86.6358 17.427 86.0068 17.0342C85.3779 16.6415 84.8669 16.1833 84.4738 15.6465H84.4345V19.6264C84.4345 19.9537 84.3035 20.2286 84.0415 20.4642C83.7794 20.6868 83.465 20.8046 83.085 20.8046C82.705 20.8046 82.3775 20.6868 82.1154 20.4642C81.8534 20.2417 81.7092 19.9537 81.7092 19.6264V6.95366C81.7092 6.61328 81.8402 6.33836 82.1154 6.1158C82.3775 5.89324 82.705 5.78851 83.085 5.78851C83.465 5.78851 83.7794 5.89324 84.0415 6.1158C84.3035 6.33836 84.4345 6.61328 84.4345 6.95366V11.6143C84.4345 12.0725 84.5132 12.5045 84.6835 12.9104C84.8538 13.3162 85.0897 13.6697 85.391 13.9708C85.6924 14.2719 86.0461 14.5075 86.4523 14.6908C86.8585 14.861 87.2909 14.9526 87.7626 14.9526C88.2212 14.9526 88.6535 14.861 89.0597 14.6908C89.4659 14.5206 89.8197 14.2719 90.1341 13.9708C90.4355 13.6697 90.6844 13.3162 90.8547 12.9104C91.0251 12.5045 91.1168 12.0725 91.1168 11.6143C91.1168 11.1561 91.0251 10.7241 90.8547 10.3182C90.6844 9.91237 90.4355 9.5589 90.1341 9.2447C89.8328 8.94359 89.4659 8.69485 89.0597 8.52466C88.6535 8.35447 88.2212 8.26283 87.7626 8.26283C87.435 8.26283 87.1337 8.3021 86.8454 8.38065C86.5833 8.48538 86.3344 8.4592 86.0986 8.28901C85.8627 8.13191 85.6793 7.90935 85.5352 7.64752C85.391 7.34641 85.3517 7.0453 85.4041 6.7442C85.4827 6.45618 85.6269 6.23362 85.8627 6.08962Z" fill="white"/>
<path d="M98.4676 12.4379C98.4676 12.8176 98.52 13.1711 98.6248 13.4984C98.7296 13.8256 98.8868 14.1006 99.0965 14.3362C99.3061 14.5588 99.5682 14.729 99.8826 14.8468C100.197 14.9515 100.551 14.9908 100.957 14.9515L101.324 14.9122C101.586 14.8861 101.822 14.9646 102.045 15.161C102.267 15.3574 102.411 15.6061 102.477 15.9203C102.542 16.2476 102.503 16.5356 102.385 16.7974C102.254 17.0462 102.058 17.2295 101.796 17.3211C101.324 17.5175 100.76 17.6091 100.105 17.6091C99.4371 17.6091 98.8344 17.4913 98.2972 17.2556C97.76 17.02 97.3014 16.6927 96.9084 16.2738C96.5284 15.8548 96.227 15.3443 96.0174 14.7551C95.8078 14.166 95.7029 13.4984 95.7029 12.7914V6.95254C95.7029 6.62525 95.834 6.35032 96.1091 6.11467C96.3712 5.89212 96.6987 5.77429 97.0787 5.77429C97.4587 5.77429 97.7862 5.89212 98.0483 6.11467C98.3103 6.33723 98.4545 6.62525 98.4545 6.95254V12.4379H98.4676ZM103.473 6.95254C103.473 6.62525 103.604 6.35032 103.879 6.11467C104.141 5.89212 104.468 5.77429 104.848 5.77429C105.228 5.77429 105.556 5.89212 105.818 6.11467C106.08 6.33723 106.224 6.62525 106.224 6.95254V16.2607C106.224 16.588 106.093 16.8629 105.818 17.0985C105.556 17.3211 105.228 17.4389 104.848 17.4389C104.468 17.4389 104.141 17.3211 103.879 17.0985C103.617 16.876 103.473 16.588 103.473 16.2607V6.95254Z" fill="white"/>
<path d="M112.696 6.08958C112.998 5.90629 113.351 5.77538 113.771 5.70992C114.19 5.64446 114.635 5.60519 115.12 5.60519C115.906 5.60519 116.64 5.7492 117.348 6.0503C118.042 6.35141 118.658 6.77034 119.169 7.32019C119.68 7.85695 120.099 8.49844 120.4 9.23157C120.702 9.9647 120.846 10.7633 120.846 11.6273C120.846 12.4914 120.702 13.29 120.4 14.0231C120.099 14.7562 119.693 15.3846 119.169 15.9214C118.658 16.4582 118.042 16.8771 117.348 17.1782C116.653 17.4793 115.906 17.6233 115.12 17.6233C114.229 17.6233 113.469 17.4269 112.84 17.0342C112.211 16.6414 111.7 16.1832 111.307 15.6465H111.268V16.2749C111.268 16.6022 111.137 16.8771 110.875 17.1127C110.613 17.3353 110.298 17.4531 109.918 17.4531C109.538 17.4531 109.211 17.3353 108.949 17.1127C108.687 16.8902 108.543 16.6022 108.543 16.2749V3.60217C108.543 3.26178 108.674 2.98686 108.949 2.7643C109.211 2.54174 109.538 2.43701 109.918 2.43701C110.298 2.43701 110.613 2.54174 110.875 2.7643C111.137 2.98686 111.268 3.26178 111.268 3.60217V11.6142C111.268 12.0725 111.347 12.5045 111.517 12.9103C111.687 13.3162 111.923 13.6696 112.224 13.9707C112.526 14.2718 112.88 14.5075 113.286 14.6908C113.692 14.861 114.124 14.9526 114.596 14.9526C115.055 14.9526 115.487 14.861 115.893 14.6908C116.299 14.5206 116.653 14.2718 116.968 13.9707C117.269 13.6696 117.518 13.3162 117.688 12.9103C117.859 12.5045 117.95 12.0725 117.95 11.6142C117.95 11.156 117.859 10.724 117.688 10.3182C117.518 9.91234 117.269 9.55886 116.968 9.24466C116.666 8.94355 116.299 8.69481 115.893 8.52462C115.487 8.35443 115.055 8.26279 114.596 8.26279C114.268 8.26279 113.967 8.30206 113.679 8.38061C113.417 8.48535 113.168 8.45916 112.932 8.28897C112.696 8.13187 112.513 7.90932 112.369 7.64748C112.224 7.34637 112.185 7.04527 112.238 6.74416C112.316 6.45614 112.46 6.23359 112.696 6.08958Z" fill="white"/>
<path d="M122.641 3.6C122.641 3.27271 122.772 2.99778 123.047 2.76214C123.309 2.53958 123.637 2.42175 124.017 2.42175C124.397 2.42175 124.724 2.53958 124.987 2.76214C125.249 2.98469 125.393 3.27271 125.393 3.6V16.2596C125.393 16.5869 125.262 16.8618 124.987 17.0975C124.724 17.32 124.397 17.4379 124.017 17.4379C123.637 17.4379 123.309 17.32 123.047 17.0975C122.785 16.8749 122.641 16.5869 122.641 16.2596V3.6Z" fill="white"/>
<path d="M127.542 3.71901C127.542 3.28698 127.686 2.92042 127.987 2.61931C128.289 2.3182 128.656 2.17419 129.088 2.17419C129.52 2.17419 129.887 2.3182 130.189 2.61931C130.49 2.92042 130.634 3.28698 130.634 3.71901C130.634 4.15103 130.49 4.5176 130.189 4.8187C129.887 5.11981 129.52 5.26382 129.088 5.26382C128.656 5.26382 128.289 5.11981 127.987 4.8187C127.686 4.5176 127.542 4.15103 127.542 3.71901ZM127.712 7.73814C127.712 7.41085 127.843 7.13592 128.118 6.90027C128.38 6.67771 128.708 6.55989 129.088 6.55989C129.468 6.55989 129.795 6.67771 130.058 6.90027C130.32 7.12283 130.464 7.41085 130.464 7.73814V16.2608C130.464 16.5881 130.333 16.863 130.058 17.0987C129.795 17.3212 129.468 17.439 129.088 17.439C128.708 17.439 128.38 17.3212 128.118 17.0987C127.856 16.8761 127.712 16.5881 127.712 16.2608V7.73814Z" fill="white"/>
<path d="M132.795 3.6C132.795 3.27271 132.926 2.99778 133.201 2.76214C133.463 2.53958 133.791 2.42175 134.171 2.42175C134.551 2.42175 134.878 2.53958 135.14 2.76214C135.402 2.98469 135.546 3.27271 135.546 3.6V16.2596C135.546 16.5869 135.415 16.8618 135.14 17.0975C134.878 17.32 134.551 17.4378 134.171 17.4378C133.791 17.4378 133.463 17.32 133.201 17.0975C132.939 16.8749 132.795 16.5869 132.795 16.2596V3.6ZM142.858 15.3432C143.067 15.5657 143.146 15.8407 143.107 16.1811C143.054 16.5214 142.884 16.8225 142.582 17.0844C142.307 17.3069 142.006 17.4248 141.665 17.4509C141.338 17.464 141.063 17.3462 140.853 17.0844L136.778 12.6201C136.516 12.319 136.385 11.9786 136.385 11.599C136.385 11.2193 136.516 10.8789 136.778 10.5778L140.814 6.12668C141.023 5.86485 141.298 5.74703 141.626 5.76012C141.954 5.77321 142.268 5.90413 142.543 6.12668C142.844 6.38852 143.015 6.68962 143.067 7.03C143.107 7.37039 143.028 7.64531 142.818 7.86787L139.503 11.5859L142.858 15.3432Z" fill="white"/>
<path d="M151.859 17.1242C151.557 17.3075 151.203 17.4384 150.784 17.5038C150.365 17.5693 149.919 17.6086 149.435 17.6086C148.648 17.6086 147.915 17.4646 147.22 17.1635C146.526 16.8623 145.923 16.4434 145.412 15.8936C144.901 15.3568 144.482 14.7153 144.181 13.9822C143.879 13.2491 143.735 12.4505 143.735 11.5864C143.735 10.7224 143.879 9.92378 144.181 9.19065C144.482 8.45752 144.888 7.82912 145.412 7.29237C145.923 6.75561 146.539 6.33668 147.22 6.03557C147.915 5.73446 148.648 5.59045 149.435 5.59045C149.88 5.59045 150.286 5.64282 150.666 5.74755C151.046 5.85229 151.387 5.99629 151.701 6.17958C152.016 6.36286 152.304 6.57233 152.553 6.82107C152.802 7.05672 153.038 7.31855 153.234 7.58038H153.274V6.95198C153.274 6.62469 153.405 6.34977 153.667 6.11412C153.929 5.89156 154.243 5.77374 154.623 5.77374C155.003 5.77374 155.331 5.89156 155.593 6.11412C155.855 6.33668 155.999 6.62469 155.999 6.95198V16.2601C155.999 16.6005 155.868 16.8754 155.593 17.098C155.331 17.3206 155.003 17.4253 154.623 17.4253C154.243 17.4253 153.929 17.3206 153.667 17.098C153.405 16.8754 153.274 16.6005 153.274 16.2601V11.5995C153.274 11.1413 153.195 10.7093 153.025 10.3034C152.854 9.8976 152.619 9.54413 152.317 9.24302C152.016 8.94191 151.662 8.70626 151.256 8.52298C150.85 8.35279 150.417 8.26115 149.946 8.26115C149.487 8.26115 149.055 8.35279 148.648 8.52298C148.242 8.69317 147.889 8.94191 147.587 9.24302C147.286 9.54413 147.05 9.8976 146.867 10.3034C146.696 10.7093 146.604 11.1413 146.604 11.5995C146.604 12.0577 146.696 12.4897 146.867 12.9087C147.037 13.3145 147.286 13.6811 147.587 13.9822C147.889 14.2833 148.242 14.5189 148.648 14.7022C149.055 14.8724 149.487 14.9641 149.946 14.9641C150.26 14.9641 150.561 14.9248 150.863 14.8462C151.125 14.7415 151.374 14.7677 151.61 14.9379C151.845 15.095 152.029 15.3175 152.173 15.5794C152.317 15.8805 152.356 16.1816 152.304 16.4827C152.239 16.7576 152.094 16.9802 151.859 17.1242Z" fill="white"/>
<path d="M50.5379 30.2559C50.8524 30.2559 51.1538 30.1904 51.442 30.0726C51.7303 29.9548 51.9792 29.7846 52.1889 29.5751C52.3985 29.3657 52.5688 29.1169 52.6868 28.842C52.8047 28.5671 52.8702 28.2529 52.8702 27.9256C52.8702 27.5983 52.8047 27.2972 52.6868 27.0092C52.5688 26.7343 52.3985 26.4855 52.1889 26.276C51.9792 26.0666 51.7303 25.8964 51.442 25.7786C51.1538 25.6607 50.8524 25.5953 50.5379 25.5953H46.8562V36.5923C46.8562 36.9195 46.7251 37.1945 46.45 37.4301C46.1748 37.6527 45.8473 37.7705 45.4673 37.7705C45.0873 37.7705 44.7598 37.6527 44.4846 37.4301C44.2095 37.2076 44.0784 36.9195 44.0784 36.5923V24.0897C44.0784 23.7625 44.2095 23.4875 44.4846 23.2519C44.7598 23.0293 45.0873 22.9115 45.4673 22.9115H50.551C51.2717 22.9115 51.9399 23.0424 52.5688 23.2912C53.1977 23.5399 53.7481 23.8934 54.2197 24.3385C54.6914 24.7836 55.0583 25.3073 55.3335 25.9226C55.5955 26.5379 55.7396 27.2056 55.7396 27.9256C55.7396 28.6456 55.6086 29.3133 55.3335 29.9286C55.0714 30.5439 54.6914 31.0676 54.2197 31.5127C53.7481 31.9578 53.1977 32.3113 52.5688 32.56C51.9399 32.8088 51.2717 32.9397 50.551 32.9397H49.2015C48.8739 32.9397 48.5988 32.8088 48.3629 32.5469C48.1402 32.2851 48.0223 31.9709 48.0223 31.5913C48.0223 31.2116 48.1402 30.8974 48.3629 30.6356C48.5857 30.3868 48.8739 30.2559 49.2015 30.2559H50.5379Z" fill="#2CD5C4"/>
<path d="M65.0417 37.443C64.7403 37.6263 64.3866 37.7572 63.9673 37.8227C63.548 37.8881 63.1025 37.9274 62.6177 37.9274C61.8316 37.9274 61.0978 37.7834 60.4034 37.4823C59.709 37.1812 59.1063 36.7623 58.5953 36.2124C58.0843 35.6757 57.665 35.0342 57.3636 34.301C57.0623 33.5679 56.9182 32.7693 56.9182 31.9053C56.9182 31.0412 57.0623 30.2426 57.3636 29.5095C57.665 28.7764 58.0712 28.148 58.5953 27.6112C59.1063 27.0745 59.7221 26.6555 60.4034 26.3544C61.0978 26.0533 61.8316 25.9093 62.6177 25.9093C63.0632 25.9093 63.4694 25.9617 63.8494 26.0664C64.2293 26.1711 64.57 26.3151 64.8845 26.4984C65.1989 26.6817 65.4872 26.8912 65.7361 27.1399C65.9851 27.3756 66.2209 27.6374 66.4174 27.8992H66.4567V27.2708C66.4567 26.9435 66.5878 26.6686 66.8498 26.433C67.1119 26.2104 67.4263 26.0926 67.8063 26.0926C68.1863 26.0926 68.5138 26.2104 68.7759 26.433C69.0379 26.6555 69.1821 26.9435 69.1821 27.2708V36.579C69.1821 36.9194 69.051 37.1943 68.7759 37.4168C68.5138 37.6394 68.1863 37.7441 67.8063 37.7441C67.4263 37.7441 67.1119 37.6394 66.8498 37.4168C66.5878 37.1943 66.4567 36.9194 66.4567 36.579V31.9184C66.4567 31.4602 66.3781 31.0281 66.2078 30.6223C66.0375 30.2164 65.8016 29.863 65.5003 29.5619C65.1989 29.2608 64.8451 29.0251 64.439 28.8418C64.0328 28.6716 63.6004 28.58 63.1287 28.58C62.6701 28.58 62.2378 28.6716 61.8316 28.8418C61.4254 29.012 61.0716 29.2608 60.7703 29.5619C60.4689 29.863 60.2331 30.2164 60.0496 30.6223C59.8793 31.0281 59.7876 31.4602 59.7876 31.9184C59.7876 32.3766 59.8793 32.8086 60.0496 33.2275C60.22 33.6334 60.4689 33.9999 60.7703 34.301C61.0716 34.6021 61.4254 34.8378 61.8316 35.0211C62.2378 35.1913 62.6701 35.2829 63.1287 35.2829C63.4432 35.2829 63.7445 35.2436 64.0459 35.1651C64.3079 35.0604 64.5569 35.0865 64.7927 35.2567C65.0286 35.4138 65.212 35.6364 65.3561 35.8982C65.5003 36.1993 65.5396 36.5004 65.4872 36.8015C65.4217 37.0765 65.2775 37.299 65.0417 37.443Z" fill="#2CD5C4"/>
<path d="M71.8679 27.2839C71.8679 26.9566 71.9989 26.6817 72.274 26.4461C72.5361 26.2235 72.8636 26.1057 73.2436 26.1057C73.6236 26.1057 73.9512 26.2235 74.2132 26.4461C74.4753 26.6686 74.6194 26.9566 74.6194 27.2839V36.5921C74.6194 36.9194 74.4884 37.1943 74.2132 37.4299C73.9512 37.6525 73.6236 37.7703 73.2436 37.7703C72.8636 37.7703 72.5361 37.6525 72.274 37.4299C72.012 37.2074 71.8679 36.9194 71.8679 36.5921V27.2839ZM78.7335 25.9093C78.8777 25.9093 79.0218 25.9486 79.1659 26.014C79.3101 26.0795 79.4411 26.1842 79.5459 26.3021C79.6507 26.4199 79.7424 26.5639 79.808 26.721C79.8735 26.8781 79.8997 27.0483 79.8866 27.2185C79.8604 27.5588 79.7424 27.8469 79.5197 28.0825C79.297 28.3182 79.048 28.4229 78.7729 28.3967C78.5108 28.3967 78.2881 28.4229 78.1046 28.4884C77.9212 28.5407 77.764 28.6847 77.6329 28.8942C77.5019 29.1298 77.2923 29.2869 76.9909 29.3524C76.7027 29.4179 76.4013 29.3917 76.1 29.2477C75.7855 29.1037 75.589 28.8942 75.4972 28.6062C75.4055 28.3313 75.3924 28.0563 75.4579 27.7945C75.6021 27.153 75.982 26.6817 76.5847 26.3806C77.1875 26.0664 77.9081 25.9093 78.7335 25.9093Z" fill="#2CD5C4"/>
<path d="M81.6169 23.9336C81.6169 23.6063 81.7479 23.3314 82.0231 23.0958C82.2851 22.8732 82.6127 22.7554 82.9926 22.7554C83.3726 22.7554 83.7002 22.8732 83.9622 23.0958C84.2243 23.3183 84.3684 23.6063 84.3684 23.9336V36.5932C84.3684 36.9205 84.2374 37.1954 83.9622 37.4311C83.7002 37.6536 83.3726 37.7715 82.9926 37.7715C82.6127 37.7715 82.2851 37.6536 82.0231 37.4311C81.761 37.2085 81.6169 36.9205 81.6169 36.5932V23.9336ZM91.6665 35.6637C91.8761 35.8863 91.9547 36.1612 91.9154 36.5016C91.863 36.842 91.6927 37.1431 91.3913 37.4049C91.1162 37.6275 90.8148 37.7453 90.4742 37.7715C90.1466 37.7846 89.8715 37.6667 89.6618 37.4049L85.5869 32.9407C85.3249 32.6395 85.1939 32.2992 85.1939 31.9195C85.1939 31.5399 85.3249 31.1995 85.5869 30.8984L89.6225 26.4472C89.8321 26.1854 90.1073 26.0676 90.4349 26.0806C90.7624 26.0937 91.0769 26.2247 91.352 26.4472C91.6534 26.709 91.8237 27.0101 91.8761 27.3505C91.9154 27.6909 91.8368 27.9658 91.6272 28.1884L88.3123 31.9064L91.6665 35.6637Z" fill="#2CD5C4"/>
<path d="M28.4085 23.002C25.9059 27.2437 21.5952 29.9668 16.7342 30.4381V37.4552C16.7342 38.3061 16.0397 39 15.1881 39C14.3364 39 13.642 38.3061 13.642 37.4552V15.9587C13.642 15.1078 14.3364 14.4139 15.1881 14.4139C16.0397 14.4139 16.7342 15.1078 16.7342 15.9587V20.3313C18.4244 19.8339 19.787 18.5378 20.3504 16.8097C20.6125 15.998 21.4773 15.5529 22.2896 15.8147C23.102 16.0766 23.5474 16.9406 23.2854 17.7523C22.3027 20.7634 19.7739 22.9366 16.7342 23.4864V27.3354C20.4946 26.8772 23.8095 24.7301 25.7487 21.431C29.1553 15.6445 27.2292 8.16921 21.438 4.76539C15.6467 1.36157 8.16515 3.28604 4.75851 9.07254C1.83666 14.0212 2.80624 20.423 7.07764 24.2719C7.70656 24.8479 7.75897 25.8167 7.19557 26.4451C6.61906 27.0735 5.64948 27.1259 5.02056 26.5499C2.45247 24.2326 0.73605 21.0514 0.185747 17.6214C-0.364557 14.139 0.316772 10.5388 2.11181 7.48845C6.38321 0.26187 15.7515 -2.16008 23.0102 2.10779C30.2559 6.38875 32.6799 15.7493 28.4085 23.002Z" fill="#2CD5C4"/>
</svg>
