<svg width="322" height="82" viewBox="0 0 322 82" fill="none" xmlns="http://www.w3.org/2000/svg">
<path d="M126.32 13.1055C126.32 21.6133 126.32 30.1211 126.32 38.5C124.922 38.5 123.398 38.5 122 38.5C122 27.543 122 16.5859 122 5.5C123.27 5.5 124.541 5.5 125.811 5.5C125.939 5.5 126.193 5.75781 126.32 6.01563C130.131 11.8164 133.943 17.6172 137.754 23.2891C137.754 23.2891 137.754 23.418 137.881 23.418C138.008 23.2891 138.135 23.0313 138.262 22.9023C141.82 17.2305 145.377 11.5586 148.807 5.88672C148.934 5.75781 149.189 5.5 149.316 5.5C150.586 5.5 151.73 5.5 153 5.5C153 16.5859 153 27.543 153 38.5C151.602 38.5 150.205 38.5 148.68 38.5C148.68 30.1211 148.68 21.6133 148.68 12.9766C148.426 13.3633 148.299 13.4922 148.299 13.6211C145.25 18.6484 142.201 23.5469 139.025 28.5742C138.898 28.7031 138.643 28.9609 138.389 28.9609C136.611 29.0898 136.611 29.0898 135.721 27.543C132.799 23.1602 129.877 18.7773 126.955 14.2656C126.828 14.0078 126.574 13.6211 126.32 13.1055Z" fill="#185A7D"/>
<path d="M227 38.4429C227 27.3869 227 16.4595 227 5.53214C227.256 5.53214 227.383 5.53214 227.511 5.53214C230.961 5.53214 234.411 5.40358 237.734 5.6607C242.589 5.91781 246.934 7.58906 250.001 11.7029C251.79 14.1455 252.684 16.9738 252.94 19.9306C253.195 23.9159 252.684 27.7726 250.512 31.2436C248.084 34.9718 244.506 37.0287 240.289 37.9286C238.756 38.1857 237.095 38.3143 235.561 38.4429C232.75 38.5714 229.939 38.4429 227 38.4429ZM231.472 34.5861C233.261 34.5861 235.05 34.5861 236.711 34.5861C237.478 34.5861 238.245 34.4576 238.884 34.329C243.484 33.4291 246.551 30.858 247.828 26.2299C248.467 23.7873 248.595 21.3447 248.212 18.9021C247.573 14.7883 245.273 11.8315 241.312 10.2888C239.267 9.51742 237.223 9.26031 235.05 9.26031C233.9 9.26031 232.622 9.26031 231.472 9.26031C231.472 17.8737 231.472 26.2299 231.472 34.5861Z" fill="#185A7D"/>
<path d="M219 38.5C217.337 38.5 215.674 38.5 214.14 38.5C213.884 38.5 213.628 38.2422 213.5 37.9844C211.709 34.8906 209.919 31.7969 208 28.7031C207.36 27.6719 206.721 26.7695 206.081 25.8672C205.57 25.2227 204.802 24.8359 203.907 24.8359C203.14 24.9648 202.372 24.8359 201.477 24.8359C201.477 29.3477 201.477 33.8594 201.477 38.5C199.942 38.5 198.535 38.5 197 38.5C197 27.543 197 16.5859 197 5.5C197.128 5.5 197.256 5.5 197.512 5.5C200.581 5.5 203.523 5.5 206.593 5.62891C209.663 5.75781 212.477 6.78906 214.267 9.49609C217.721 14.2656 215.546 20.9688 210.174 23.0313C209.919 23.1602 209.663 23.2891 209.407 23.2891C210.814 24.4492 211.709 25.9961 212.605 27.543C214.651 31.0234 216.698 34.5039 218.744 37.9844C218.872 38.1133 218.872 38.2422 219 38.5ZM201.477 21.2266C203.395 21.2266 205.314 21.3555 207.105 20.8398C209.535 20.0664 210.942 18.2617 211.198 16.0703C211.453 13.2344 210.43 11.1719 208.256 10.1406C206.081 8.98047 203.779 9.36719 201.477 9.36719C201.477 13.2344 201.477 17.1016 201.477 21.2266Z" fill="#185A7D"/>
<path d="M259 38.5C259.653 36.835 260.306 35.1699 260.829 33.633C264.356 24.5394 267.883 15.4457 271.41 6.22404C271.671 5.71172 271.802 5.45556 272.455 5.58364C273.369 5.58364 274.414 5.32749 274.937 5.71172C275.59 6.09596 275.721 7.12059 275.982 7.88907C279.901 17.7512 283.82 27.7413 287.739 37.6034C287.869 37.8596 287.869 38.1158 288 38.3719C287.739 38.3719 287.477 38.3719 287.347 38.5C286.171 38.5 284.995 38.5 283.82 38.5C283.297 38.5 283.167 38.3719 282.905 37.8596C281.991 35.4261 281.077 32.9926 280.162 30.431C280.032 29.9187 279.77 29.7906 279.248 29.7906C275.329 29.7906 271.541 29.7906 267.622 29.7906C267.099 29.7906 266.838 29.9187 266.707 30.431C265.793 32.8645 264.878 35.298 263.964 37.8596C263.833 38.2438 263.572 38.5 263.05 38.5C261.743 38.5 260.437 38.5 259 38.5ZM268.405 26.2044C271.802 26.2044 275.068 26.2044 278.464 26.2044C276.766 21.5935 275.198 16.9827 273.5 12.3718C271.802 16.9827 270.104 21.5935 268.405 26.2044Z" fill="#185A7D"/>
<path d="M161 38.3722C161.78 36.3277 162.561 34.2832 163.341 32.3665C166.722 23.6774 170.103 14.8606 173.484 6.17147C173.614 5.66034 173.874 5.40478 174.395 5.53256C175.045 5.53256 175.695 5.53256 176.345 5.53256C176.865 5.53256 177.126 5.66034 177.386 6.17147C181.287 16.0106 185.058 25.7219 188.96 35.561C189.35 36.4555 189.61 37.35 190 38.3722C188.7 38.3722 187.529 38.3722 186.359 38.3722C185.058 38.3722 185.058 38.3722 184.538 37.0944C183.628 34.7944 182.848 32.4943 181.937 30.322C181.807 29.9387 181.547 29.8109 181.157 29.8109C177.256 29.8109 173.354 29.8109 169.453 29.8109C168.933 29.8109 168.803 29.9387 168.543 30.4498C167.632 32.8776 166.722 35.3055 165.812 37.8611C165.682 38.3722 165.422 38.5 164.901 38.5C163.861 38.3722 162.43 38.3722 161 38.3722ZM175.435 12.3049C173.744 16.9051 172.054 21.5052 170.363 26.1053C173.744 26.1053 176.996 26.1053 180.377 26.1053C178.686 21.5052 177.126 16.9051 175.435 12.3049Z" fill="#185A7D"/>
<path d="M295 5.5C296.594 5.5 298.055 5.5 299.648 5.5C299.648 15.168 299.648 24.8359 299.648 34.6328C303.766 34.6328 307.883 34.6328 312 34.6328C312 35.9219 312 37.2109 312 38.5C306.422 38.5 300.711 38.5 295 38.5C295 27.543 295 16.5859 295 5.5Z" fill="#185A7D"/>
<path d="M91.5693 74.4746C92.3368 74.6009 92.7205 74.222 92.9763 74.0957C98.4767 70.6856 105.384 58.5608 107.815 54.6456C109.989 51.1092 109.094 46.6887 105.768 44.1627C104.361 43.1523 102.954 42.1419 101.93 41.6367C101.035 41.1315 100.012 40.7526 99.1163 40.5C98.7326 41.763 98.2209 42.8997 97.8372 44.289C96.8138 47.3202 95.6626 50.3514 94.6393 53.5089C93.8718 55.7822 93.2322 57.803 92.5926 59.6975C90.6738 65.381 89.1389 69.8015 89.0109 71.5697C88.883 73.7168 89.9063 73.9694 90.5459 74.222C90.8018 74.3483 91.3134 74.4746 91.5693 74.4746Z" fill="#C32C29"/>
<path d="M37.5572 73.5C38.8318 71.9916 41.6358 68.849 44.5672 65.3293C43.9299 64.3236 43.5476 63.318 43.4201 62.5638C43.0377 60.1754 45.9692 51.6276 51.1948 36.6689C52.2144 33.652 53.3615 30.6351 54.3811 27.6182C55.1458 25.3555 55.7831 23.3443 56.4204 21.4587C58.3322 15.8021 59.8616 11.4024 59.9891 9.64259C60.1165 7.50563 59.0969 7.00281 58.5871 6.75141C58.0773 6.5 57.5675 6.5 57.5675 6.5C56.038 7.75704 52.9791 10.6482 49.7928 13.9165C50.8124 15.2992 51.4497 16.682 51.5771 17.6876C51.9595 20.076 49.0281 28.6238 43.8025 43.5826C42.7828 46.5994 41.6358 49.6163 40.6161 52.7589C39.8514 55.0216 39.2141 57.0328 38.5769 58.9184C36.6651 64.575 35.1356 68.9747 35.0082 70.7345C34.8807 72.8715 36.2827 73.2486 36.5376 73.3743C37.0474 73.3743 37.5572 73.5 37.5572 73.5Z" fill="#C32C29"/>
<path d="M37.0407 75.0714C36.6499 75.0714 33.7834 74.5661 34.044 71.0286C34.3046 68.5018 36.6499 61.9322 39.7769 52.5831C45.2493 37.1697 51.3731 20.7457 50.9822 17.9662C50.7216 16.0711 47.9854 12.5336 43.6857 9.37516C35.9984 4.06893 32.4804 5.71133 31.9593 5.83767C32.3501 5.83767 35.2166 6.34303 34.956 9.88052C34.6954 12.4073 32.3501 18.9769 29.2231 28.326C23.7507 43.7394 17.6269 60.1634 18.0178 62.9429C18.2784 64.838 21.0146 68.3755 25.3143 71.5339C33.0016 76.9665 36.5196 75.3241 37.0407 75.0714Z" fill="#2B5971"/>
<path d="M64.0407 75.0714C63.6499 75.0714 60.7834 74.5661 61.044 71.0286C61.3046 68.5018 63.6499 61.9322 66.7769 52.5831C72.2493 37.1697 78.3731 20.7457 77.9822 17.9662C77.7216 16.0711 74.9854 12.5336 70.6857 9.37516C62.9984 4.06893 59.4804 5.71133 58.9593 5.83767C59.3501 5.83767 62.2166 6.34303 61.956 9.88052C61.6954 12.4073 59.3501 18.9769 56.2231 28.326C50.7507 43.7394 44.6269 60.1634 45.0178 62.9429C45.2784 64.838 48.0146 68.3755 52.3143 71.5339C60.0016 76.9665 63.6499 75.3241 64.0407 75.0714Z" fill="#185A7D"/>
<path d="M37.0407 75.0714C36.6499 75.0714 33.7834 74.5661 34.044 71.0286C34.3046 68.5018 36.6499 61.9322 39.7769 52.5831C45.2493 37.1697 51.3731 20.7457 50.9822 17.9662C50.7216 16.0711 47.9854 12.5336 43.6857 9.37516C35.9984 4.06893 32.4804 5.71133 31.9593 5.83767C32.3501 5.83767 35.2166 6.34303 34.956 9.88052C34.6954 12.4073 32.3501 18.9769 29.2231 28.326C23.7507 43.7394 17.6269 60.1634 18.0178 62.9429C18.2784 64.838 21.0146 68.3755 25.3143 71.5339C33.0016 76.9665 36.5196 75.3241 37.0407 75.0714Z" fill="#185A7D"/>
<path d="M91.0407 75.0714C90.6498 75.0714 87.7834 74.5661 88.044 71.0286C88.3046 68.5018 90.6498 61.9322 93.7769 52.5831C99.2493 37.1697 105.373 20.7457 104.982 17.9662C104.722 16.0711 101.985 12.5336 97.6857 9.37516C89.9984 4.06893 86.4804 5.71133 85.9593 5.83767C86.3501 5.83767 89.2166 6.34303 88.956 9.88052C88.6954 12.4073 86.3501 18.9769 83.2231 28.326C77.7507 43.7394 71.6269 60.1634 72.0178 62.9429C72.2784 64.838 75.0146 68.3755 79.3143 71.5339C87.0016 76.9665 90.5196 75.3241 91.0407 75.0714Z" fill="#185A7D"/>
<path d="M64.5572 73.5C65.8318 71.9916 68.6358 68.849 71.5672 65.3293C70.9299 64.3236 70.5476 63.318 70.4201 62.5638C70.0377 60.1754 72.9692 51.6276 78.1948 36.6689C79.2144 33.652 80.3615 30.6351 81.3811 27.6182C82.1458 25.3555 82.7831 23.3443 83.4204 21.4587C85.3322 15.8021 86.8616 11.4024 86.9891 9.64259C87.1165 7.50563 86.0969 7.00281 85.5871 6.75141C85.0773 6.5 84.5675 6.5 84.5675 6.5C83.038 7.75704 79.9791 10.6482 76.7928 13.9165C77.8124 15.2992 78.4497 16.682 78.5771 17.6876C78.9595 20.076 76.0281 28.6238 70.8025 43.5826C69.7828 46.5994 68.6358 49.6163 67.6161 52.7589C66.8514 55.0216 66.2141 57.0328 65.5769 58.9184C63.6651 64.575 62.1356 68.9747 62.0082 70.7345C61.8807 72.8715 63.2827 73.2486 63.5376 73.3743C63.92 73.3743 64.5572 73.5 64.5572 73.5Z" fill="#C32C29"/>
<path d="M30.6802 6.5C28.4997 8.50643 18.8798 21.5482 12.5948 30.0756C9.64471 34.0884 10.9274 39.7315 15.2884 42.2396L21.0603 45.5C21.9582 42.8666 22.9843 39.9823 24.1387 36.8473C25.1648 33.8376 26.3192 30.828 27.3453 27.6929C28.1149 25.4357 28.7562 23.4293 29.3976 21.5482C31.3216 15.9051 32.8607 11.5161 32.989 9.76045C33.1173 7.62862 32.0911 7.00161 31.5781 6.87621C31.065 6.5 30.6802 6.5 30.6802 6.5Z" fill="#C32C29"/>
<path d="M142.869 65.7092C143 68.5962 141.949 70.8556 139.846 72.7385C137.743 74.6213 134.983 75.5 131.697 75.5C128.28 75.5 125.389 74.3703 123.286 71.9854C121.051 69.6004 120 66.7134 120 63.0732V57.9268C120 54.2866 121.051 51.3996 123.286 49.0146C125.52 46.6297 128.28 45.5 131.697 45.5C135.114 45.5 137.874 46.3787 139.977 48.136C142.08 49.8933 143 52.1527 143 55.1653V55.2908H139.057C139.057 53.2824 138.4 51.6506 137.217 50.3954C135.903 49.2657 134.194 48.6381 131.96 48.6381C129.594 48.6381 127.754 49.5167 126.44 51.2741C125.126 53.0314 124.337 55.2908 124.337 57.9268V63.1987C124.337 65.8347 124.994 68.0941 126.44 69.8515C127.754 71.6088 129.594 72.4874 131.96 72.4874C134.194 72.4874 136.034 71.8598 137.217 70.7301C138.531 69.6004 139.057 67.9686 139.057 65.8347H142.869V65.7092Z" fill="#185A7D"/>
<path d="M172.151 67H159.849L157.059 74.5H153L164.415 45.5H167.839L179 74.5H174.941L172.151 67ZM161.117 63.75H171.01L166.19 50.5H166.063L161.117 63.75Z" fill="#185A7D"/>
<path d="M192 74.3755V45.5H201.791C204.883 45.5 207.331 46.1223 209.135 47.4914C210.939 48.7361 211.84 50.7275 211.84 53.3412C211.84 54.5858 211.454 55.8305 210.552 56.8262C209.65 57.8219 208.62 58.5687 207.202 59.0665C209.006 59.4399 210.423 60.3112 211.454 61.6803C212.485 63.0494 213 64.5429 213 66.2854C213 68.8991 212.098 70.8906 210.294 72.3841C208.491 73.7532 206.172 74.5 203.08 74.5H192V74.3755ZM195.994 57.8219H202.564C204.11 57.8219 205.27 57.4485 206.301 56.5773C207.202 55.8305 207.718 54.7103 207.718 53.2167C207.718 51.5987 207.202 50.4785 206.172 49.7318C205.141 48.985 203.724 48.6116 201.791 48.6116H196.123V57.8219H195.994ZM195.994 60.809V71.2639H202.951C204.755 71.2639 206.172 70.7661 207.202 69.8948C208.233 69.0236 208.748 67.779 208.748 66.1609C208.748 64.4185 208.362 63.1738 207.46 62.1781C206.558 61.1824 205.27 60.6845 203.466 60.6845H195.994V60.809Z" fill="#185A7D"/>
<path d="M230.957 71.375H245V74.5H227V45.5H230.957V71.375Z" fill="#185A7D"/>
<path d="M276.792 61H263.026V71.375H279V74.5H259V45.5H278.74V48.625H263.026V58H276.792V61Z" fill="#185A7D"/>
<path d="M307.729 67.7176C307.729 66.3368 307.212 65.3326 306.176 64.3285C305.141 63.4498 303.329 62.6967 300.741 62.069C297.506 61.3159 295.047 60.3117 293.365 58.8054C291.553 57.4247 290.647 55.5418 290.647 53.4079C290.647 51.1485 291.553 49.2657 293.494 47.7594C295.435 46.2531 297.894 45.5 301 45.5C304.235 45.5 306.953 46.3787 308.894 48.136C310.835 49.8933 311.741 51.9017 311.741 54.1611V54.2866H307.859C307.859 52.5293 307.341 51.1485 306.176 50.1444C305.012 49.1402 303.329 48.5126 301.129 48.5126C299.059 48.5126 297.506 49.0146 296.471 49.8933C295.435 50.772 294.788 51.9017 294.788 53.4079C294.788 54.6632 295.435 55.7929 296.6 56.546C297.765 57.4247 299.706 58.1778 302.294 58.8054C305.4 59.5586 307.859 60.6883 309.541 62.1946C311.224 63.7008 312 65.4582 312 67.7176C312 70.1025 310.965 71.9854 309.024 73.3661C307.082 74.7469 304.494 75.5 301.259 75.5C298.282 75.5 295.565 74.7469 293.365 73.1151C291.035 71.4833 290 69.4749 290 66.8389V66.7134H293.882C293.882 68.5962 294.529 69.977 295.953 70.9812C297.376 71.9854 299.059 72.4874 301.259 72.4874C303.329 72.4874 304.882 72.1109 306.176 71.2322C307.082 70.228 307.729 69.0983 307.729 67.7176Z" fill="#185A7D"/>
</svg>
