<svg xmlns="http://www.w3.org/2000/svg" xml:space="preserve" style="enable-background:new 0 0 396.85 155.91" viewBox="0 0 396.85 155.91"><path d="M90.27 113.11v-23.3H70.46v23.31H55.31l18.37 18.37a9.446 9.446 0 0 0 13.36 0l18.37-18.37H90.27zm-44.86-9.9V53.1L27.03 71.47a9.446 9.446 0 0 0 0 13.36l18.38 18.38zM70.46 43.2v23.3h19.81V43.2h15.15L87.05 24.82a9.446 9.446 0 0 0-13.36 0L55.31 43.2h15.15zm63.24 28.27L115.33 53.1v50.11l18.37-18.37c3.69-3.69 3.69-9.68 0-13.37zm49.05-23.43h-13.3v-9.31c0-2.45-1.81-4.25-4.25-4.25h-11.7v9.84h5.32v27.39h10.64V58.14h13.3V71.7h10.64V34.48h-10.64v13.56zm35.11-14.09c-11.22 0-19.41 8.08-19.41 19.15s8.19 19.15 19.41 19.15 19.41-8.08 19.41-19.15-8.19-19.15-19.41-19.15zm0 27.92c-5.05 0-8.78-3.72-8.78-8.78s3.72-8.78 8.78-8.78 8.78 3.72 8.78 8.78-3.73 8.78-8.78 8.78zm52.32-9.85c2.63-1.61 4.27-4.35 4.27-7.65 0-5.74-3.72-9.89-11.12-9.89h-21.01v37.23h21.01c7.77 0 12.29-4.52 12.29-10.74 0-4-2.12-7.23-5.44-8.95zm-17.97-9.25h7.92c2.5 0 3.94 1.22 3.94 3.3s-1.44 3.3-3.94 3.3h-7.92v-6.6zm8.67 20.75h-8.67V56.6h8.67c2.66 0 4.15 1.28 4.15 3.46 0 2.18-1.49 3.46-4.15 3.46zm31.01-29.04-14.68 37.23h11.33l2.36-6.86h14.95l2.36 6.86h11.54l-14.68-37.23h-13.18zm1.89 22.02 4.2-12.18h.81l4.2 12.18h-9.21zM189.34 83.51H153.7v9.84h5.32v27.39h10.64V93.35h13.3v27.39h10.64V87.77c0-2.71-1.55-4.26-4.26-4.26zm28.72-.53c-11.22 0-19.41 8.08-19.41 19.15s8.19 19.15 19.41 19.15 19.41-8.08 19.41-19.15-8.19-19.15-19.41-19.15zm0 27.92c-5.05 0-8.78-3.72-8.78-8.78 0-5.05 3.72-8.78 8.78-8.78s8.78 3.72 8.78 8.78c0 5.06-3.73 8.78-8.78 8.78zm65.95 0h-10.1V83.51h-10.64v27.39h-10.11V83.51h-10.63v37.23h52.12V83.51h-10.64zm51.86-17.55v-9.84H299.7v9.84h12.76v27.39h10.64V93.35zm27.81 27.39h11.54l-14.68-37.23h-13.19l-14.68 37.23H344l2.36-6.86h14.95l2.37 6.86zm-14.44-15.21 4.2-12.18h.81l4.2 12.18h-9.21z" style="fill:#da292b"/><path d="M0 0h396.85v155.91H0z" style="fill:none"/></svg>