<svg xmlns="http://www.w3.org/2000/svg" width="156" height="39" fill="none"><path fill="#fff" d="M50.84 9.937a2.373 2.373 0 0 0 1.65-.68c.21-.21.38-.46.499-.734a2.384 2.384 0 0 0 0-1.833 2.347 2.347 0 0 0-.498-.733 2.373 2.373 0 0 0-1.65-.68h-3.683v10.996c0 .328-.131.602-.406.838a1.52 1.52 0 0 1-.983.34 1.52 1.52 0 0 1-.983-.34 1.04 1.04 0 0 1-.406-.838V3.758c0-.328.131-.603.406-.838a1.52 1.52 0 0 1 .983-.34h5.084c.72 0 1.389.13 2.018.379a5.14 5.14 0 0 1 1.65 1.047c.472.445.84.97 1.114 1.584.262.616.406 1.283.406 2.003 0 .59-.091 1.14-.288 1.663a5.038 5.038 0 0 1-.812 1.414c-.34.419-.747.772-1.219 1.073-.458.302-.97.524-1.493.668l2.79 3.103c.184.275.223.576.132.916-.092.34-.302.616-.616.838-.315.21-.642.288-.996.249-.354-.04-.616-.197-.8-.471l-4.048-4.975a1.434 1.434 0 0 1-.249-.838c0-.38.118-.694.34-.956.223-.248.512-.38.84-.38h1.218v.04ZM60.784 11.652c0-.34.105-.628.302-.851a.952.952 0 0 1 .733-.34h4.35c-.236-.694-.629-1.244-1.192-1.65-.564-.406-1.206-.602-1.926-.602-.459 0-.891.091-1.284.275a3.686 3.686 0 0 0-1.048.733 3.595 3.595 0 0 0-.721 1.073c-.17.406-.262.851-.262 1.31 0 .458.092.903.262 1.322.17.419.42.798.72 1.126.302.327.669.589 1.075.785.406.197.865.288 1.35.288a5.19 5.19 0 0 0 1.559-.262c.537-.17.983-.419 1.323-.733.197-.222.446-.327.76-.327.315.013.603.13.865.367.262.222.42.484.458.798.04.314-.026.576-.21.799a6.138 6.138 0 0 1-2.161 1.361 7.35 7.35 0 0 1-2.594.485c-.891 0-1.717-.144-2.477-.446a5.957 5.957 0 0 1-1.991-1.27 5.986 5.986 0 0 1-1.337-1.91c-.327-.734-.485-1.533-.485-2.397 0-.864.158-1.662.485-2.395a6.103 6.103 0 0 1 1.323-1.899 5.882 5.882 0 0 1 1.966-1.256c.747-.302 1.56-.446 2.424-.446.838 0 1.625.158 2.358.472a6.301 6.301 0 0 1 1.94 1.27 5.923 5.923 0 0 1 1.795 4.255c0 .156-.04.314-.105.47-.079.158-.17.289-.302.407-.13.117-.275.209-.445.288-.157.078-.34.104-.537.104h-5.936a.924.924 0 0 1-.733-.353 1.25 1.25 0 0 1-.302-.851ZM77.739 8.563a5.911 5.911 0 0 0-1.284-.433 6.601 6.601 0 0 0-1.415-.157c-.603 0-1.049.092-1.35.288-.301.184-.472.406-.524.642-.052.236.013.471.196.68.17.21.446.354.8.407l2.437.366c.393.066.786.183 1.192.354.393.17.76.405 1.088.693.327.288.59.655.799 1.087.196.432.301.943.301 1.532a2.9 2.9 0 0 1-.393 1.505 3.387 3.387 0 0 1-1.074 1.126c-.446.301-.97.537-1.573.707a7.376 7.376 0 0 1-1.886.249 9.567 9.567 0 0 1-2.333-.275 8.072 8.072 0 0 1-1.978-.76c-.236-.143-.393-.366-.459-.68a1.336 1.336 0 0 1 .131-.917 1.37 1.37 0 0 1 .695-.641.973.973 0 0 1 .851.04c.42.235.891.431 1.416.575a7.607 7.607 0 0 0 1.677.262c.55.04.995-.04 1.35-.249.34-.196.576-.432.68-.707a.839.839 0 0 0-.091-.798c-.157-.262-.485-.445-.97-.55l-2.398-.354c-.943-.143-1.703-.497-2.28-1.073-.576-.576-.864-1.348-.864-2.33 0-.537.118-1.021.34-1.467.223-.445.538-.824.944-1.139.393-.314.878-.55 1.441-.72a6.369 6.369 0 0 1 1.848-.248c.681 0 1.336.078 1.952.222a8.143 8.143 0 0 1 1.769.642c.236.104.393.3.484.589.08.288.053.576-.091.877-.144.301-.354.51-.616.641-.288.144-.55.144-.812.014ZM85.863 6.09a2.9 2.9 0 0 1 1.074-.38c.42-.066.865-.105 1.35-.105.786 0 1.52.144 2.227.445.695.301 1.31.72 1.821 1.27a6.15 6.15 0 0 1 1.232 1.912c.301.733.445 1.531.445 2.395 0 .864-.144 1.663-.445 2.396a5.864 5.864 0 0 1-1.232 1.898 5.549 5.549 0 0 1-4.049 1.702c-.89 0-1.65-.196-2.28-.589-.628-.392-1.14-.85-1.532-1.387h-.04v3.98c0 .327-.13.602-.392.837-.263.223-.577.34-.957.34s-.707-.117-.97-.34a1.08 1.08 0 0 1-.406-.838V6.954c0-.34.131-.616.406-.838.263-.223.59-.327.97-.327s.694.104.957.327c.261.222.392.497.392.838v4.66a3.273 3.273 0 0 0 .957 2.357c.301.3.655.537 1.061.72.407.17.839.262 1.31.262.46 0 .891-.092 1.298-.262.406-.17.76-.42 1.074-.72a3.307 3.307 0 0 0 .72-3.653c-.17-.406-.418-.76-.72-1.073a3.367 3.367 0 0 0-2.371-.982c-.328 0-.63.04-.918.118a.735.735 0 0 1-.746-.092 1.785 1.785 0 0 1-.564-.641 1.463 1.463 0 0 1-.13-.904c.078-.288.222-.51.458-.654ZM98.468 12.438c0 .38.052.733.157 1.06.105.328.262.603.472.838.21.223.471.393.786.51.314.105.668.145 1.074.105l.367-.039c.262-.026.498.053.721.249.222.196.366.445.432.76.065.327.026.615-.092.876a1.05 1.05 0 0 1-.589.524c-.472.196-1.036.288-1.691.288-.668 0-1.27-.118-1.808-.353a4.183 4.183 0 0 1-1.389-.982 4.474 4.474 0 0 1-.89-1.519 5.88 5.88 0 0 1-.315-1.964V6.953c0-.328.131-.603.406-.838.262-.223.59-.34.97-.34s.707.117.97.34c.261.222.405.51.405.838v5.485h.014Zm5.005-5.485c0-.328.131-.603.406-.838.262-.223.589-.34.969-.34s.708.117.97.34c.262.222.406.51.406.838v9.308c0 .327-.131.602-.406.838a1.46 1.46 0 0 1-.97.34c-.38 0-.707-.118-.969-.34a1.079 1.079 0 0 1-.406-.838V6.953ZM112.696 6.09a2.903 2.903 0 0 1 1.075-.38 8.675 8.675 0 0 1 1.349-.105c.786 0 1.52.144 2.228.445a5.38 5.38 0 0 1 1.821 1.27c.511.537.93 1.178 1.231 1.912.302.733.446 1.531.446 2.395 0 .864-.144 1.663-.446 2.396a5.86 5.86 0 0 1-1.231 1.898 5.554 5.554 0 0 1-4.049 1.702c-.891 0-1.651-.196-2.28-.589-.629-.393-1.14-.85-1.533-1.387h-.039v.628c0 .327-.131.602-.393.838-.262.222-.577.34-.957.34s-.707-.118-.969-.34a1.079 1.079 0 0 1-.406-.838V3.602c0-.34.131-.615.406-.838.262-.222.589-.327.969-.327s.695.105.957.327c.262.223.393.498.393.838v8.012a3.27 3.27 0 0 0 .956 2.357 3.55 3.55 0 0 0 1.062.72c.406.17.838.262 1.31.262.459 0 .891-.092 1.297-.262a3.53 3.53 0 0 0 1.075-.72 3.305 3.305 0 0 0 .982-2.357c0-.458-.091-.89-.262-1.296a3.514 3.514 0 0 0-.72-1.073 3.38 3.38 0 0 0-2.372-.982c-.328 0-.629.04-.917.118a.736.736 0 0 1-.747-.092 1.782 1.782 0 0 1-.563-.642 1.453 1.453 0 0 1-.131-.903c.078-.288.222-.51.458-.654ZM122.641 3.6c0-.327.131-.602.406-.838.262-.222.59-.34.97-.34s.707.118.97.34c.262.223.406.51.406.838v12.66c0 .327-.131.602-.406.837-.263.223-.59.34-.97.34a1.46 1.46 0 0 1-.97-.34 1.08 1.08 0 0 1-.406-.837V3.6ZM127.542 3.719c0-.432.144-.799.445-1.1a1.495 1.495 0 0 1 1.101-.445c.432 0 .799.144 1.101.445.301.301.445.668.445 1.1 0 .432-.144.799-.445 1.1a1.495 1.495 0 0 1-1.101.445c-.432 0-.799-.144-1.101-.445a1.491 1.491 0 0 1-.445-1.1Zm.17 4.02c0-.328.131-.603.406-.839.262-.222.59-.34.97-.34s.707.118.97.34c.262.223.406.51.406.838v8.523c0 .327-.131.602-.406.838-.263.222-.59.34-.97.34a1.46 1.46 0 0 1-.97-.34 1.08 1.08 0 0 1-.406-.838V7.738ZM132.795 3.6c0-.327.131-.602.406-.838.262-.222.59-.34.97-.34s.707.118.969.34c.262.223.406.51.406.838v12.66c0 .327-.131.602-.406.837-.262.223-.589.34-.969.34a1.46 1.46 0 0 1-.97-.34 1.08 1.08 0 0 1-.406-.837V3.6Zm10.063 11.743c.209.223.288.498.249.838-.053.34-.223.642-.525.903a1.61 1.61 0 0 1-.917.367.942.942 0 0 1-.812-.367l-4.075-4.464a1.514 1.514 0 0 1-.393-1.021c0-.38.131-.72.393-1.021l4.036-4.451a.94.94 0 0 1 .812-.367c.328.013.642.144.917.367.301.262.472.563.524.903.04.34-.039.615-.249.838l-3.315 3.718 3.355 3.757ZM151.859 17.124a2.908 2.908 0 0 1-1.075.38 8.68 8.68 0 0 1-1.349.105c-.787 0-1.52-.144-2.215-.446a5.33 5.33 0 0 1-1.808-1.27 6.143 6.143 0 0 1-1.231-1.91c-.302-.734-.446-1.533-.446-2.397 0-.864.144-1.662.446-2.395a5.859 5.859 0 0 1 1.231-1.899 5.617 5.617 0 0 1 1.808-1.256 5.488 5.488 0 0 1 2.215-.446c.445 0 .851.053 1.231.158.38.104.721.248 1.035.432.315.183.603.392.852.641a6.1 6.1 0 0 1 .681.76h.04v-.629c0-.327.131-.602.393-.838.262-.222.576-.34.956-.34s.708.118.97.34c.262.223.406.51.406.838v9.308c0 .34-.131.615-.406.838-.262.223-.59.327-.97.327s-.694-.104-.956-.327a1.048 1.048 0 0 1-.393-.838V11.6a3.274 3.274 0 0 0-.957-2.356 3.532 3.532 0 0 0-1.061-.721 3.344 3.344 0 0 0-1.31-.262 3.318 3.318 0 0 0-2.359.982 3.53 3.53 0 0 0-.72 1.06 3.309 3.309 0 0 0-.263 1.296 3.364 3.364 0 0 0 2.044 3.103c.407.17.839.262 1.298.262a3.6 3.6 0 0 0 .917-.118.736.736 0 0 1 .747.092c.235.157.419.38.563.641.144.301.183.603.131.904a.988.988 0 0 1-.445.641Z"/><path fill="#2CD5C4" d="M50.538 30.256a2.373 2.373 0 0 0 1.65-.68c.21-.21.38-.46.499-.734a2.384 2.384 0 0 0 0-1.833 2.348 2.348 0 0 0-.498-.733 2.371 2.371 0 0 0-1.651-.68h-3.682v10.996c0 .328-.13.602-.406.838a1.52 1.52 0 0 1-.983.34 1.52 1.52 0 0 1-.982-.34 1.04 1.04 0 0 1-.407-.838V24.09c0-.328.131-.602.407-.838a1.52 1.52 0 0 1 .982-.34h5.084c.72 0 1.389.13 2.018.38a5.14 5.14 0 0 1 1.65 1.046 4.88 4.88 0 0 1 1.114 1.585c.263.615.407 1.283.407 2.003 0 .72-.131 1.387-.407 2.003a4.69 4.69 0 0 1-1.113 1.584 5.14 5.14 0 0 1-1.651 1.047 5.422 5.422 0 0 1-2.018.38h-1.35c-.327 0-.602-.131-.838-.393a1.422 1.422 0 0 1-.34-.956c0-.38.117-.694.34-.955.223-.25.51-.38.839-.38h1.336ZM65.042 37.443a2.9 2.9 0 0 1-1.075.38c-.419.065-.864.104-1.35.104-.785 0-1.52-.144-2.214-.445a5.324 5.324 0 0 1-1.808-1.27 6.15 6.15 0 0 1-1.231-1.911c-.302-.733-.446-1.532-.446-2.396 0-.864.144-1.662.446-2.396a5.866 5.866 0 0 1 1.231-1.898 5.615 5.615 0 0 1 1.808-1.257 5.486 5.486 0 0 1 2.215-.445 4.6 4.6 0 0 1 1.231.157c.38.105.721.25 1.036.432.314.184.602.393.851.642.25.236.485.497.681.76h.04v-.63c0-.326.13-.601.393-.837.262-.223.576-.34.956-.34s.708.117.97.34c.262.223.406.51.406.838v9.308c0 .34-.131.615-.406.838-.262.222-.59.327-.97.327s-.694-.105-.956-.327a1.048 1.048 0 0 1-.393-.838v-4.66a3.272 3.272 0 0 0-.956-2.356 3.538 3.538 0 0 0-1.062-.721 3.344 3.344 0 0 0-1.31-.262 3.31 3.31 0 0 0-2.358.982 3.532 3.532 0 0 0-.721 1.06 3.32 3.32 0 0 0-.262 1.296 3.365 3.365 0 0 0 2.044 3.103c.406.17.838.262 1.297.262.314 0 .616-.04.917-.118a.735.735 0 0 1 .747.092c.236.157.419.38.563.641.144.301.184.602.131.903a.988.988 0 0 1-.445.642ZM71.868 27.284c0-.327.13-.602.406-.838.262-.223.59-.34.97-.34s.707.117.97.34c.261.223.405.51.405.838v9.308c0 .327-.13.602-.406.838-.262.223-.59.34-.97.34s-.707-.117-.969-.34a1.08 1.08 0 0 1-.406-.838v-9.308Zm6.866-1.375c.144 0 .288.04.432.105.144.066.275.17.38.288.105.118.196.262.262.419.066.157.092.327.079.497-.027.34-.145.629-.367.864-.223.236-.472.34-.747.315a2.01 2.01 0 0 0-.668.091c-.184.053-.341.197-.472.406a.917.917 0 0 1-.642.458c-.288.066-.59.04-.891-.104-.314-.144-.511-.354-.603-.642a1.436 1.436 0 0 1-.04-.812c.145-.641.525-1.112 1.128-1.413.603-.315 1.323-.472 2.149-.472ZM81.617 23.934c0-.328.13-.603.406-.838.262-.223.59-.34.97-.34s.707.117.97.34c.261.222.405.51.405.838v12.66c0 .326-.13.601-.406.837a1.46 1.46 0 0 1-.97.34 1.46 1.46 0 0 1-.969-.34 1.08 1.08 0 0 1-.406-.838v-12.66Zm10.05 11.73c.21.222.288.497.248.838-.052.34-.222.641-.524.903-.275.222-.576.34-.917.367a.941.941 0 0 1-.812-.367l-4.075-4.464a1.514 1.514 0 0 1-.393-1.022c0-.38.13-.72.393-1.02l4.035-4.452a.942.942 0 0 1 .813-.366c.327.013.642.144.917.366.301.262.472.563.524.904.04.34-.04.615-.249.837l-3.315 3.718 3.355 3.758ZM28.409 23.002a15.194 15.194 0 0 1-11.675 7.436v7.017c0 .851-.694 1.545-1.546 1.545a1.548 1.548 0 0 1-1.546-1.545V15.96c0-.851.694-1.545 1.546-1.545.852 0 1.546.694 1.546 1.545v4.372a5.405 5.405 0 0 0 3.616-3.521 1.539 1.539 0 0 1 1.94-.995 1.537 1.537 0 0 1 .995 1.937 8.48 8.48 0 0 1-6.55 5.734v3.85a12.104 12.104 0 0 0 9.014-5.905c3.406-5.787 1.48-13.262-4.311-16.666-5.791-3.403-13.273-1.479-16.68 4.308-2.921 4.948-1.952 11.35 2.32 15.199.629.576.681 1.545.118 2.173a1.537 1.537 0 0 1-2.175.105A15.346 15.346 0 0 1 .186 17.62 15.317 15.317 0 0 1 2.112 7.488C6.383.262 15.752-2.16 23.01 2.108c7.246 4.28 9.67 13.641 5.398 20.894Z"/></svg>