<svg xmlns="http://www.w3.org/2000/svg" viewBox="0 0 312 32"><path fill="#fff" d="M116.801 23.354c-1.434 0-2.893-.202-2.893-1.698v-2.703h19.647v-5.854h-19.647V8.604h19.797V2.302h-27.599v17.772c0 4.839 1.046 9.782 8.783 9.782h19.045v-6.503h-17.133zM46.021 2.289h-7.683v27.569h7.683V2.289zM224.635 2.289h-8.025l-8.819 13.583-8.817-13.583h-8.719v27.569h7.683V13.056l7.091 10.919h5.521l7.095-10.919v16.802h7.677V2.289h-.687zM251.769 29.858h8.588L249.07 2.289h-10.083l-11.288 27.569h8.589l1.633-4.5h12.208l1.639 4.5zm-11.452-11.101 3.709-10.21 3.709 10.21h-7.419zM270.407 23.35V2.304h-7.661v27.554h21.901V23.35h-14.24zM295.847 23.35V2.304h-7.667v27.554h21.907V23.35h-14.24zM25.777 29.858h9.211a17.703 17.703 0 0 1-5.477-10.338c1.364-.866 2.487-2.057 3.265-3.463s1.186-2.983 1.187-4.586c0-4.923-.961-9.201-10.361-9.201H2.058v27.569h7.678v-8.768h12.741a20.185 20.185 0 0 0 3.301 8.788zM9.735 8.61h12.173c1.937 0 3.172.069 3.724.571s.707 1.26.707 2.314v.93c0 1.728-.588 2.855-2.748 2.855H9.735V8.609zM162.499 29.858h9.211a17.703 17.703 0 0 1-5.477-10.338 9.617 9.617 0 0 0 3.265-3.463 9.504 9.504 0 0 0 1.187-4.586c0-4.923-.961-9.201-10.361-9.201H138.78v27.569h7.677v-8.768h12.741a20.172 20.172 0 0 0 3.301 8.788zM146.456 8.61h12.193c1.937 0 3.172.069 3.724.571.553.502.708 1.26.708 2.314v.93c0 1.728-.588 2.855-2.749 2.855h-13.876V8.609zM84.442 14.114c-3.331 5.332-5.278 7.843-8.638 7.843-2.539 0-4.222-.773-8.639-7.843-3.286-5.268-7.379-11.815-15.933-11.815h-1.349v8.236h1.349c2.539 0 4.222.773 8.638 7.843 3.286 5.268 7.379 11.815 15.933 11.815s12.631-6.558 15.933-11.815c3.301-5.258 5.253-7.843 8.623-7.843h1.862V2.289h-1.862c-8.539 0-12.627 6.572-15.918 11.825z"/></svg>